<?xml version="1.0" encoding="utf-8"?>
<!-- Generator: Adobe Illustrator 16.0.0, SVG Export Plug-In . SVG Version: 6.00 Build 0)  -->
<!DOCTYPE svg PUBLIC "-//W3C//DTD SVG 1.1//EN" "http://www.w3.org/Graphics/SVG/1.1/DTD/svg11.dtd">
<svg version="1.1" id="Layer_1" xmlns="http://www.w3.org/2000/svg" xmlns:xlink="http://www.w3.org/1999/xlink" x="0px" y="0px"
	 width="1075px" height="605px" viewBox="0 0 1075 605" enable-background="new 0 0 1075 605" xml:space="preserve">
<path fill="#B0AE94" d="M687.214,317.507c-0.236-43.366,19.379-76.098,59.082-100.203c-22.215-31.786-55.773-49.274-100.085-52.701
	c-41.948-3.309-87.796,24.46-104.575,24.46c-17.725,0-58.373-23.278-90.277-23.278c-65.936,1.063-136.007,52.583-136.007,157.395
	c0,30.959,5.672,62.981,17.016,95.949c15.125,43.366,69.717,149.714,126.672,147.941c29.777-0.709,50.811-21.151,89.568-21.151
	c37.576,0,57.073,21.151,90.277,21.151c57.428-0.827,106.82-97.485,121.236-140.97C683.078,389.823,687.214,319.752,687.214,317.507
	L687.214,317.507z M620.333,123.481c32.259-38.285,29.305-73.144,28.359-85.669c-28.478,1.654-61.445,19.379-80.233,41.239
	c-20.679,23.396-32.85,52.347-30.25,84.96C569.05,166.375,597.173,150.541,620.333,123.481z"/>
</svg>
