<?xml version="1.0" encoding="utf-8"?>
<!-- Generator: Adobe Illustrator 16.0.0, SVG Export Plug-In . SVG Version: 6.00 Build 0)  -->
<!DOCTYPE svg PUBLIC "-//W3C//DTD SVG 1.1//EN" "http://www.w3.org/Graphics/SVG/1.1/DTD/svg11.dtd">
<svg version="1.1" id="Capa_1" xmlns="http://www.w3.org/2000/svg" xmlns:xlink="http://www.w3.org/1999/xlink" x="0px" y="0px"
	 width="300px" height="300px" viewBox="0 0 300 300" enable-background="new 0 0 300 300" xml:space="preserve">
<g>
	<g>
		<path d="M294.893,27H5.107c-2.759,0-4.996,2.237-4.996,4.996v219.837c0,2.759,2.237,4.997,4.996,4.997h19.985v-9.993H10.104
			V116.933h149.889c2.76,0,4.996-2.237,4.996-4.996V36.993h14.989v84.937c-0.001,2.03,1.228,3.859,3.108,4.626l106.811,43.698
			v29.153l-78.037-32.136c-0.604-0.248-1.251-0.376-1.904-0.375h-24.98c-2.76,0-4.997,2.236-4.997,4.996v39.971h9.993v-34.975
			h18.985l80.94,33.325v36.623h-84.938v9.993h89.934c2.76,0,4.996-2.238,4.996-4.997V31.996C299.889,29.237,297.652,27,294.893,27z
			 M70.059,106.941H10.104V36.993h59.956V106.941z M154.996,106.941H80.052V36.993h74.944V106.941z M289.896,159.451l-99.926-40.874
			V36.993h99.926V159.451z"/>
	</g>
</g>
<g>
	<g>
		<path d="M95.041,146.911c-30.353,0-54.959,24.606-54.959,54.959c0,30.354,24.606,54.96,54.959,54.96
			c30.354,0,54.959-24.606,54.959-54.96C149.964,171.532,125.379,146.947,95.041,146.911z M95.041,246.837
			c-24.834,0-44.966-20.132-44.966-44.967s20.132-44.966,44.966-44.966c24.835,0,44.967,20.131,44.967,44.966
			C139.977,226.691,119.862,246.807,95.041,246.837z"/>
	</g>
</g>
<g>
	<g>
		<path d="M96.188,122.943c-44.147,0-79.935,35.789-79.935,79.935c0,44.147,35.788,79.937,79.935,79.937
			c44.147,0,79.935-35.789,79.935-79.937C176.071,158.754,140.313,122.995,96.188,122.943z M96.188,268.28
			c-36.12,0-65.401-29.281-65.401-65.402c0-36.12,29.281-65.401,65.401-65.401c36.121,0,65.402,29.281,65.402,65.401
			C161.546,238.979,132.29,268.236,96.188,268.28z"/>
	</g>
</g>
<g>
	<g>
		<path d="M110.729,172.127c-11.549-8.663-27.934-6.324-36.597,5.225c-6.319,8.424-6.967,19.815-1.645,28.901l18.361,28.313
			c1.501,2.315,4.596,2.975,6.911,1.474c0.589-0.382,1.091-0.884,1.473-1.474l18.486-28.549
			C124.253,194.572,121.258,180.053,110.729,172.127z M109.23,200.821l-14.19,21.849l-14.024-21.614
			c-4.42-7.749-1.721-17.614,6.029-22.033c7.749-4.42,17.614-1.721,22.034,6.028c2.781,4.877,2.831,10.848,0.131,15.771H109.23z"/>
	</g>
</g>
</svg>
