<svg height="511pt" viewBox="-12 0 511 511.98804" width="511pt" xmlns="http://www.w3.org/2000/svg"><path d="m467.660156 443.722656h-304.984375c-6.789062-.035156-12.9375 4-15.613281 10.238282l-21.589844 49.492187h-40.535156l32-73.386719c5.445312-12.441406 17.738281-20.476562 31.316406-20.476562h305.070313zm0 0" fill="#cdd6da"/><path d="m453.324219 409.589844h-305.070313c-13.578125 0-25.871094 8.035156-31.316406 20.476562l-32 73.386719h-50.347656c-8.367188-.007813-16.203125-4.109375-20.980469-10.980469s-5.898437-15.644531-2.996094-23.492187l18.773438-50.859375h33.363281c7.179688-.023438 13.585938-4.519532 16.042969-11.265625l23.808593-65.535157h276.480469l7.425781 22.445313c2.335938 6.96875 8.859376 11.671875 16.210938 11.6875h36.183594zm0 0" fill="#2e7d32"/><path d="m454.261719 503.453125h-328.789063l21.589844-49.492187c2.675781-6.238282 8.824219-10.273438 15.613281-10.238282h304.984375l10.238282 24.234375c3.316406 7.90625 2.453124 16.949219-2.300782 24.085938s-12.761718 11.421875-21.335937 11.410156zm0 0" fill="#2e7d32"/><path d="m425.164062 409.589844h-273.664062c-13.582031 0-25.875 8.035156-31.320312 20.476562l-32 73.386719h-53.589844c-8.367188-.007813-16.203125-4.109375-20.980469-10.980469s-5.898437-15.644531-2.996094-23.492187l18.773438-50.859375h33.363281c7.179688-.023438 13.585938-4.519532 16.042969-11.265625l23.808593-65.535157h279.296876l7.425781 22.445313c2.335937 6.96875 8.859375 11.671875 16.210937 11.6875h5.207032zm0 0" fill="#89c14a"/><path d="m426.101562 503.453125h-300.628906l21.589844-49.492187c2.675781-6.238282 8.824219-10.273438 15.613281-10.238282h276.824219l10.238281 24.234375c3.316407 7.90625 2.453125 16.949219-2.300781 24.085938-4.75 7.136719-12.761719 11.421875-21.335938 11.410156zm0 0" fill="#89c14a"/><path d="m102.601562 341.320312-23.808593 65.535157c-2.457031 6.746093-8.863281 11.242187-16.042969 11.265625h-33.363281l22.101562-60.074219c3.675781-10.066406 13.261719-16.753906 23.976563-16.726563zm0 0" fill="#fcbf08"/><path d="m438.902344 375.453125h-36.183594c-7.351562-.015625-13.875-4.71875-16.210938-11.6875l-7.425781-22.445313h28.5c10.304688-.011718 19.601563 6.183594 23.554688 15.703126zm0 0" fill="#fcbf08"/><path d="m235.722656 8.777344-3.15625.257812c-62.007812 5.175782-114.761718 47.25-133.605468 106.546875s-.054688 124.109375 47.589843 164.128907c4.363281 3.597656 7.960938 8.039062 10.578125 13.054687l47.789063 95.746094c5.617187 11.199219 15.628906 19.574219 27.648437 23.125 4.160156 1.195312 8.46875 1.800781 12.796875 1.792969 17.117188.027343 32.777344-9.621094 40.449219-24.917969l48.128906-96.511719c2.402344-4.523438 5.679688-8.527344 9.640625-11.777344 51.15625-42.492187 69.15625-113.074218 44.597657-174.875-24.554688-61.796875-86.089844-100.777344-152.457032-96.570312zm0 0" fill="#c32828"/><path d="m232.566406 9.035156c-62.007812 5.175782-114.761718 47.25-133.605468 106.546875s-.054688 124.109375 47.589843 164.128907c4.363281 3.597656 7.960938 8.039062 10.578125 13.054687l47.789063 95.746094c5.617187 11.199219 15.628906 19.574219 27.648437 23.125 12.015625-3.550781 22.027344-11.925781 27.648438-23.125l48.125-96.511719c2.40625-4.523438 5.683594-8.527344 9.644531-11.777344 47.960937-39.867187 67.054687-104.777344 48.316406-164.265625-18.734375-59.488281-71.582031-101.738281-133.734375-106.921875zm0 0" fill="#f24335"/><path d="m357.074219 162.121094c0 61.695312-50.011719 111.710937-111.710938 111.710937-61.695312 0-111.707031-50.015625-111.707031-111.710937 0-61.695313 50.011719-111.710938 111.707031-111.710938 61.699219 0 111.710938 50.015625 111.710938 111.710938zm0 0" fill="#cdd6da"/><path d="m308.171875 127.21875-62.808594 27.90625-62.804687-27.90625 59.992187-26.707031c1.796875-.769531 3.832031-.769531 5.628907 0zm0 0" fill="#ffdeb0"/><path d="m308.171875 127.21875v65.28125c-.003906 2.773438-1.644531 5.285156-4.183594 6.398438l-55.808593 24.832031c-.894532.363281-1.847657.566406-2.816407.597656v-69.203125zm0 0" fill="#795548"/><path d="m245.363281 155.125v69.203125c-.964843-.03125-1.917969-.234375-2.8125-.597656l-55.894531-24.832031c-2.496094-1.152344-4.09375-3.648438-4.097656-6.398438v-65.28125zm0 0" fill="#4e342e"/><path d="m365.609375 162.121094c0-66.410156-53.835937-120.242188-120.246094-120.242188-66.40625 0-120.242187 53.832032-120.242187 120.242188s53.835937 120.242187 120.242187 120.242187c66.378907-.074219 120.167969-53.863281 120.246094-120.242187zm-223.421875 0c0-56.984375 46.195312-103.175782 103.175781-103.175782 56.984375 0 103.179688 46.191407 103.179688 103.175782s-46.195313 103.175781-103.179688 103.175781c-56.964843-.042969-103.132812-46.210937-103.175781-103.175781zm0 0"/><path d="m251.664062 231.488281 55.832032-24.8125c5.597656-2.5 9.203125-8.054687 9.199218-14.183593v-65.28125c-.015624-1.015626-.21875-2.023438-.597656-2.96875-.105468-.269532-.230468-.53125-.367187-.785157-.324219-.664062-.734375-1.277343-1.226563-1.828125-.164062-.207031-.335937-.40625-.523437-.59375-.6875-.65625-1.480469-1.191406-2.34375-1.582031l-.136719-.058594-59.820312-26.640625c-4.011719-1.792968-8.597657-1.792968-12.613282 0l-59.808594 26.589844-.164062.109375c-.867188.402344-1.660156.949219-2.34375 1.613281-.199219.179688-.34375.394532-.523438.589844-.484374.554688-.898437 1.167969-1.226562 1.828125-.140625.253906-.261719.519531-.367188.792969-.375.9375-.578124 1.9375-.597656 2.953125v65.277343c0 6.132813 3.609375 11.6875 9.207032 14.183594l55.84375 24.816406c4.011718 1.796876 8.597656 1.796876 12.609374 0zm2.234376-19.625v-51.183593l45.730468-20.335938v51.140625zm-8.535157-103.238281 41.816407 18.585938-41.816407 18.585937-41.8125-18.585937zm-54.269531 31.71875 45.738281 20.335938v51.148437l-45.765625-20.34375zm0 0"/><path d="m43.484375 355.09375-40.875 110.933594c-3.867187 10.46875-2.371094 22.164062 4 31.324218 6.375 9.160157 16.824219 14.625 27.980469 14.636719h419.671875c11.433593.011719 22.117187-5.703125 28.453125-15.226562 6.335937-9.519531 7.480468-21.582031 3.050781-32.125l-39.015625-92.5-7.761719-18.417969c-5.285156-12.675781-17.671875-20.933594-31.40625-20.929688h-84.4375l18.46875-36.957031c1.824219-3.484375 4.339844-6.550781 7.398438-9.023437 52.457031-43.609375 72.007812-115.390625 48.90625-179.578125-23.101563-64.1875-83.910157-107.050781-152.128907-107.230469s-129.25 42.363281-152.691406 106.429688c-23.4375 64.066406-4.265625 135.949218 47.964844 179.835937 3.476562 2.824219 6.34375 6.328125 8.421875 10.296875l18.097656 36.226562h-92.117187c-14.273438.015626-27.035156 8.914063-31.980469 22.304688zm16.023437 5.855469c2.476563-6.671875 8.84375-11.097657 15.957032-11.09375h14.960937l-19.628906 54.117187c-1.230469 3.382813-4.449219 5.628906-8.046875 5.617188h-21.160156zm165.972657 57.171875c12.75 5.175781 27.019531 5.175781 39.765625 0h182.359375l7.203125 17.066406h-292.121094c-10.183594-.003906-19.402344 6.027344-23.476562 15.359375l-19.285157 44.375h-21.949219l26.796876-61.441406c4.070312-9.332031 13.289062-15.363281 23.472656-15.359375zm243.03125 69.121094c-3.125 4.824218-8.5 7.722656-14.25 7.679687h-315.734375l16.359375-37.546875c1.355469-3.113281 4.429687-5.121094 7.824219-5.121094h299.308593l8.011719 19.011719c2.242188 5.238281 1.671875 11.257813-1.519531 15.976563zm-45.226563-126.933594 2.773438 6.578125h-23.339844c-3.667969-.023438-6.921875-2.367188-8.113281-5.835938l-3.714844-11.195312h16.691406c6.871094 0 13.058594 4.140625 15.6875 10.488281zm-50.363281-10.453125 5.511719 16.664062c3.527344 10.417969 13.289062 17.441407 24.285156 17.46875h30.515625l7.195313 17.066407h-152.636719c2.152343-2.738282 4.039062-5.675782 5.632812-8.773438l21.195313-42.425781zm-220.878906-76.65625c-46.738281-39.261719-63.898438-103.582031-42.925781-160.910157 20.96875-57.328124 75.582031-95.394531 136.621093-95.230468 61.042969.164062 115.453125 38.519531 136.117188 95.957031 20.664062 57.4375 3.164062 121.664063-43.785157 160.679687-4.882812 3.964844-8.882812 8.90625-11.75 14.507813l-48.1875 96.425781c-3.75 7.558594-10 13.589844-17.6875 17.066406-.136718.050782-.25.109376-.378906.171876-9.390625 4.09375-20.0625 4.09375-29.457031 0-.125-.0625-.238281-.121094-.375-.171876-7.6875-3.480468-13.9375-9.507812-17.6875-17.066406l-47.789063-95.738281c-3.121093-6.042969-7.449218-11.382813-12.714843-15.691406zm45.226562 119.089843c1.605469 3.097657 3.503907 6.03125 5.667969 8.765626h-54.691406c-16.96875-.003907-32.328125 10.046874-39.117188 25.601562l-29.78125 68.265625h-44.757812c-5.574219-.015625-10.792969-2.75-13.976563-7.332031-3.179687-4.582032-3.921875-10.425782-1.988281-15.65625l16.683594-45.277344h27.441406c10.761719-.023438 20.367188-6.757812 24.058594-16.863281l21.765625-59.9375h67.535156zm0 0"/></svg>