<?xml version="1.0" encoding="iso-8859-1"?>
<!-- Generator: Adobe Illustrator 19.0.0, SVG Export Plug-In . SVG Version: 6.00 Build 0)  -->
<svg version="1.1" id="Capa_1" xmlns="http://www.w3.org/2000/svg" xmlns:xlink="http://www.w3.org/1999/xlink" x="0px" y="0px"
	 viewBox="0 0 512 512" style="enable-background:new 0 0 512 512;" xml:space="preserve">
<path style="fill:#FFFFFF;" d="M449.373,385.515c-23.954,0-43.373,19.419-43.373,43.372c0,2.146,0.2,4.244,0.563,6.286H406v-6.286
	V195H106v233.887v6.286h-0.562c0.363-2.042,0.562-4.14,0.562-6.286c0-23.954-19.418-43.372-43.373-43.372
	C33.562,385.515,10,409.077,10,438.143C10,473.41,38.59,502,73.858,502h13.408h337.47h13.408C473.411,502,502,473.41,502,438.143
	C502,409.077,478.438,385.515,449.373,385.515z"/>
<polygon style="fill:#FEDA9B;" points="365.875,195 106,195 106,322.053 238.823,322.053 "/>
<path style="fill:#C9F3FF;" d="M106,435.174h-0.562c0.363-2.042,0.562-4.14,0.562-6.286c0-23.954-19.418-43.372-43.373-43.372
	C33.562,385.515,10,409.077,10,438.143C10,473.41,38.59,502,73.858,502h13.408h243.196c-0.318-0.666-0.524-1.063-0.524-1.063
	L201,372h-95v56.887V435.174z"/>
<path style="fill:#A0E557;" d="M404.063,224.064L266.589,361.538l139.399,139.399l2.037,1.063h16.71h13.408
	C473.411,502,502,473.41,502,438.143c0-29.065-23.562-52.628-52.627-52.628c-23.954,0-43.373,19.419-43.373,43.372
	c0,2.146,0.2,4.244,0.563,6.286H406v-6.286V224.971L404.063,224.064z"/>
<g>
	<path style="fill:#FFB954;" d="M449.373,104.063c-23.954,0-43.373,19.418-43.373,43.372v281.452
		c0-23.954,19.418-43.372,43.373-43.372c29.065,0,52.627,23.562,52.627,52.628V156.691C502,127.625,478.438,104.063,449.373,104.063
		z"/>
	<path style="fill:#FFB954;" d="M62.627,104.063c23.954,0,43.373,19.418,43.373,43.372v281.452
		c0-23.954-19.418-43.372-43.373-43.372C33.562,385.515,10,409.077,10,438.143V156.691C10,127.625,33.562,104.063,62.627,104.063z"
		/>
</g>
<path style="fill:#7D9BFF;" d="M364,118c0-59.647-48.353-108-108-108S148,58.354,148,118c0,26.116,9.271,50.067,24.699,68.742
	h-0.063L256,293.543l83.763-107.363h-0.008C354.909,167.587,364,143.857,364,118z M256,180.474c-33.551,0-60.75-27.199-60.75-60.75
	s27.199-60.75,60.75-60.75s60.75,27.199,60.75,60.75S289.551,180.474,256,180.474z"/>
<path d="M449.373,94.063c-29.43,0-53.372,23.943-53.372,53.373V185H353.11c13.517-19.603,20.89-43.054,20.89-67
	C374,52.935,321.065,0,256,0S138,52.935,138,118c0,23.968,7.367,47.396,20.884,67H116v-37.565c0-29.43-23.942-53.373-53.372-53.373
	C28.095,94.063,0,122.158,0,156.69v281.453C0,478.868,33.132,512,73.857,512h364.285C478.868,512,512,478.868,512,438.143V156.69
	C512.001,122.158,483.906,94.063,449.373,94.063z M416.001,147.436c0-18.402,14.971-33.373,33.372-33.373
	c23.505,0,42.628,19.123,42.628,42.627v235.629c-11.188-10.415-26.173-16.804-42.628-16.804c-12.621,0-24.225,4.413-33.372,11.764
	V147.436z M256,20c54.037,0,98,43.962,98,98c0,22.489-7.812,44.458-21.997,61.862c-0.119,0.147-0.234,0.297-0.345,0.449
	l-75.66,96.977l-74.842-95.883c-0.225-0.356-0.475-0.701-0.748-1.032C165.958,162.882,158,140.731,158,118
	C158,63.963,201.963,20,256,20z M62.628,114.063c18.401,0,33.372,14.971,33.372,33.373V387.28
	c-9.147-7.351-20.751-11.764-33.372-11.764c-16.455,0-31.439,6.389-42.628,16.804V156.69C20,133.186,39.123,114.063,62.628,114.063z
	 M20,438.143c0-23.505,19.123-42.628,42.628-42.628c18.401,0,33.372,14.971,33.372,33.373c0,14.196-11.549,25.745-25.745,25.745
	c-10.729,0-19.459-8.729-19.459-19.459c0-5.523-4.478-10-10-10s-10,4.477-10,10c0,21.758,17.701,39.459,39.459,39.459
	c25.224,0,45.745-20.521,45.745-45.745V382h80.857l40.697,40.697c1.953,1.952,4.512,2.929,7.071,2.929s5.118-0.977,7.071-2.929
	c3.905-3.905,3.905-10.237,0-14.143l-43.626-43.626c-1.875-1.874-4.418-2.928-7.07-2.928h-85v-29.948h122.822
	c5.522,0,10-4.477,10-10s-4.478-10-10-10H116V205h58.202l73.915,94.695c1.896,2.428,4.804,3.848,7.884,3.847
	c3.08-0.001,5.988-1.42,7.884-3.849L337.764,205h58.237v12.983L259.519,354.467c-3.905,3.905-3.905,10.237,0,14.143L382.909,492
	h-47.767l-33.904-33.904c-3.905-3.905-10.235-3.905-14.143,0c-3.905,3.905-3.905,10.237,0,14.142L306.858,492H73.857
	C44.16,492,20,467.84,20,438.143z M438.143,492h-26.948L280.732,361.538l115.269-115.269v182.619
	c0,25.224,20.521,45.745,45.744,45.745c21.758,0,39.459-17.701,39.459-39.459c0-5.523-4.478-10-10-10s-10,4.477-10,10
	c0,10.729-8.729,19.459-19.459,19.459c-14.195,0-25.744-11.549-25.744-25.745c0-18.402,14.971-33.373,33.372-33.373
	c23.505,0,42.628,19.123,42.628,42.628C492.001,467.84,467.84,492,438.143,492z"/>
<path d="M58,266.412c5.522,0,10-4.477,10-10v-73.423c0-5.523-4.478-10-10-10s-10,4.477-10,10v73.423
	C48,261.935,52.478,266.412,58,266.412z"/>
<path d="M58,305.021c2.63,0,5.21-1.06,7.069-2.93c1.86-1.86,2.931-4.44,2.931-7.07s-1.07-5.21-2.931-7.07
	c-1.859-1.86-4.439-2.93-7.069-2.93s-5.21,1.07-7.07,2.93s-2.93,4.44-2.93,7.07c0,2.64,1.069,5.21,2.93,7.07
	C52.79,303.96,55.37,305.021,58,305.021z"/>
<path d="M256,190.474c39.012,0,70.75-31.738,70.75-70.75s-31.738-70.75-70.75-70.75s-70.75,31.738-70.75,70.75
	S216.988,190.474,256,190.474z M256,68.974c27.983,0,50.75,22.767,50.75,50.75s-22.767,50.75-50.75,50.75s-50.75-22.767-50.75-50.75
	S228.017,68.974,256,68.974z"/>
<path d="M269.75,430.75c-2.63,0-5.21,1.07-7.07,2.93c-1.86,1.86-2.93,4.44-2.93,7.07s1.069,5.21,2.93,7.07s4.44,2.93,7.07,2.93
	s5.21-1.07,7.069-2.93c1.86-1.86,2.931-4.44,2.931-7.07s-1.07-5.21-2.931-7.07C274.96,431.82,272.38,430.75,269.75,430.75z"/>
<g>
</g>
<g>
</g>
<g>
</g>
<g>
</g>
<g>
</g>
<g>
</g>
<g>
</g>
<g>
</g>
<g>
</g>
<g>
</g>
<g>
</g>
<g>
</g>
<g>
</g>
<g>
</g>
<g>
</g>
</svg>
