<svg height="512pt" viewBox="-54 0 512 512" width="512pt" xmlns="http://www.w3.org/2000/svg"><path d="m202.285156 332.289062c-71.679687 0-130-58.316406-130-130 0-71.683593 58.320313-130 130-130 71.683594 0 130 58.316407 130 130 0 71.683594-58.316406 130-130 130zm0-240c-60.652344 0-110 49.347657-110 110 0 60.652344 49.347656 110 110 110 60.65625 0 110-49.347656 110-110 0-60.652343-49.34375-110-110-110zm0 0"/><path d="m264.492188 128.890625c-5.519532 0-10 4.476563-10 10v43.5c0 4.617187-3.507813 8.429687-8 8.914063v-53.164063c0-5.523437-4.476563-10-10-10-5.519532 0-10 4.476563-10 10v53.164063c-4.488282-.484376-8-4.296876-8-8.914063v-43.5c0-5.523437-4.476563-10-10-10-5.519532 0-10 4.476563-10 10v43.5c0 15.648437 12.476562 28.429687 28 28.945313v55.105468c0 5.519532 4.480468 10 10 10 5.523437 0 10-4.480468 10-10v-55.105468c15.527343-.515626 28-13.296876 28-28.945313v-43.5c0-5.523437-4.476563-10-10-10zm0 0"/><path d="m146.222656 128.75c-3.066406-1.125-6.488281-.679688-9.167968 1.191406-2.679688 1.867188-4.273438 4.929688-4.273438 8.195313v127.945312c0 5.523438 4.476562 10 10 10s10-4.476562 10-10v-41.3125h29.90625c5.523438 0 10-4.476562 10-10v-19.492187c0-29.597656-18.671875-56.335938-46.464844-66.527344zm26.464844 76.023438h-19.90625v-49.828126c12.292969 9.472657 19.90625 24.316407 19.90625 40.332032zm0 0"/><path d="m124.765625 425.519531c-2.628906 0-5.210937-1.070312-7.078125-2.929687-1.859375-1.871094-2.921875-4.441406-2.921875-7.070313 0-2.628906 1.0625-5.210937 2.921875-7.078125 1.867188-1.859375 4.4375-2.921875 7.078125-2.921875 2.628906 0 5.199219 1.0625 7.070313 2.921875 1.859374 1.867188 2.921874 4.449219 2.921874 7.078125 0 2.628907-1.0625 5.210938-2.921874 7.070313-1.867188 1.859375-4.449219 2.929687-7.070313 2.929687zm0 0"/><path d="m202.285156 512c-9.46875 0-18.238281-4.277344-24.0625-11.742188l-38.429687-49.230468c-3.398438-4.355469-2.621094-10.636719 1.730469-14.035156 4.355468-3.398438 10.636718-2.625 14.035156 1.726562l38.429687 49.234375c2.007813 2.570313 5.03125 4.046875 8.292969 4.046875 3.265625 0 6.289062-1.476562 8.296875-4.050781l132.667969-170.046875c.132812-.183594.269531-.363282.410156-.539063 26.476562-32.480469 40.621094-71.824219 40.914062-113.773437.339844-48.691406-18.476562-94.679688-52.980468-129.488282-34.496094-34.800781-80.300782-54.015624-128.972656-54.101562-.109376 0-.222657 0-.332032 0-48.632812 0-94.355468 18.910156-128.78125 53.273438-34.503906 34.445312-53.507812 80.261718-53.507812 129.015624 0 42.28125 14.804687 83.488282 41.6875 116.023438.34375.417969.652344.855469.917968 1.3125l47.1875 60.457031c3.398438 4.351563 2.625 10.636719-1.726562 14.035157-4.355469 3.398437-10.636719 2.625-14.035156-1.730469l-48.046875-61.550781c-.222657-.285157-.425781-.578126-.613281-.882813-29.265626-35.9375-45.367188-81.21875-45.367188-127.664063 0-54.101562 21.085938-104.945312 59.378906-143.171874 38.195313-38.128907 88.9375-59.117188 142.90625-59.117188h.367188c54.035156.0976562 104.871094 21.410156 143.140625 60.019531 38.28125 38.617188 59.15625 89.65625 58.777343 143.710938-.316406 45.730469-16.332031 90.417969-45.105468 125.894531-.050782.070312-.105469.140625-.15625.207031l-132.960938 170.421875c-5.824218 7.464844-14.59375 11.746094-24.0625 11.746094zm0 0"/></svg>