<?xml version="1.0" encoding="utf-8"?>
<!-- Generator: Adobe Illustrator 16.0.0, SVG Export Plug-In . SVG Version: 6.00 Build 0)  -->
<!DOCTYPE svg PUBLIC "-//W3C//DTD SVG 1.1//EN" "http://www.w3.org/Graphics/SVG/1.1/DTD/svg11.dtd">
<svg version="1.1" id="Capa_1" xmlns="http://www.w3.org/2000/svg" xmlns:xlink="http://www.w3.org/1999/xlink" x="0px" y="0px"
	 width="150px" height="150px" viewBox="0 0 150 150" enable-background="new 0 0 150 150" xml:space="preserve">
<path fill="#974D34" d="M51.058,11.329v22.495c0,10.309-8.361,18.669-18.673,18.669c-2.762,0-5.381-0.6-7.74-1.675v-0.003
	c-5.706-2.602-9.873-7.992-10.755-14.431c-0.828-0.291-1.606-0.767-2.272-1.432c-2.352-2.349-2.352-6.163,0-8.512
	c2.35-2.355,6.166-2.355,8.518,0l1.568-8.99l1.069-6.122L51.058,11.329L51.058,11.329z"/>
<path fill="#7D402B" d="M24.646,50.815c-5.706-2.602-9.873-7.992-10.755-14.431c-0.828-0.291-1.606-0.767-2.272-1.432
	c-2.352-2.349-2.352-6.163,0-8.512c2.35-2.355,6.166-2.355,8.518,0l1.568-8.99l4.916,0.998
	C24.554,22.021,15.824,35.063,24.646,50.815z"/>
<path fill="#6B4B3D" d="M59.787,2.226c0,8.96-7.265,16.222-16.222,16.222H26.621v1.506c0,3.582-2.905,6.484-6.487,6.484
	c-1.734-1.734-4.268-2.189-6.418-1.363v-6.626c0-8.958,7.265-16.222,16.222-16.222C29.938,2.226,59.787,2.226,59.787,2.226z"/>
<path fill="#5B3D2D" d="M43.178,2.226h-13.24c-8.958,0-16.222,7.265-16.222,16.222v6.626c2.15-0.825,4.684-0.371,6.418,1.363
	c3.582,0,6.487-2.902,6.487-6.483v-1.506h0.335C26.956,9.491,34.221,2.226,43.178,2.226z"/>
<path fill="#EAA7B8" d="M46.858,97.436c0,0-11.447,5.724-23.036,3.484c-4.336-0.834-8.693-2.785-12.477-6.57
	c0,0,3.626-24.291,10.422-38.488c0.903-1.886,1.862-3.594,2.878-5.043l4.227,0.327l8.542,0.663c0,1.188,0.151,3.514,0.463,6.546
	C38.935,68.725,41.839,87.4,46.858,97.436z"/>
<path fill="#D694A5" d="M23.823,100.92c-4.336-0.834-8.693-2.785-12.477-6.57c0,0,4.654-31.179,13.3-43.531l4.227,0.327l1.224,1.209
	C26.933,58.85,19.525,83.984,23.823,100.92z"/>
<path fill="#7D402B" d="M127.76,71.522l-4.541-6.504L90.426,18.062c-1.523-5.643-0.93-15.821,14.813-15.821
	c3.472,0,6.929,0.063,10.243,0.407c11.717,1.217,21.663,5.97,24.208,24.027C142.957,49.841,127.76,71.522,127.76,71.522z"/>
<path fill="#623221" d="M127.76,71.522l-4.541-6.504c1.158-13.044,4.582-61.114-7.738-62.371
	c11.717,1.217,21.664,5.97,24.209,24.027C142.957,49.841,127.76,71.522,127.76,71.522z"/>
<path fill="#F99958" d="M129.865,34.953c-0.665,0.666-1.443,1.141-2.271,1.432c-1.045,7.633-6.703,13.792-14.072,15.581
	c-1.417,0.348-2.898,0.529-4.422,0.529c-10.313,0-18.674-8.361-18.674-18.669V18.062c0,0,8.278,0.297,11.545-2.97
	c4.743,6.157,10.906,7.016,14.992,6.748c0-0.003,0-0.003,0-0.003c2.617-0.172,4.385-0.805,4.385-0.805v5.409l0.002-0.003
	c1.734-1.734,4.269-2.189,6.419-1.363c0.763,0.291,1.479,0.749,2.097,1.366C132.218,28.79,132.218,32.604,129.865,34.953z"/>
<path fill="#F47A3D" d="M129.865,34.953c-0.665,0.666-1.443,1.141-2.271,1.432c-1.045,7.633-6.703,13.792-14.072,15.581
	c9.697-5.319,3.525-29.795,3.442-30.125c0-0.003,0-0.003,0-0.003c2.616-0.172,4.384-0.805,4.384-0.805v5.409l0.003-0.003
	c1.734-1.734,4.269-2.189,6.418-1.363c0.763,0.291,1.479,0.749,2.097,1.366C132.218,28.79,132.218,32.604,129.865,34.953z"/>
<path fill="#00C7A9" d="M90.479,108.945c12.949,2.964,24.016,2.648,31.604,1.684c6.853-0.873,10.867-2.277,10.867-2.277
	c0-39.502-15.301-57.925-15.301-57.925l-3.395,0.375l-9.863,1.093C102.414,74.326,90.479,108.945,90.479,108.945z"/>
<path fill="#04AF92" d="M122.082,110.629c6.853-0.873,10.867-2.277,10.867-2.277c0-39.502-15.301-57.925-15.301-57.925l-3.395,0.375
	l-0.73,1.164C113.522,51.965,127.291,81.473,122.082,110.629z"/>
<path d="M37.351,29.461v-3.088c0-1.23-0.998-2.228-2.228-2.228c-1.23,0-2.228,0.997-2.228,2.228v3.088
	c0,1.23,0.997,2.228,2.228,2.228C36.353,31.688,37.351,30.691,37.351,29.461z"/>
<path d="M40.924,26.373v3.088c0,1.23,0.997,2.228,2.228,2.228c1.23,0,2.228-0.997,2.228-2.228v-3.088
	c0-1.23-0.998-2.228-2.228-2.228C41.921,24.146,40.924,25.143,40.924,26.373z"/>
<path d="M30.263,37.968c-0.61-1.068-1.971-1.439-3.039-0.829c-1.068,0.61-1.439,1.971-0.829,3.04c1.91,3.341,5.18,5.228,9.458,5.457
	c0.041,0.002,0.081,0.003,0.121,0.003c1.175,0,2.159-0.92,2.222-2.108c0.066-1.229-0.877-2.278-2.105-2.343
	C33.322,41.038,31.416,39.985,30.263,37.968z"/>
<path d="M11.891,37.922c1.925,9.661,10.522,16.799,20.494,16.799c11.524,0,20.9-9.374,20.9-20.897V23.325
	c0-1.23-0.997-2.228-2.228-2.228c-1.23,0-2.227,0.997-2.227,2.228v10.499c0,9.066-7.377,16.442-16.445,16.442
	c-8.177,0-15.179-6.098-16.287-14.185c-0.113-0.828-0.681-1.522-1.469-1.799c-0.542-0.19-1.025-0.495-1.437-0.906
	c-0.716-0.715-1.11-1.667-1.11-2.68s0.394-1.965,1.112-2.681c0.384-0.384,0.827-0.674,1.32-0.862c1.398-0.537,2.985-0.2,4.044,0.859
	c0.013,0.013,0.029,0.028,0.042,0.041c0.454,0.433,1.049,0.638,1.633,0.612c4.516-0.05,8.218-3.555,8.584-7.989h14.746
	c10.173,0,18.449-8.276,18.449-18.449c0-1.23-0.997-2.227-2.227-2.227H29.938C19.766,0,11.49,8.276,11.49,18.449
	c0,1.23,0.997,2.227,2.228,2.227c1.23,0,2.227-0.997,2.227-2.227c0-7.717,6.278-13.994,13.994-13.994h27.443
	c-1.07,6.662-6.858,11.766-13.817,11.766H26.62c-1.23,0-2.227,0.998-2.227,2.228v1.505c0,2.091-1.515,3.834-3.504,4.191
	c-2.254-1.725-5.274-2.185-7.967-1.151c-1.079,0.411-2.047,1.041-2.877,1.872c-1.559,1.557-2.417,3.628-2.417,5.832
	s0.858,4.275,2.417,5.831C10.599,37.083,11.217,37.549,11.891,37.922z"/>
<path d="M19.597,55.244c-3.74,7.952-6.501,18.803-8.159,26.506c-0.259,1.203,0.506,2.388,1.708,2.646
	c0.158,0.034,0.316,0.051,0.471,0.051c1.027,0,1.95-0.715,2.175-1.76c1.609-7.477,4.274-17.977,7.835-25.548
	c0.524-1.113,0.046-2.44-1.067-2.963C21.448,53.653,20.122,54.13,19.597,55.244z"/>
<path d="M69.426,20.587c-1.23,0-2.228,0.997-2.228,2.227v10.822c-0.779,1.744-4.235,9.054-10.353,16.086
	c-5.064,5.823-10.522,9.905-16.323,12.233c-0.163-1.323-0.307-2.608-0.433-3.836c-0.125-1.224-1.218-2.114-2.442-1.99
	c-1.224,0.125-2.115,1.218-1.99,2.442c0.093,0.911,0.274,2.586,0.555,4.778c-3.393,0.834-6.893,1.098-10.491,0.786
	c-1.226-0.107-2.305,0.801-2.412,2.027c-0.106,1.226,0.801,2.306,2.027,2.412c1.076,0.093,2.144,0.139,3.208,0.139
	c2.804,0,5.567-0.326,8.275-0.964c1.236,8.351,3.476,20.217,7.058,28.549c-2.121,0.834-5.753,2.057-9.986,2.615
	c-8.256,1.088-15.033-0.717-20.164-5.368c0.143-0.872,0.368-2.208,0.673-3.875c0.222-1.21-0.579-2.37-1.789-2.593
	s-2.371,0.578-2.593,1.789c-0.574,3.127-0.865,5.074-0.877,5.156c-0.104,0.697,0.129,1.404,0.628,1.903
	c1.949,1.948,4.137,3.535,6.532,4.755c0.02,0.049,0.039,0.098,0.063,0.146c0.107,0.219,10.532,22.153-2.358,45.884
	c-0.375,0.689-0.359,1.526,0.043,2.201c0.402,0.676,1.129,1.089,1.915,1.089h7.721c1.23,0,2.228-0.997,2.228-2.228
	s-0.998-2.227-2.228-2.227H19.58c5.682-12.225,5.849-23.676,4.893-31.389c-0.597-4.813-1.673-8.731-2.573-11.398
	c2.386,0.6,4.916,0.908,7.577,0.908c1.663,0,3.377-0.118,5.135-0.355c1.554-0.211,3.026-0.498,4.387-0.822
	c2.132,5.557,7.794,24.252-3.053,44.221c-0.375,0.689-0.359,1.526,0.043,2.201c0.402,0.676,1.129,1.089,1.915,1.089h7.72
	c1.23,0,2.228-0.997,2.228-2.228s-0.997-2.227-2.228-2.227h-4.106c5.682-12.225,5.849-23.676,4.893-31.389
	c-0.722-5.82-2.143-10.332-3.109-12.903c2.72-0.918,4.428-1.761,4.555-1.825c0.528-0.264,0.93-0.728,1.117-1.287
	c0.187-0.561,0.143-1.173-0.121-1.701c-3.536-7.072-6.165-19.248-7.725-29.988c6.867-2.533,13.311-7.172,19.081-13.806
	c7.443-8.558,11.124-17.324,11.276-17.692c0.112-0.271,0.17-0.561,0.17-0.854V22.814C71.653,21.584,70.656,20.587,69.426,20.587z"/>
<path d="M119.905,53.627c-1.07,0.607-1.446,1.967-0.839,3.037c4.264,7.519,11.357,23.907,11.646,50.032
	c-4.508,1.23-18.76,4.33-37.332,0.596c2.469-7.494,9.979-31.184,12.585-49.66c0.172-1.218-0.677-2.345-1.895-2.517
	c-1.219-0.172-2.345,0.676-2.517,1.895c-0.135,0.957-0.284,1.928-0.445,2.911C87.371,52.147,79.803,36.312,78.6,33.634v-10.82
	c0-1.23-0.998-2.228-2.228-2.228c-1.23,0-2.228,0.997-2.228,2.228V34.1c0,0.293,0.058,0.583,0.17,0.853
	c0.358,0.865,8.746,20.704,25.972,29.585c-3.915,20.358-11.824,43.42-11.914,43.68c-0.206,0.598-0.148,1.254,0.158,1.807
	c0.308,0.553,0.835,0.949,1.45,1.09c3.979,0.911,7.778,1.521,11.358,1.903c-1.21,8.452-1.036,20.129,4.739,32.525h-4.104
	c-1.23,0-2.227,0.997-2.227,2.228s0.996,2.228,2.227,2.228h7.72c0.785,0,1.513-0.414,1.915-1.089c0.4-0.675,0.417-1.512,0.042-2.202
	c-6.891-12.684-7.122-24.815-5.862-33.322c1.901,0.112,3.731,0.165,5.477,0.165c1.582,0,3.094-0.043,4.535-0.115
	c-1.146,8.416-0.885,19.912,4.795,32.108h-4.105c-1.23,0-2.229,0.997-2.229,2.228s0.998,2.228,2.229,2.228h7.721
	c0.786,0,1.514-0.414,1.915-1.089s0.418-1.512,0.044-2.202c-6.973-12.834-7.128-25.101-5.818-33.619
	c8.047-0.829,12.949-2.501,13.334-2.636c0.893-0.313,1.491-1.156,1.491-2.103c0-28.112-7.665-45.828-12.235-53.885
	C122.335,53.396,120.975,53.02,119.905,53.627z"/>
<path d="M108.59,29.461v-3.088c0-1.23-0.997-2.228-2.227-2.228c-1.23,0-2.229,0.997-2.229,2.228v3.088
	c0,1.23,0.998,2.228,2.229,2.228C107.593,31.688,108.59,30.691,108.59,29.461z"/>
<path d="M100.562,29.461v-3.088c0-1.23-0.997-2.228-2.228-2.228s-2.228,0.997-2.228,2.228v3.088c0,1.23,0.997,2.228,2.228,2.228
	S100.562,30.691,100.562,29.461z"/>
<path d="M103.29,43.529c0.063,1.188,1.046,2.108,2.222,2.108c0.041,0,0.081,0,0.121-0.003c4.278-0.229,7.549-2.115,9.458-5.457
	c0.61-1.068,0.239-2.429-0.829-3.04c-1.067-0.61-2.428-0.239-3.039,0.829c-1.152,2.018-3.059,3.07-5.827,3.218
	C104.166,41.251,103.225,42.301,103.29,43.529z"/>
<path d="M130.016,10.42c3.955,3.555,6.398,8.974,7.469,16.566c2.13,15.101-4.051,29.734-7.926,37.113
	c-0.571,1.089-0.152,2.436,0.938,3.008c0.33,0.173,0.684,0.256,1.033,0.256c0.801,0,1.576-0.434,1.975-1.193
	c4.123-7.854,10.696-23.468,8.393-39.806c-1.224-8.673-4.136-14.972-8.903-19.257c-0.915-0.822-2.323-0.747-3.146,0.168
	C129.025,8.189,129.1,9.598,130.016,10.42z"/>
<path d="M90.348,20.288c0.81,0.029,7.066,0.169,11.267-2.186c5.542,5.855,12.714,6.524,17.507,5.766v2.573
	c0,0.901,0.545,1.711,1.377,2.056c0.832,0.345,1.791,0.153,2.429-0.484c1.06-1.059,2.646-1.396,4.05-0.857
	c0.488,0.187,0.932,0.476,1.316,0.861c0.717,0.715,1.111,1.667,1.111,2.68s-0.395,1.964-1.112,2.681
	c-0.41,0.41-0.893,0.714-1.435,0.905c-0.789,0.277-1.355,0.972-1.469,1.799c-1.109,8.086-8.111,14.184-16.287,14.184
	c-9.068,0-16.445-7.376-16.445-16.442v-9.013c0-1.23-0.998-2.228-2.228-2.228c-1.23,0-2.228,0.997-2.228,2.228v9.014
	c0,11.523,9.376,20.897,20.9,20.897c9.971,0,18.568-7.139,20.494-16.799c0.674-0.372,1.291-0.838,1.846-1.393
	c1.56-1.557,2.418-3.628,2.418-5.832c0-2.204-0.859-4.275-2.417-5.831c-0.831-0.831-1.8-1.461-2.874-1.871
	c-1.625-0.625-3.369-0.705-4.992-0.292v-1.67c0-0.721-0.354-1.397-0.941-1.815c-0.589-0.417-1.348-0.522-2.029-0.284
	c-0.414,0.145-10.213,3.445-16.869-5.2c-0.391-0.507-0.98-0.822-1.621-0.864c-0.639-0.042-1.266,0.194-1.719,0.648
	c-1.531,1.532-5.289,2.174-8.154,2.304c-0.277-1.969-0.295-5.001,1.521-7.372c2.022-2.641,5.884-3.98,11.476-3.98
	c6.854,0,14.025,0.211,19.756,2.743c1.125,0.497,2.439-0.012,2.938-1.137c0.497-1.125-0.012-2.44-1.138-2.938
	c-6.522-2.882-14.226-3.124-21.556-3.124c-7.053,0-12.104,1.927-15.014,5.727c-3.625,4.734-2.568,10.6-1.947,12.902
	C88.532,19.586,89.371,20.253,90.348,20.288z"/>
<path d="M121.304,88.747c-2.679,1.205-4.481-0.173-7.201-2.521c-1.944-1.679-3.954-3.413-6.541-3.201
	c-1.626,0.134-3.092,1.009-4.48,2.675c-0.788,0.944-0.66,2.35,0.285,3.137c0.944,0.787,2.35,0.66,3.137-0.285
	c0.552-0.662,1.07-1.058,1.423-1.086c0.728-0.061,2.074,1.105,3.266,2.133c1.967,1.698,4.693,4.053,8.24,4.053
	c1.146,0,2.379-0.246,3.699-0.841c1.871-0.841,3.145-2.337,3.686-4.325c2.03-7.466-7.289-20.901-8.357-22.409
	c-0.713-1.003-2.102-1.239-3.105-0.528s-1.24,2.102-0.529,3.105c0.023,0.034,2.42,3.428,4.556,7.55
	c3.515,6.784,3.475,9.875,3.138,11.113C122.325,88.023,121.962,88.451,121.304,88.747z"/>
<path d="M75.047,13.013v-2.97c0-1.23-0.997-2.228-2.228-2.228c-1.23,0-2.227,0.997-2.227,2.228v2.97c0,1.23,0.997,2.228,2.227,2.228
	C74.05,15.241,75.047,14.243,75.047,13.013z"/>
<path d="M81.385,17.536c0.57,0,1.141-0.218,1.575-0.653l1.485-1.485c0.869-0.87,0.869-2.28,0-3.15c-0.87-0.87-2.281-0.87-3.15,0
	l-1.484,1.485c-0.871,0.87-0.87,2.28,0,3.15C80.245,17.318,80.814,17.536,81.385,17.536z"/>
<path d="M61.193,15.398l1.485,1.485c0.435,0.435,1.005,0.653,1.575,0.653c0.57,0,1.14-0.218,1.575-0.652c0.87-0.87,0.87-2.28,0-3.15
	l-1.485-1.485c-0.87-0.87-2.28-0.87-3.15,0C60.324,13.118,60.324,14.528,61.193,15.398z"/>
</svg>
