<?xml version="1.0" encoding="utf-8"?>
<!-- Generator: Adobe Illustrator 16.0.0, SVG Export Plug-In . SVG Version: 6.00 Build 0)  -->
<!DOCTYPE svg PUBLIC "-//W3C//DTD SVG 1.1//EN" "http://www.w3.org/Graphics/SVG/1.1/DTD/svg11.dtd">
<svg version="1.1" id="Layer_1" xmlns="http://www.w3.org/2000/svg" xmlns:xlink="http://www.w3.org/1999/xlink" x="0px" y="0px"
	 width="1075px" height="605px" viewBox="0 0 1075 605" enable-background="new 0 0 1075 605" xml:space="preserve">
<path fill="#B0AE94" d="M378.688,241.646v136.834c0,18.197-14.298,32.731-32.495,32.731c-18.079,0-35.567-14.652-35.567-32.731
	V241.646c0-17.843,17.488-32.495,35.567-32.495C364.035,209.15,378.688,223.803,378.688,241.646z M391.449,427.163
	c0,19.379,15.598,34.977,34.977,34.977h23.515l0.354,72.198c0,43.603,65.227,43.248,65.227,0V462.14h43.957v72.198
	c0,43.366,65.581,43.484,65.581,0V462.14h23.869c19.143,0,34.74-15.598,34.74-34.977V215.177h-292.22V427.163z M684.496,203.715
	H390.149c0-50.574,30.25-94.531,75.152-117.455l-22.569-41.712c-3.309-5.79,5.081-9.453,7.917-4.49l22.924,42.066
	c41.239-18.315,88.623-17.37,127.972,0l22.806-41.948c2.954-5.081,11.226-1.3,7.917,4.49L609.698,86.26
	C654.246,109.184,684.496,153.141,684.496,203.715z M482.79,138.134c0-6.735-5.436-12.407-12.407-12.407
	c-6.735,0-12.053,5.672-12.053,12.407s5.436,12.407,12.053,12.407C477.354,150.541,482.79,144.869,482.79,138.134z M616.788,138.134
	c0-6.735-5.436-12.407-12.053-12.407c-6.972,0-12.407,5.672-12.407,12.407s5.436,12.407,12.407,12.407
	C611.353,150.541,616.788,144.869,616.788,138.134z M728.808,209.15c-17.843,0-32.495,14.298-32.495,32.495v136.834
	c0,18.197,14.652,32.731,32.495,32.731c18.197,0,35.567-14.652,35.567-32.731V241.646
	C764.375,223.448,746.887,209.15,728.808,209.15z"/>
</svg>
