<?xml version="1.0" encoding="iso-8859-1"?>
<!-- Generator: Adobe Illustrator 19.0.0, SVG Export Plug-In . SVG Version: 6.00 Build 0)  -->
<svg version="1.1" id="Capa_1" xmlns="http://www.w3.org/2000/svg" xmlns:xlink="http://www.w3.org/1999/xlink" x="0px" y="0px"
	 viewBox="0 0 512 512" style="enable-background:new 0 0 512 512;" xml:space="preserve">
<path style="fill:#296B94;" d="M222.56,436.53v-5.809c0.005,0.004,0.011,0.008,0.016,0.012c-4.931-3.842-7.877-8.644-7.875-13.84
	l0.003-17.956h15.564c-13.409,0-24.279-10.87-24.279-24.28c0-13.409,10.87-24.28,24.279-24.28h-6.214
	c4.308-25.067,18.053-46.81,37.435-61.564l5.673-81.004H23.354L42.781,485.22h204.955l0.47-6.708
	C232.792,470.652,222.56,456.163,222.56,436.53z"/>
<path style="fill:#98E1E2;" d="M217.119,395.064c-6.694-4.323-11.13-11.844-11.13-20.405c0-9.838,5.854-18.303,14.267-22.117
	l3.597-48.765H66.664l6.329,93h144L217.119,395.064z"/>
<path d="M227.72,264.738c-0.65,0-1.309-0.07-1.95-0.2c-0.64-0.12-1.27-0.32-1.87-0.57c-0.609-0.25-1.189-0.56-1.729-0.92
	c-0.55-0.36-1.061-0.78-1.521-1.24c-0.46-0.46-0.88-0.97-1.239-1.52c-0.36-0.54-0.67-1.12-0.92-1.73c-0.25-0.6-0.45-1.23-0.57-1.87
	c-0.13-0.64-0.2-1.3-0.2-1.949c0-0.65,0.07-1.311,0.2-1.96c0.12-0.631,0.32-1.261,0.57-1.87c0.25-0.601,0.56-1.181,0.92-1.721
	c0.359-0.55,0.779-1.06,1.239-1.52c0.46-0.46,0.971-0.88,1.521-1.25c0.54-0.36,1.12-0.67,1.729-0.92c0.601-0.25,1.23-0.44,1.87-0.57
	c3.24-0.649,6.7,0.41,9.02,2.74c0.46,0.46,0.88,0.97,1.24,1.52c0.369,0.54,0.67,1.12,0.92,1.721c0.25,0.609,0.449,1.239,0.569,1.87
	c0.13,0.649,0.2,1.309,0.2,1.96c0,0.649-0.07,1.31-0.2,1.949c-0.12,0.641-0.319,1.271-0.569,1.87c-0.25,0.61-0.551,1.19-0.92,1.73
	c-0.36,0.55-0.78,1.06-1.24,1.52s-0.971,0.88-1.52,1.24c-0.54,0.36-1.12,0.67-1.72,0.92c-0.61,0.25-1.24,0.45-1.88,0.57
	C229.03,264.669,228.37,264.738,227.72,264.738z"/>
<rect x="40.465" y="115.659" style="fill:#FDA162;" width="209.59" height="36.23"/>
<rect x="10" y="151.879" style="fill:#F7CD95;" width="270.52" height="55.928"/>
<path d="M111.26,359.677c-2.64,0-5.21-1.07-7.07-2.93c-0.46-0.46-0.88-0.971-1.25-1.521c-0.359-0.54-0.67-1.12-0.92-1.72
	c-0.25-0.61-0.439-1.24-0.569-1.87c-0.131-0.649-0.19-1.31-0.19-1.96s0.059-1.31,0.19-1.95c0.13-0.64,0.319-1.27,0.569-1.87
	c0.25-0.609,0.561-1.189,0.92-1.729c0.37-0.55,0.79-1.061,1.25-1.521c2.32-2.319,5.771-3.39,9.021-2.729
	c0.64,0.13,1.27,0.32,1.87,0.57c0.609,0.25,1.189,0.56,1.729,0.92c0.55,0.359,1.061,0.779,1.521,1.239
	c0.46,0.46,0.88,0.971,1.239,1.521c0.36,0.54,0.671,1.12,0.921,1.729c0.25,0.601,0.449,1.23,0.569,1.87c0.13,0.641,0.2,1.3,0.2,1.95
	s-0.07,1.31-0.2,1.96c-0.12,0.63-0.319,1.26-0.569,1.87c-0.25,0.6-0.56,1.18-0.921,1.72c-0.359,0.55-0.779,1.06-1.239,1.521
	c-0.46,0.46-0.971,0.88-1.521,1.25c-0.54,0.359-1.12,0.67-1.729,0.92c-0.601,0.25-1.23,0.439-1.87,0.57
	C112.569,359.618,111.91,359.677,111.26,359.677z"/>
<g>
	<path style="fill:#FDA162;" d="M483.935,350.379c-8.01-46.611-48.618-81.769-97.516-81.769h-64.848
		c-48.898,0-89.506,35.158-97.516,81.769H483.935z"/>
	<path style="fill:#FDA162;" d="M455.417,439.734L455.417,439.734c-14.734-0.006-27.562-5.139-33.806-12.569
		c-6.251,7.425-19.082,12.546-33.817,12.539l0,0c-14.734-0.006-27.562-5.139-33.806-12.569c-6.25,7.424-19.082,12.546-33.817,12.539
		l0,0c-14.734-0.006-27.562-5.139-33.806-12.569c-6.251,7.424-19.082,12.546-33.817,12.539l0,0
		c-12.179-0.005-23.054-3.514-29.988-8.925v5.809c0,30.565,24.778,48.691,55.343,48.691h152.183
		c30.565,0,55.343-18.126,55.343-48.691v-5.707C478.491,436.236,467.605,439.74,455.417,439.734z"/>
</g>
<path style="fill:#975D50;" d="M477.72,398.938H230.269c-13.409,0-24.279-10.87-24.279-24.279l0,0
	c0-13.409,10.87-24.28,24.279-24.28H477.72c13.409,0,24.28,10.87,24.28,24.28l0,0C502,388.066,491.13,398.938,477.72,398.938z"/>
<path style="fill:#98E1E2;" d="M214.705,398.938l-0.003,17.956c-0.005,12.505,17.026,22.744,37.847,22.753l0,0
	c14.734,0.007,27.566-5.115,33.817-12.539c6.244,7.43,19.072,12.562,33.806,12.569l0,0c14.734,0.006,27.566-5.115,33.817-12.539
	c6.244,7.43,19.072,12.562,33.806,12.569l0,0c14.734,0.006,27.566-5.115,33.817-12.539c6.244,7.43,19.072,12.562,33.806,12.568l0,0
	c20.822,0.009,37.862-10.215,37.867-22.72l0.003-18.077L214.705,398.938L214.705,398.938z"/>
<path d="M512,374.658c0-13.469-7.813-25.144-19.141-30.745c-10.824-49.714-54.832-85.303-106.44-85.303H321.57
	c-17.449,0-34.016,4.09-48.739,11.397l3.656-52.197h4.029c5.522,0,10-4.478,10-10v-55.928c0-5.523-4.478-10-10-10h-20.465v-26.229
	c0-5.522-4.478-10-10-10h-95.793V74.919l41.071-41.071c3.905-3.905,3.905-10.237,0-14.142c-3.906-3.904-10.236-3.904-14.143,0
	l-44,44c-1.875,1.876-2.929,4.419-2.929,7.071v34.878H40.465c-5.522,0-10,4.478-10,10v26.229H10c-5.523,0-10,4.477-10,10v55.928
	c0,5.522,4.477,10,10,10h4.03l18.775,268.109c0.367,5.239,4.724,9.302,9.976,9.302h204.954c2.909,0,5.54-1.25,7.373-3.252
	c7.119,2.13,14.806,3.252,22.794,3.252h152.184c17.609,0,33.781-5.4,45.538-15.204c12.772-10.65,19.805-26.095,19.805-43.487v-1.297
	c5.068-5.288,7.852-11.612,7.855-18.217l0.004-18.077c0-0.458-0.042-0.911-0.104-1.36C508.66,391.501,512,383.462,512,374.658z
	 M483.286,408.936l-0.002,8.073c-0.001,1.91-1.683,4.212-4.471,6.27c-0.181,0.134-0.358,0.27-0.546,0.4
	c-0.39,0.269-0.796,0.535-1.223,0.793c-0.035,0.021-0.073,0.041-0.108,0.062c-0.669,0.399-1.369,0.779-2.101,1.136
	c-0.004,0.002-0.009,0.004-0.013,0.007c-0.758,0.369-1.548,0.715-2.365,1.037c-0.006,0.002-0.012,0.005-0.018,0.007
	c-3.249,1.278-6.938,2.176-10.823,2.643c-0.093,0.011-0.185,0.022-0.278,0.033c-0.898,0.103-1.805,0.183-2.721,0.238
	c-0.121,0.007-0.243,0.012-0.364,0.018c-0.929,0.05-1.865,0.082-2.805,0.082c-0.002,0-0.003,0-0.005,0c-0.007,0-0.015,0-0.021,0
	c-12.847-0.006-22.393-4.525-26.155-9.002c-1.898-2.26-4.699-3.565-7.65-3.566c-0.002,0-0.003,0-0.005,0
	c-2.95,0-5.749,1.303-7.649,3.559c-1.412,1.677-3.636,3.359-6.542,4.807c-4.843,2.413-11.578,4.174-19.6,4.174
	c-0.007,0-0.014,0-0.021,0c-10.439-0.005-18.698-2.99-23.446-6.51c-1.096-0.812-2.004-1.653-2.71-2.493
	c-0.475-0.565-1.006-1.07-1.582-1.511c-1.727-1.321-3.856-2.055-6.07-2.056h-0.001c-0.001,0-0.003,0-0.004,0
	c-0.738,0-1.466,0.081-2.173,0.239c-1.767,0.393-3.403,1.262-4.724,2.52c-0.264,0.252-0.516,0.519-0.753,0.801
	c-0.235,0.279-0.493,0.559-0.772,0.837c-4.197,4.18-13.336,8.142-25.368,8.142c-0.007,0-0.014,0-0.021,0
	c-0.287,0-0.563-0.014-0.847-0.019c-0.51-0.008-1.024-0.012-1.524-0.034c-3.493-0.155-6.701-0.654-9.593-1.376
	c-0.965-0.241-1.905-0.499-2.795-0.789c-0.369-0.12-0.719-0.25-1.075-0.378c-0.215-0.077-0.441-0.149-0.651-0.229
	c-0.284-0.108-0.551-0.224-0.826-0.336c-0.265-0.108-0.538-0.212-0.794-0.323c-3.652-1.593-6.405-3.561-8.05-5.519
	c-1.9-2.26-4.7-3.565-7.651-3.566c-0.001,0-0.001,0-0.002,0s-0.002,0-0.003,0h-0.001c-2.95,0-5.75,1.303-7.65,3.56
	c-0.941,1.118-2.243,2.238-3.867,3.289c-3.434,2.223-8.32,4.128-14.268,5.066c-1.672,0.264-3.424,0.453-5.258,0.547
	c-0.645,0.033-1.303,0.05-1.967,0.06c-0.261,0.004-0.514,0.017-0.777,0.017c-0.008,0-0.018,0-0.025,0
	c-0.946-0.001-1.887-0.033-2.822-0.084c-0.115-0.006-0.23-0.01-0.345-0.017c-0.922-0.056-1.837-0.138-2.742-0.242
	c-0.085-0.01-0.171-0.02-0.256-0.03c-3.892-0.469-7.589-1.371-10.842-2.654c-0.007-0.003-0.013-0.005-0.02-0.008
	c-0.814-0.322-1.601-0.667-2.356-1.035c-0.014-0.007-0.028-0.014-0.042-0.021c-0.722-0.353-1.412-0.729-2.073-1.123
	c-0.04-0.024-0.082-0.046-0.122-0.07c-0.42-0.254-0.818-0.515-1.202-0.78c-0.207-0.143-0.402-0.293-0.601-0.44
	c-0.181-0.134-0.363-0.269-0.535-0.405c-0.179-0.142-0.348-0.286-0.516-0.429c-0.183-0.158-0.361-0.316-0.531-0.475
	c-0.134-0.125-0.268-0.25-0.393-0.375c-0.206-0.207-0.396-0.415-0.578-0.622c-0.073-0.083-0.154-0.166-0.223-0.248
	c-0.238-0.288-0.451-0.575-0.64-0.861c-0.058-0.087-0.103-0.173-0.156-0.259c-0.127-0.207-0.243-0.414-0.342-0.618
	c-0.049-0.101-0.092-0.201-0.134-0.301c-0.083-0.197-0.15-0.392-0.205-0.585c-0.025-0.088-0.055-0.177-0.074-0.264
	c-0.06-0.274-0.1-0.543-0.1-0.804l0.001-7.957h-0.006c0.007,0,0,0,0.006,0L483.286,408.936L483.286,408.936z M492,374.658
	c0,7.874-6.405,14.279-14.279,14.279H230.269c-2.912,0-5.62-0.88-7.88-2.382c-0.081-0.054-0.159-0.11-0.238-0.165
	c-0.302-0.21-0.598-0.428-0.883-0.66c-0.033-0.027-0.068-0.052-0.101-0.079c-0.33-0.273-0.646-0.562-0.95-0.863
	c-0.03-0.029-0.059-0.06-0.088-0.089c-0.621-0.627-1.186-1.31-1.683-2.042c-0.009-0.014-0.019-0.027-0.028-0.041
	c-0.495-0.735-0.921-1.519-1.275-2.341c-0.016-0.038-0.033-0.075-0.048-0.113c-0.168-0.4-0.319-0.81-0.45-1.227
	c-0.012-0.038-0.021-0.076-0.033-0.113c-0.117-0.383-0.216-0.773-0.301-1.168c-0.013-0.06-0.028-0.119-0.04-0.178
	c-0.082-0.408-0.144-0.824-0.19-1.244c-0.01-0.088-0.017-0.177-0.025-0.266c-0.039-0.431-0.066-0.865-0.066-1.306
	c0-0.434,0.027-0.861,0.065-1.285c0.013-0.139,0.029-0.277,0.046-0.415c0.035-0.293,0.081-0.583,0.133-0.87
	c0.027-0.145,0.049-0.291,0.08-0.435c0.08-0.372,0.175-0.738,0.283-1.098c0.053-0.178,0.117-0.351,0.178-0.526
	c0.072-0.207,0.146-0.414,0.226-0.617c0.075-0.189,0.152-0.376,0.235-0.56c0.09-0.202,0.188-0.399,0.287-0.596
	c0.112-0.222,0.227-0.443,0.351-0.659c0.147-0.258,0.299-0.513,0.462-0.76c0.094-0.144,0.195-0.283,0.295-0.424
	c0.146-0.205,0.295-0.406,0.451-0.603c0.096-0.121,0.191-0.242,0.29-0.36c0.245-0.289,0.497-0.571,0.764-0.84
	c0.024-0.024,0.047-0.048,0.071-0.072c0.283-0.281,0.579-0.547,0.884-0.803c0.089-0.075,0.181-0.147,0.272-0.219
	c0.245-0.196,0.496-0.384,0.753-0.564c0.094-0.065,0.186-0.133,0.281-0.196c0.344-0.229,0.697-0.447,1.061-0.646
	c0.025-0.014,0.052-0.025,0.077-0.039c2.007-1.078,4.299-1.693,6.733-1.693H477.72C485.595,360.379,492,366.784,492,374.658z
	 M211.178,339.681h-62.411c-5.523,0-10,4.478-10,10s4.477,10,10,10h50.674c-0.089,0.183-0.173,0.37-0.259,0.555
	c-0.084,0.18-0.165,0.361-0.246,0.543c-0.24,0.539-0.467,1.085-0.679,1.639c-0.045,0.117-0.095,0.233-0.139,0.351
	c-0.244,0.657-0.465,1.325-0.669,2.001c-0.053,0.175-0.1,0.352-0.15,0.527c-0.156,0.547-0.298,1.099-0.426,1.656
	c-0.04,0.175-0.084,0.349-0.122,0.525c-0.059,0.275-0.111,0.552-0.163,0.83c-0.017,0.088-0.031,0.176-0.047,0.264
	c-0.061,0.341-0.125,0.68-0.176,1.024c-0.02,0.134-0.033,0.27-0.052,0.404c-0.009,0.069-0.017,0.138-0.026,0.207
	c-0.02,0.154-0.041,0.307-0.059,0.462c-0.044,0.382-0.081,0.765-0.113,1.151c-0.015,0.178-0.032,0.356-0.044,0.535
	c-0.007,0.109-0.016,0.217-0.022,0.326c-0.037,0.655-0.061,1.313-0.061,1.977c0,0.539,0.013,1.075,0.038,1.61
	c0.001,0.031,0.004,0.062,0.005,0.093c0.008,0.169,0.025,0.336,0.036,0.505c0.021,0.334,0.04,0.668,0.071,1
	c0.006,0.06,0.013,0.119,0.019,0.178c0.018,0.181,0.042,0.359,0.063,0.539c0.033,0.293,0.064,0.586,0.105,0.877
	c0.012,0.082,0.026,0.163,0.038,0.244c0.025,0.169,0.054,0.336,0.082,0.504c0.045,0.28,0.09,0.56,0.142,0.838
	c0.018,0.094,0.039,0.186,0.058,0.28c0.001,0.007,0.003,0.013,0.004,0.02c0.029,0.147,0.059,0.293,0.09,0.439
	c0.059,0.281,0.119,0.563,0.185,0.842c0.009,0.036,0.019,0.072,0.027,0.109c0.026,0.109,0.055,0.217,0.082,0.325
	c0.022,0.088,0.044,0.177,0.067,0.265c0.305,1.172,0.663,2.325,1.087,3.452H82.336l-4.968-73h135.721L211.178,339.681z
	 M471.247,340.379H236.769c0.116-0.366,0.224-0.734,0.344-1.098c0.081-0.246,0.165-0.49,0.248-0.734
	c0.319-0.936,0.649-1.867,0.998-2.789c0.033-0.086,0.066-0.172,0.099-0.259c5.828-15.227,15.821-28.628,29.088-38.727
	c0.238-0.181,0.461-0.378,0.681-0.578c13.139-9.77,29.048-15.958,46.241-17.302l-5.469,6.341
	c-3.607,4.183-3.141,10.497,1.041,14.103c1.89,1.63,4.214,2.428,6.526,2.428c2.809,0,5.6-1.176,7.577-3.469l16.977-19.685h2.874
	v13.153c0,5.522,4.478,10,10,10c5.523,0,10-4.478,10-10V278.61h2.873l16.976,19.685c1.979,2.293,4.77,3.469,7.578,3.469
	c2.313,0,4.637-0.798,6.526-2.427c4.182-3.607,4.648-9.922,1.042-14.104l-5.469-6.341
	C429.842,281.73,460.462,306.172,471.247,340.379z M50.465,125.654h189.587v16.229H50.465V125.654z M20,161.883L20,161.883h250.517
	l0,0v35.928l0,0H20l0,0V161.883z M52.105,475.22l-14.74-210.483h152.847c5.522,0,10-4.478,10-10c0-5.523-4.478-10-10-10H35.965
	l-1.886-26.928h222.359l-4.61,65.825c-6.751,5.59-12.808,11.998-18.041,19.084c-0.227-2.133-1.126-4.155-2.608-5.749
	c-1.892-2.037-4.546-3.194-7.326-3.194H66.664c-2.771,0-5.416,1.15-7.308,3.173c-1.891,2.024-2.857,4.742-2.669,7.506l6.329,93
	c0.356,5.247,4.717,9.321,9.977,9.321h131.711v1.136l-0.001,8.976l0,0v0.001c0,0,0,0.001,0,0.002c0,0.535,0.024,1.068,0.06,1.6
	c0.009,0.13,0.019,0.259,0.03,0.388c0.042,0.5,0.097,0.999,0.17,1.495c0.004,0.029,0.007,0.058,0.011,0.087
	c0.084,0.555,0.192,1.106,0.316,1.655c0.014,0.061,0.029,0.121,0.043,0.182c1.08,4.628,3.536,9.009,7.228,12.849v1.385
	c0,1.031,0.029,2.053,0.078,3.068c0.013,0.262,0.035,0.521,0.051,0.782c0.046,0.773,0.103,1.542,0.177,2.304
	c0.025,0.253,0.056,0.504,0.084,0.756c0.088,0.795,0.189,1.585,0.307,2.368c0.029,0.188,0.058,0.376,0.088,0.563
	c0.143,0.895,0.306,1.781,0.489,2.659c0.015,0.07,0.028,0.141,0.043,0.211c1.289,6.085,3.515,11.763,6.605,16.915
	c0.002,0.004,0.004,0.008,0.007,0.012c1.533,2.554,3.269,4.982,5.217,7.262c0.19,0.223,0.392,0.438,0.586,0.659
	c0.335,0.379,0.662,0.763,1.008,1.133H52.105V475.22z M430.087,475.22H277.903c-9.034,0-18.099-1.918-25.724-5.93
	c-0.282-0.149-0.557-0.304-0.833-0.458c-0.524-0.29-1.04-0.591-1.549-0.902c-0.427-0.262-0.85-0.528-1.262-0.803
	c-0.192-0.127-0.385-0.253-0.574-0.383c-0.653-0.451-1.291-0.915-1.905-1.397c-0.004-0.003-0.007-0.006-0.011-0.009
	c-6.008-4.728-10.116-10.921-12.105-18.196c0.035,0.01,0.071,0.018,0.107,0.028c0.635,0.177,1.276,0.346,1.923,0.504
	c0.131,0.032,0.263,0.062,0.395,0.094c0.585,0.14,1.173,0.272,1.766,0.397c0.174,0.036,0.348,0.071,0.523,0.107
	c0.553,0.111,1.109,0.216,1.668,0.314c0.208,0.037,0.417,0.072,0.626,0.107c0.531,0.088,1.064,0.169,1.6,0.245
	c0.233,0.033,0.465,0.066,0.699,0.097c0.519,0.068,1.04,0.128,1.563,0.185c0.249,0.027,0.497,0.056,0.747,0.08
	c0.52,0.051,1.043,0.093,1.566,0.132c0.252,0.019,0.502,0.041,0.754,0.058c0.548,0.035,1.098,0.06,1.649,0.084
	c0.228,0.009,0.454,0.024,0.683,0.031c0.776,0.025,1.554,0.04,2.335,0.04c0.012,0,0.021,0,0.033,0
	c8.309,0,16.303-1.446,23.296-4.053c3.835-1.43,7.373-3.203,10.487-5.291c8.795,5.908,20.929,9.369,33.808,9.375
	c0.011,0,0.018,0,0.028,0c12.867-0.001,24.993-3.45,33.786-9.346c0.55,0.369,1.112,0.729,1.688,1.079
	c8.627,5.248,20.046,8.291,32.12,8.296l0,0c0.011,0,0.019,0,0.028,0l0,0c12.866-0.001,24.994-3.451,33.787-9.346
	c2.199,1.477,4.606,2.801,7.182,3.956c7.727,3.466,16.967,5.414,26.625,5.419h0.001c0.01,0,0.02,0,0.029,0l0,0
	c0.78,0,1.557-0.014,2.332-0.039c0.229-0.008,0.457-0.022,0.686-0.031c0.548-0.023,1.096-0.047,1.642-0.082
	c0.255-0.017,0.508-0.039,0.763-0.058c0.52-0.039,1.038-0.08,1.554-0.13c0.253-0.025,0.504-0.053,0.755-0.081
	c0.519-0.056,1.036-0.115,1.551-0.183c0.236-0.031,0.471-0.064,0.707-0.098c0.533-0.075,1.065-0.156,1.593-0.243
	c0.209-0.034,0.417-0.07,0.625-0.107c0.56-0.098,1.116-0.202,1.67-0.313c0.172-0.035,0.344-0.069,0.516-0.105
	c0.598-0.125,1.191-0.258,1.781-0.399c0.124-0.029,0.248-0.058,0.372-0.088c0.66-0.161,1.313-0.333,1.962-0.513
	c0.037-0.01,0.075-0.019,0.112-0.029C468.826,466.475,449.382,475.22,430.087,475.22z"/>
<g>
</g>
<g>
</g>
<g>
</g>
<g>
</g>
<g>
</g>
<g>
</g>
<g>
</g>
<g>
</g>
<g>
</g>
<g>
</g>
<g>
</g>
<g>
</g>
<g>
</g>
<g>
</g>
<g>
</g>
</svg>
