<?xml version="1.0" encoding="utf-8"?>
<!-- Generator: Adobe Illustrator 16.0.0, SVG Export Plug-In . SVG Version: 6.00 Build 0)  -->
<!DOCTYPE svg PUBLIC "-//W3C//DTD SVG 1.1//EN" "http://www.w3.org/Graphics/SVG/1.1/DTD/svg11.dtd">
<svg version="1.1" id="Layer_1" xmlns="http://www.w3.org/2000/svg" xmlns:xlink="http://www.w3.org/1999/xlink" x="0px" y="0px"
	 width="512px" height="512px" viewBox="0 0 512 512" enable-background="new 0 0 512 512" xml:space="preserve">
<path fill="#3B5366" stroke="#000000" stroke-miterlimit="10" d="M45.86,118.659c0,0-2.36-78.159,37.64-76.159s78.588,27,78.588,27
	S257.5,125.848,336.5,90.674s50-69.932,81-53.553s48.638,38.683,48.638,38.683l8.742,42.855l-50.712,60.31L382.5,193.5
	L45.86,118.659z"/>
<g>
	<path fill="#C23855" d="M460.958,10c-14.777,14.777-17.566,35.941-6.234,47.277c11.332,11.332,32.5,8.543,47.277-6.234L460.958,10z
		"/>
	<path fill="#C23855" d="M57.278,57.277C68.61,45.945,65.821,24.777,51.043,10L10,51.043C24.778,65.82,45.946,68.609,57.278,57.277z
		"/>
	<path fill="#BE9569" d="M256,309.555c-11,0-20,9-20,20V482c0,11,9,20,20,20c11,0,20-9,20-20V329.555
		C276,318.555,267,309.555,256,309.555z"/>
	<path fill="#FF3855" d="M371.922,107.824c-32.016,32.012-73.977,48.02-115.921,48.02c-41.949,0-83.906-16.008-115.922-48.02
		c-22.863-22.867-59.938-22.867-82.801,0c-4.828,4.828-8.625,10.297-11.418,16.125c2.789,5.832,6.59,11.301,11.418,16.129
		c54.871,54.871,126.797,82.309,198.723,82.309c71.921,0,143.847-27.434,198.723-82.309c4.828-4.828,8.625-10.297,11.414-16.129
		c-2.789-5.828-6.586-11.297-11.414-16.125C431.856,84.957,394.785,84.957,371.922,107.824z"/>
</g>
<path d="M110.516,80.195c-3.902,3.906-3.902,10.238,0,14.145c0.027,0.023,0.121,0.117,0.148,0.145
	c1.945,1.902,4.473,2.855,6.996,2.855c2.594,0,5.188-1.004,7.145-3.004c3.863-3.945,3.801-10.273-0.148-14.141
	C120.754,76.289,114.422,76.289,110.516,80.195z"/>
<path d="M417.141,111.539c-0.039,0.039-0.148,0.148-0.188,0.188c-3.855,3.949-3.805,10.309,0.148,14.164
	c1.949,1.906,4.474,2.855,6.997,2.855c2.582,0,5.164-1,7.117-3c0.023-0.027,0.105-0.105,0.129-0.129
	c3.883-3.93,3.855-10.273-0.074-14.152C427.341,107.582,421.021,107.609,417.141,111.539z"/>
<path d="M187.77,121.52c-3.547-1.391-7.094-2.906-10.547-4.516c-10.973-5.105-21.488-11.332-31.25-18.504
	c-4.449-3.27-10.707-2.313-13.98,2.141c-3.27,4.449-2.309,10.707,2.141,13.977c10.828,7.953,22.484,14.855,34.648,20.52
	c3.828,1.781,7.766,3.465,11.695,5.004c1.199,0.469,2.43,0.691,3.645,0.691c3.996,0,7.77-2.41,9.313-6.355
	C195.446,129.336,192.911,123.535,187.77,121.52z"/>
<path d="M396.398,130.031c-9.512,7.547-19.668,14.422-30.188,20.43c-4.797,2.742-6.465,8.848-3.727,13.645
	c1.848,3.23,5.223,5.039,8.695,5.039c1.68,0,3.387-0.422,4.949-1.316c11.398-6.508,22.398-13.957,32.703-22.133
	c4.324-3.434,5.051-9.723,1.617-14.051C407.016,127.32,400.727,126.594,396.398,130.031z"/>
<path d="M512.001,51.043c0-2.652-1.055-5.195-2.93-7.07L468.028,2.93C466.153,1.055,463.61,0,460.958,0s-5.195,1.055-7.07,2.93
	c-8.695,8.691-14.289,19.594-15.754,30.691c-0.047,0.367-0.078,0.73-0.117,1.094c-7.773-3-16.109-4.586-24.696-4.586
	c-18.309,0-35.523,7.129-48.469,20.074C335.77,79.285,297.113,95.297,256,95.297c-41.113,0-79.773-16.012-108.852-45.09
	c-12.945-12.949-30.16-20.078-48.473-20.078c-8.609,0-16.973,1.594-24.77,4.613C72.739,23.68,67.387,12.203,58.114,2.93
	C56.239,1.055,53.696,0,51.043,0s-5.195,1.055-7.07,2.93L2.93,43.973c-3.906,3.902-3.906,10.234,0,14.141
	c9.035,9.035,20.406,14.668,31.781,15.879c-2.996,7.773-4.582,16.102-4.582,24.684c0,18.313,7.129,35.527,20.078,48.473
	c40.805,40.809,91.602,67.988,146.875,79.289v7.949c0,29.078,21.18,53.285,48.918,58.051v8.84c-11.641,4.125-20,15.242-20,28.277
	V482c0,16.543,13.457,30,30,30c16.542,0,30-13.457,30-30V329.555c0-13.035-8.363-24.152-20-28.277v-8.84
	c27.738-4.766,48.918-28.973,48.918-58.051v-7.949c55.27-11.301,106.067-38.48,146.876-79.289
	c12.945-12.945,20.078-30.16,20.078-48.473c0-8.582-1.586-16.91-4.582-24.684c11.375-1.211,22.742-6.844,31.781-15.879
	C510.946,56.238,512.001,53.695,512.001,51.043z M39.29,54.242c-4.637,0-9.59-1.477-14.219-4.129l25.043-25.039
	c5.309,9.289,5.691,19.535,0.094,25.133C46.872,53.543,42.426,54.242,39.29,54.242z M217.083,234.387v-4.586
	c9.098,1.211,18.297,1.996,27.57,2.348c0.449,0.016,0.898,0.039,1.348,0.055v39.793C229.372,267.57,217.083,252.391,217.083,234.387
	z M266,482c0,5.516-4.488,10-10,10c-5.516,0-10-4.484-10-10V329.555c0-5.512,4.484-10,10-10c5.511,0,10,4.488,10,10V482z
	 M294.918,234.387c0,18.004-12.289,33.184-28.918,37.609v-39.793c0.449-0.016,0.898-0.039,1.348-0.055
	c9.273-0.352,18.473-1.137,27.57-2.348V234.387z M447.649,133.008c-39.712,39.711-89.583,65.57-143.755,75.176
	c-0.238,0.023-0.473,0.043-0.711,0.082c-9.598,1.691-19.32,2.859-29.066,3.512c-0.406,0.027-0.813,0.051-1.215,0.074
	c-1.527,0.094-3.055,0.18-4.582,0.25c-0.941,0.039-1.883,0.07-2.828,0.102c-1.07,0.039-2.137,0.082-3.207,0.105
	c-2.094,0.047-4.188,0.078-6.285,0.078c-2.098,0-4.195-0.031-6.285-0.078c-1.07-0.023-2.141-0.066-3.207-0.105
	c-0.945-0.031-1.887-0.063-2.828-0.102c-1.527-0.07-3.059-0.156-4.586-0.25c-0.402-0.023-0.805-0.047-1.211-0.074
	c-9.746-0.652-19.473-1.824-29.07-3.512c-0.234-0.039-0.473-0.059-0.711-0.082c-54.172-9.605-104.043-35.465-143.754-75.176
	c-9.168-9.172-14.219-21.363-14.219-34.332c0-12.965,5.047-25.156,14.215-34.324l0.004-0.004c0.004,0,0.004-0.004,0.004-0.004
	c9.172-9.168,21.359-14.215,34.324-14.215c12.969,0,25.16,5.051,34.332,14.219c32.855,32.855,76.535,50.949,122.992,50.949
	c46.457,0,90.136-18.094,122.992-50.949c9.168-9.168,21.359-14.223,34.328-14.223c12.97,0,25.161,5.051,34.329,14.223
	c9.172,9.168,14.223,21.359,14.223,34.328S456.821,123.836,447.649,133.008z M472.712,54.242c-3.141,0-7.582-0.699-10.918-4.035
	c-4.359-4.363-4.273-10.625-3.832-13.969c0.492-3.727,1.855-7.551,3.926-11.164l25.043,25.039
	C482.302,52.77,477.349,54.242,472.712,54.242z"/>
</svg>
