<?xml version="1.0" encoding="utf-8"?>
<!-- Generator: Adobe Illustrator 16.0.0, SVG Export Plug-In . SVG Version: 6.00 Build 0)  -->
<!DOCTYPE svg PUBLIC "-//W3C//DTD SVG 1.1//EN" "http://www.w3.org/Graphics/SVG/1.1/DTD/svg11.dtd">
<svg version="1.1" id="Layer_1" xmlns="http://www.w3.org/2000/svg" xmlns:xlink="http://www.w3.org/1999/xlink" x="0px" y="0px"
	 width="511px" height="511px" viewBox="0 0 511 511" enable-background="new 0 0 511 511" xml:space="preserve">
<path fill="#AAC4DA" d="M311.571,463.829L321,501.556H170.09l9.434-37.727H311.571z"/>
<path fill="#D9EEF7" d="M226.685,284.621h37.727v179.208h-37.727V284.621z"/>
<path fill="#D9EEF7" d="M141.793-83.221h207.504V39.391h-61.307l-28.297,33.014l-14.146-14.151H141.793V-83.221z"/>
<path fill="#593019" d="M141.793,58.254h103.754l14.146,14.151l28.297-33.014h61.307v179.208c0,0-47.16,18.863-47.16,47.159
	l-18.863,18.863h-75.453l-18.863-18.863c0-28.295-47.161-47.159-47.161-47.159V58.254H141.793z"/>
<path fill="#AAC4DA" d="M141.793-83.221h56.594V58.254h-56.594V-83.221z"/>
<path fill="#351C0F" d="M198.388,218.599V58.254h-56.594v160.345c0,0,47.16,18.863,47.16,47.159l18.863,18.863h56.594
	l-18.863-18.863C245.548,237.462,198.388,218.599,198.388,218.599z"/>
<path fill="#FFFFFF" d="M170.275,87.089h17.81v66.023h-17.81V87.089z"/>
<path fill="#FFFFFF" d="M302.321,96.523h17.811v18.863h-17.811V96.523z"/>
<path fill="#FFFFFF" d="M302.321,134.25h17.811v18.863h-17.811V134.25z"/>
<g>
	<path fill="#231F20" d="M357.863-44.957v-46.632H132.548v316.757l5.6,2.239c10.781,4.313,41.561,20.717,41.561,38.889v3.692
		l24.077,24.076h13.649v28.826h17.811v-28.826h19.916v161.396h-19.916V351.183h-17.811v104.278h-45.206l-13.884,55.542h173.722
		l-13.885-55.542h-45.205V294.064h13.645l24.082-24.076v-3.692c0-10.708,10.619-20.439,19.529-26.719
		c10.817-7.618,21.93-12.128,22.031-12.17l5.6-2.239V-16.66h-17.811v47.685h-56.498l-24.707,28.821l-9.953-9.958H179.18v17.814
		h62.336l18.339,18.339l31.887-37.207h48.305v164.532c-4.873,2.322-12.302,6.212-19.777,11.443
		c-16.564,11.595-25.682,24.219-27.166,37.584l-13.861,13.861h-68.078l-13.861-13.861c-1.48-13.365-10.602-25.989-27.162-37.584
		c-7.476-5.231-14.909-9.122-19.783-11.443V-36.048H282.93v-17.814H150.358v-19.916h189.688v28.821H357.863z M309.254,493.192
		H181.152l4.979-19.916h118.144L309.254,493.192z"/>
	<path fill="#231F20" d="M170.275,171.98h17.81v18.863h-17.81V171.98z"/>
	<path fill="#231F20" d="M226.864,200.273h17.815v18.867h-17.815V200.273z"/>
	<path fill="#231F20" d="M245.731,181.41h17.811v18.863h-17.811V181.41z"/>
</g>
</svg>
