<svg height="511pt" viewBox="0 -64 511.99914 511" width="511pt" xmlns="http://www.w3.org/2000/svg"><path d="m71.628906 152.289062v176.351563c0 26.5625 21.535156 48.097656 48.097656 48.097656h272.546876c26.5625 0 48.09375-21.535156 48.09375-48.097656v-176.351563zm0 0" fill="#dad8db"/><path d="m199.886719 176.335938h240.480469v-24.046876h-368.738282v176.355469c0 26.5625 21.535156 48.09375 48.097656 48.09375h40.078126v-160.320312c0-22.136719 17.945312-40.082031 40.082031-40.082031zm0 0" fill="#c8c5c9"/><path d="m256 72.128906c-87.144531 0-160.714844 20.285156-184.371094 48.097656h368.738282c-23.65625-27.8125-97.226563-48.097656-184.367188-48.097656zm0 0" fill="#dbeaff"/><path d="m448.382812 152.289062h-384.769531c-4.425781 0-8.015625-3.589843-8.015625-8.015624v-16.03125c0-4.429688 3.589844-8.015626 8.015625-8.015626h384.769531c4.429688 0 8.015626 3.585938 8.015626 8.015626v16.03125c0 4.425781-3.585938 8.015624-8.015626 8.015624zm0 0" fill="#eceaec"/><path d="m63.613281 152.289062h80.160157v-32.066406h-80.160157c-4.425781 0-8.015625 3.589844-8.015625 8.015625v16.03125c0 4.429688 3.589844 8.019531 8.015625 8.019531zm0 0" fill="#dad8db"/><path d="m213.453125 73.832031c-67.855469 5.371094-122.140625 23.253907-141.824219 46.394531h72.144532c11.984374-18.785156 36.808593-34.972656 69.679687-46.394531zm0 0" fill="#c3ddff"/><path d="m511.519531 165.6875c-1.453125-3.878906-5.777343-5.84375-9.65625-4.390625l-48.523437 18.199219c-1.933594.722656-3.753906 1.648437-5.46875 2.714844v-22.421876h.515625c8.554687 0 15.515625-6.960937 15.515625-15.515624v-16.03125c0-8.558594-6.960938-15.515626-15.515625-15.515626h-4.707031c-22.804688-23.609374-76.722657-40.753906-142.238282-46.230468 6.308594-7.011719 10.15625-16.28125 10.15625-26.433594 0-21.816406-17.75-39.5625-39.566406-39.5625h-32.0625c-21.816406 0-39.566406 17.75-39.566406 39.5625 0 10.152344 3.847656 19.421875 10.15625 26.433594-65.515625 5.476562-119.433594 22.621094-142.238282 46.230468h-4.707031c-8.554687 0-15.515625 6.957032-15.515625 15.515626v16.03125c0 8.554687 6.960938 15.515624 15.515625 15.515624h.515625v22.421876c-1.714844-1.066407-3.535156-1.992188-5.46875-2.714844l-48.523437-18.199219c-3.878907-1.453125-8.203125.511719-9.65625 4.390625-1.457031 3.878906.511719 8.199219 4.386719 9.65625l48.523437 18.195312c6.425781 2.410157 10.738281 8.636719 10.738281 15.496094v119.609375c0 30.652344 24.941406 55.59375 55.597656 55.59375h272.546876c30.65625 0 55.597656-24.9375 55.597656-55.59375v-119.609375c0-6.859375 4.3125-13.085937 10.738281-15.496094l48.523437-18.195312c3.875-1.453125 5.839844-5.777344 4.386719-9.65625zm-271.550781-150.1875h32.0625c13.542969 0 24.5625 11.019531 24.5625 24.5625s-11.019531 24.566406-24.5625 24.566406h-8.53125v-8.535156c0-4.140625-3.359375-7.5-7.5-7.5-4.144531 0-7.5 3.359375-7.5 7.5v8.535156h-8.53125c-13.546875 0-24.566406-11.019531-24.566406-24.566406 0-13.542969 11.019531-24.5625 24.566406-24.5625zm-176.871094 128.773438v-16.03125c0-.285157.230469-.519532.515625-.519532h304.609375c4.140625 0 7.5-3.355468 7.5-7.496094 0-4.144531-3.359375-7.5-7.5-7.5h-275.792968c12.199218-7.546874 29.097656-14.320312 49.5-19.730468 32.988281-8.746094 72.433593-13.367188 114.070312-13.367188 41.632812 0 81.082031 4.621094 114.070312 13.367188 20.402344 5.410156 37.296876 12.183594 49.496094 19.730468h-19.28125c-4.140625 0-7.5 3.355469-7.5 7.5 0 4.140626 3.359375 7.496094 7.5 7.496094h48.101563c.285156 0 .515625.234375.515625.519532v16.03125c0 .285156-.230469.515624-.515625.515624h-384.773438c-.285156 0-.515625-.230468-.515625-.515624zm329.175782 224.964843h-272.546876c-13.617187 0-25.679687-6.746093-33.050781-17.0625h17.019531c4.140626 0 7.5-3.359375 7.5-7.5 0-4.144531-3.359374-7.5-7.5-7.5h-23.65625c-.589843-2.753906-.910156-5.605469-.910156-8.53125v-168.855469h353.738282v168.855469c0 2.925781-.316407 5.777344-.910157 8.53125h-296.195312c-4.144531 0-7.5 3.355469-7.5 7.5 0 4.140625 3.355469 7.5 7.5 7.5h289.558593c-7.367187 10.316407-19.429687 17.0625-33.046874 17.0625zm0 0"/></svg>