<?xml version="1.0" encoding="utf-8"?>
<!-- Generator: Adobe Illustrator 16.0.0, SVG Export Plug-In . SVG Version: 6.00 Build 0)  -->
<!DOCTYPE svg PUBLIC "-//W3C//DTD SVG 1.1//EN" "http://www.w3.org/Graphics/SVG/1.1/DTD/svg11.dtd">
<svg version="1.1" id="Layer_1" xmlns="http://www.w3.org/2000/svg" xmlns:xlink="http://www.w3.org/1999/xlink" x="0px" y="0px"
	 width="512px" height="512px" viewBox="0 0 512 512" enable-background="new 0 0 512 512" xml:space="preserve">
<polygon fill="#3B5366" points="25.5,239.5 12.5,184.111 43.715,153.24 75.5,162.263 496.5,16.5 457.467,140.209 40.5,263.98 "/>
<path fill="#C78F70" d="M356.199,436.324c-4.699-8.855-12.387-16.188-22.371-20.324c-65.465-27.117-122.75-69.371-167.628-122.531
	c-18.379-21.77-34.672-45.371-48.598-70.504c-4.082-0.848-8.309-1.293-12.641-1.293c-30.93,0-56.559,22.637-61.246,52.246
	c14.316,24.859,30.578,48.422,48.586,70.484c54.805,67.145,125.789,120.426,207.316,154.195
	c22.809,9.449,48.957-1.383,58.402-24.191C363.332,461.578,362.234,447.695,356.199,436.324z"/>
<path fill="#E9BC82" d="M333.828,416c9.984,4.137,17.672,11.469,22.371,20.32l59.859-175.035l54.001-157.895l-130.216,46.43
	l-219.382,78.223C168.532,312.156,243.368,378.531,333.828,416z"/>
<path fill="#C22C65" d="M194.083,121.766c-0.008,1.469-0.098,2.941-0.293,4.418c-2.559,19.434-20.383,33.113-39.816,30.555
	c-6.805-0.895-12.902-3.672-17.848-7.727c-0.125,17.645,12.902,33.031,30.848,35.395c19.434,2.559,37.262-11.121,39.82-30.555
	C208.399,141.629,203.543,129.508,194.083,121.766z"/>
<path fill="#FFFFFF" d="M287.477,193.121c2.559-19.434,20.383-33.109,39.816-30.551c5.48,0.719,10.5,2.656,14.832,5.5
	c-2.188-15.371-14.352-28.043-30.5-30.168c-19.43-2.559-37.258,11.121-39.816,30.551c-1.836,13.953,4.699,27.078,15.723,34.316
	C287.086,199.645,287.043,196.406,287.477,193.121z"/>
<path fill="#C22C65" d="M342.18,177.719c0.434-3.285,0.391-6.52-0.055-9.648c-4.328-2.844-9.352-4.781-14.832-5.5
	c-19.434-2.559-37.258,11.117-39.816,30.551c-0.434,3.285-0.391,6.523,0.055,9.648c4.328,2.844,9.352,4.781,14.832,5.504
	C321.793,210.832,339.621,197.152,342.18,177.719z"/>
<path fill="#FFFFFF" d="M287.656,313.176c2.559-19.434,20.387-33.113,39.816-30.555c3.691,0.488,7.172,1.523,10.371,3.02
	c-4.316-12.176-15.137-21.551-28.82-23.352c-19.434-2.559-37.262,11.121-39.816,30.555c-2.074,15.742,6.512,30.43,20.18,36.801
	C287.574,324.527,286.898,318.926,287.656,313.176z"/>
<path fill="#C22C65" d="M339.578,302.105c0.758-5.746,0.082-11.352-1.73-16.465c-3.203-1.492-6.684-2.531-10.371-3.02
	c-19.434-2.559-37.262,11.125-39.82,30.555c-0.754,5.75-0.082,11.355,1.73,16.469c3.203,1.492,6.684,2.531,10.375,3.016
	C319.191,335.219,337.02,321.539,339.578,302.105z"/>
<path fill="#FFFFFF" d="M420.219,154.402c2.56-19.434,20.388-33.113,39.817-30.555c0.965,0.125,1.914,0.297,2.855,0.5l2.016-5.895
	c-5.676-6.465-13.508-10.648-22.035-11.773c-19.434-2.559-37.263,11.121-39.821,30.555c-2.074,15.75,6.523,30.445,20.204,36.813
	C420.48,168.121,419.301,161.367,420.219,154.402z"/>
<path fill="#C22C65" d="M444.985,176.707l17.906-52.359c-0.941-0.203-1.895-0.375-2.855-0.5
	c-19.43-2.559-37.258,11.121-39.817,30.555c-0.918,6.965,0.262,13.719,3.032,19.641c3.199,1.488,6.672,2.523,10.355,3.008
	C437.396,177.551,441.235,177.434,444.985,176.707z"/>
<path d="M509.028,2.887c-2.734-2.699-6.773-3.598-10.387-2.305L83.29,148.68c-14.43-8.824-32.734-10.891-49.52-3.938
	C5.903,156.285-7.378,188.344,4.165,216.211c27.219,65.711,66.52,124.527,116.809,174.816
	c50.293,50.293,109.109,89.59,174.816,116.809c6.824,2.828,13.898,4.164,20.863,4.164c21.473,0,41.891-12.727,50.609-33.766
	c5.863-14.16,5.309-29.398-0.301-42.48L511.462,13.238C512.704,9.605,511.759,5.582,509.028,2.887z M196.875,152.547
	c-0.887,6.75-4.352,12.75-9.754,16.895c-5.402,4.148-12.09,5.938-18.844,5.051c-6.75-0.891-12.75-4.352-16.895-9.754
	c-3.816-4.977-5.637-11.051-5.203-17.25l44.02-15.695C195.368,137.301,197.887,144.879,196.875,152.547z M348.781,470.578
	c-7.32,17.676-27.664,26.102-45.336,18.777C175.403,436.32,75.68,336.598,22.645,208.559c-3.547-8.563-3.547-17.996,0-26.559
	s10.215-15.234,18.777-18.781c8.566-3.547,17.996-3.547,26.559,0S83.215,173.438,86.762,182
	c22.699,54.805,55.48,103.863,97.43,145.813c41.945,41.945,91.003,74.727,145.812,97.43
	C347.68,432.563,356.105,452.902,348.781,470.578z M434.911,167.137c-6.75-0.891-12.75-4.352-16.896-9.754
	c-4.145-5.402-5.938-12.094-5.051-18.844c1.836-13.934,14.661-23.777,28.599-21.945c4.301,0.566,8.34,2.234,11.781,4.773
	l-15.719,45.961C436.72,167.309,435.813,167.254,434.911,167.137z M459.993,101.922c-4.871-2.652-10.227-4.418-15.816-5.156
	c-24.872-3.281-47.767,14.297-51.04,39.164c-1.586,12.047,1.613,23.988,9.012,33.629c7.125,9.285,17.324,15.352,28.833,17.199
	l-19.876,58.121l-22.859-17.539c-4.383-3.363-10.66-2.539-14.023,1.844c-3.359,4.383-2.535,10.66,1.848,14.023l28.203,21.641
	l-51.691,151.156c-4.336-3.773-9.332-6.926-14.922-9.242c-105.98-43.898-188.519-126.438-232.417-232.418
	c-1.527-3.684-3.422-7.105-5.609-10.258l26.781-9.551c0.934,8.07,4.031,15.766,9.105,22.379c7.395,9.637,18.105,15.82,30.148,17.406
	c2.02,0.266,4.031,0.398,6.031,0.398c9.949,0,19.574-3.25,27.598-9.41c9.641-7.395,15.824-18.105,17.41-30.152
	c1.422-10.813-1.102-21.527-6.77-30.398l124.308-44.324l4.711,11.375c1.598,3.852,5.32,6.176,9.242,6.176
	c1.277,0,2.574-0.246,3.824-0.762c5.102-2.113,7.523-7.965,5.414-13.066l-4.328-10.445l132.72-47.324L459.993,101.922z"/>
<path d="M107.856,268.055c-3.063-4.594-9.262-5.824-13.855-2.766c-4.586,3.055-5.832,9.254-2.797,13.848
	c1.918,2.941,5.121,4.547,8.395,4.547c1.852,0,3.727-0.512,5.398-1.59c4.645-2.984,5.988-9.172,3.004-13.816
	C107.969,268.23,107.887,268.102,107.856,268.055z"/>
<path d="M92.793,243.434c-9.746-17.086-18.508-34.969-26.039-53.148c-2.113-5.102-7.965-7.523-13.066-5.41s-7.523,7.965-5.41,13.066
	c7.852,18.949,16.984,37.59,27.141,55.398c1.848,3.234,5.223,5.051,8.695,5.051c1.68,0,3.383-0.426,4.945-1.316
	C93.856,254.336,95.528,248.23,92.793,243.434z"/>
<path d="M312.934,127.988c-1.984-0.262-3.996-0.395-5.984-0.395c-22.715,0-42.086,17.004-45.055,39.555
	c-3.273,24.867,14.293,47.762,39.16,51.039c1.984,0.262,3.996,0.391,5.984,0.391c22.715,0,42.086-17.004,45.055-39.555
	C355.367,154.156,337.801,131.262,312.934,127.988z M332.266,176.414c-1.664,12.637-12.508,22.164-25.227,22.164
	c-1.117,0-2.254-0.074-3.371-0.219c-13.938-1.836-23.777-14.668-21.945-28.602c1.664-12.637,12.508-22.164,25.227-22.164
	c1.117,0,2.254,0.074,3.371,0.223C324.254,149.652,334.098,162.48,332.266,176.414z"/>
<path d="M310.332,252.375c-1.984-0.262-3.996-0.395-5.984-0.395c-22.719,0-42.086,17.004-45.055,39.555
	c-1.586,12.047,1.613,23.992,9.012,33.629c7.395,9.641,18.102,15.824,30.148,17.41c1.984,0.262,3.996,0.395,5.98,0.395
	c22.719,0,42.09-17.008,45.059-39.559C352.766,278.543,335.199,255.648,310.332,252.375z M329.664,300.801
	c-1.664,12.637-12.512,22.168-25.23,22.168c-1.117,0-2.25-0.074-3.367-0.223c-6.75-0.891-12.75-4.355-16.898-9.754
	c-4.145-5.402-5.938-12.094-5.047-18.848c1.664-12.633,12.508-22.164,25.227-22.164c1.117,0,2.254,0.074,3.371,0.223
	C321.652,274.039,331.496,286.867,329.664,300.801z"/>
<path d="M244.375,210.945l-30.734-4.047c-5.473-0.727-10.5,3.133-11.223,8.609s3.133,10.5,8.609,11.219l30.734,4.047
	c0.445,0.059,0.883,0.086,1.32,0.086c4.941,0,9.238-3.66,9.898-8.695C253.704,216.691,249.852,211.668,244.375,210.945z"/>
<path d="M226.075,264.117c-0.719-5.477-5.742-9.332-11.219-8.609s-9.328,5.746-8.609,11.223l2.715,20.621
	c0.664,5.035,4.961,8.699,9.902,8.699c0.434,0,0.875-0.031,1.316-0.09c5.477-0.719,9.332-5.742,8.609-11.219L226.075,264.117z"/>
</svg>
