<?xml version="1.0" encoding="utf-8"?>
<!-- Generator: Adobe Illustrator 16.0.0, SVG Export Plug-In . SVG Version: 6.00 Build 0)  -->
<!DOCTYPE svg PUBLIC "-//W3C//DTD SVG 1.1//EN" "http://www.w3.org/Graphics/SVG/1.1/DTD/svg11.dtd">
<svg version="1.1" id="Layer_1" xmlns="http://www.w3.org/2000/svg" xmlns:xlink="http://www.w3.org/1999/xlink" x="0px" y="0px"
	 width="512px" height="512px" viewBox="0 0 512 512" enable-background="new 0 0 512 512" xml:space="preserve">
<path fill="#3B5366" d="M10.5,171.293c0,0,27.242-156.793,131.621-155.793S256,10.449,256,10.449L189.5,474.5
	c0,0-122.922-0.171-130.441-15s-21.559-11-27.559-23s-17-86.428-17-86.428l4-37.311l-8-53.262v-29.648l14-20.895l-14-33.457"/>
<path fill="#F7222B" d="M501.523,338.582c0-10.309-4.816-19.492-12.32-25.426l-317.008-0.395
	c-7.797,5.918-12.836,15.277-12.836,25.82c0,17.891,14.504,32.395,32.395,32.395h277.371
	C487.02,370.977,501.523,356.473,501.523,338.582z"/>
<path fill="#ED732F" d="M501.523,244.48c0-13.852-11.227-25.078-25.074-25.078H184.434c-13.848,0-25.074,11.227-25.074,25.078
	c0,13.848,11.227,25.074,25.074,25.074h292.016C490.297,269.555,501.523,258.328,501.523,244.48z"/>
<path fill="#FF9D3B" d="M491.074,393.883v-26.645H123.313v26.645c0,46.738,37.891,84.625,84.629,84.625h198.508
	C453.188,478.508,491.074,440.621,491.074,393.883z"/>
<path fill="#FF9D3B" d="M501.523,177.613c0-92.324-74.844-167.164-167.164-167.164h-54.328c-92.324,0-167.164,74.84-167.164,167.164
	c0,23.082,18.711,41.789,41.789,41.789H459.73C482.813,219.402,501.523,200.695,501.523,177.613z"/>
<path fill="#21CC5A" d="M176.613,306.004c4.895,0.926,9.648,2.84,13.926,5.785c5.039,3.469,10.734,5.516,16.555,6.18
	c5.766-0.684,11.406-2.73,16.395-6.191c7.445-5.125,16.313-7.168,24.91-6.184c2.52-0.301,5.063-0.344,7.582-0.121v0.004
	c0.008,0,0.012-0.004,0.02-0.004c0.004,0,0.012,0.004,0.02,0.004v-0.004c8.293-0.73,16.781,1.355,23.949,6.293l0.008,0.004
	c4.082,2.816,8.598,4.695,13.258,5.672c4.652-0.977,9.156-2.848,13.23-5.652c8.41-5.793,18.641-7.664,28.242-5.656
	c9.598-2.008,19.828-0.137,28.242,5.656c4.074,2.805,8.578,4.676,13.227,5.652c4.664-0.977,9.18-2.855,13.262-5.672l0.004-0.004
	c7.168-4.938,15.66-7.023,23.953-6.293v0.004c0.008,0,0.012-0.004,0.02-0.004c0.004,0,0.012,0.004,0.016,0.004v-0.004
	c2.523-0.223,5.066-0.18,7.582,0.121c8.598-0.984,17.469,1.059,24.914,6.184c4.984,3.461,10.625,5.508,16.395,6.191
	c5.82-0.664,11.516-2.711,16.555-6.18c4.277-2.945,9.027-4.855,13.922-5.785c6.371-8.285,13.766-23.887,3.988-41.07h-324.16
	C162.848,282.117,170.242,297.719,176.613,306.004z"/>
<path fill="#FFFFFF" d="M185.016,309.086L333.566,417.91l138.625-99.66l-38.059-5.094L185.016,309.086z"/>
<path fill="#FFE48D" d="M372.719,389.762l99.473-71.512l-38.059-5.094l-169.773-2.773L372.719,389.762z"/>
<path d="M502.047,311.164c7.98-10.996,14.957-29.246,5.141-48.914c3.035-5.234,4.781-11.301,4.781-17.773
	c0-12.281-6.266-23.125-15.77-29.508c9.719-9.492,15.77-22.727,15.77-37.355C511.969,79.676,432.293,0,334.359,0H177.641
	C79.707,0,0.031,79.676,0.031,177.613c0,14.625,6.051,27.863,15.773,37.355c-9.508,6.383-15.773,17.227-15.773,29.508
	c0,6.473,1.746,12.539,4.781,17.773c-9.82,19.672-2.836,37.93,5.148,48.926c-6.328,7.633-9.93,17.344-9.93,27.406
	c0,10.711,3.957,20.508,10.477,28.027c-0.012,0.207-0.031,0.418-0.031,0.629v26.645c0,52.422,42.652,95.074,95.074,95.074h300.898
	c52.422,0,95.074-42.652,95.074-95.074v-26.645c0-0.211-0.02-0.422-0.031-0.629c6.52-7.52,10.477-17.316,10.477-28.027
	C511.969,328.406,508.422,318.789,502.047,311.164z M226.113,326.242c4.125-1.363,8.098-3.297,11.777-5.828
	c0.023-0.016,0.043-0.027,0.063-0.043c4.98-3.43,11.066-5.023,17.109-4.488c0.512,0.047,1.023,0.051,1.535,0.023h0.004
	c0.109-0.008,0.223-0.016,0.332-0.023c6.051-0.531,12.133,1.063,17.109,4.488c0.02,0.012,0.043,0.027,0.063,0.039
	c15.941,10.961,37.344,10.957,53.281-0.016c8.863-6.102,20.773-6.105,29.637,0c15.949,10.98,37.383,10.98,53.336-0.004
	c0.012-0.008,0.027-0.02,0.039-0.027c8.859-6.078,20.75-6.074,29.574,0c2.016,1.398,4.117,2.617,6.285,3.66L333.625,405
	L226.113,326.242z M30.844,303.297c-0.152-0.113-12.602-11.484-9.297-26.18c4.297,1.852,9.035,2.883,14.004,2.883h440.898
	c4.973,0,9.707-1.031,14.008-2.883c3.305,14.695-9.137,26.059-9.23,26.133c-8.773,6.055-20.57,6.031-29.375-0.078
	c-15.953-10.98-37.383-10.98-53.336,0.004c-0.012,0.008-0.023,0.016-0.035,0.023c-8.859,6.082-20.75,6.078-29.605-0.02
	c-15.953-10.98-37.387-10.98-53.336,0c-8.867,6.105-20.773,6.098-29.629-0.012c-0.02-0.016-0.043-0.031-0.066-0.047
	c-8.711-5.98-19.258-8.855-29.828-8.129c-10.563-0.73-21.133,2.141-29.852,8.125c-0.023,0.016-0.047,0.035-0.07,0.051
	c-8.859,6.109-20.766,6.117-29.629,0.012c-15.949-10.98-37.383-10.984-53.336,0c-8.852,6.094-20.746,6.102-29.605,0.02
	c-0.012-0.008-0.023-0.016-0.035-0.023c-15.953-10.984-37.383-10.984-53.363,0.016C51.344,309.281,39.547,309.305,30.844,303.297z
	 M477.359,327.398c2.934-0.688,5.809-1.66,8.582-2.918c3.297,3.918,5.133,8.863,5.133,14.102c0,12.102-9.848,21.949-21.949,21.949
	h-37.848L477.359,327.398z M335.926,229.852c5.77,0,10.449-4.676,10.449-10.449c0-5.77-4.68-10.445-10.449-10.445H52.27
	c-17.285,0-31.344-14.063-31.344-31.344c0-86.414,70.301-156.715,156.715-156.715h156.719c86.414,0,156.715,70.301,156.715,156.715
	c0,17.281-14.059,31.344-31.344,31.344h-51.191c-5.77,0-10.449,4.676-10.449,10.445c0,5.773,4.68,10.449,10.449,10.449h67.91
	c8.063,0,14.625,6.563,14.625,14.629c0,8.063-6.563,14.625-14.625,14.625H35.551c-8.063,0-14.625-6.563-14.625-14.625
	c0-8.066,6.563-14.629,14.625-14.629H335.926z M406.449,468.063H105.551c-40.902,0-74.176-33.277-74.176-74.18v-14.035
	c3.66,1.023,7.516,1.578,11.5,1.578h105.512c5.77,0,10.449-4.676,10.449-10.445s-4.68-10.449-10.449-10.449H42.875
	c-12.105,0-21.949-9.844-21.949-21.949c0-5.266,1.824-10.199,5.117-14.105c6.129,2.781,12.742,4.176,19.363,4.176
	c9.324,0,18.648-2.758,26.594-8.266c8.848-6.094,20.738-6.102,29.598-0.027c0.016,0.012,0.027,0.023,0.043,0.031
	c15.953,10.984,37.387,10.984,53.336,0.004c6.996-4.82,15.887-5.816,23.684-3.027c0.063,0.047,0.117,0.102,0.184,0.148
	l58.715,43.016h-19.867c-5.77,0-10.449,4.676-10.449,10.445c0,5.773,4.68,10.449,10.449,10.449h46.707
	c0.516,0,1.02-0.051,1.516-0.121l61.477,45.035c1.836,1.348,4.004,2.02,6.172,2.02c2.141,0,4.277-0.652,6.102-1.965l62.574-44.988
	c0.125,0.004,0.25,0.02,0.379,0.02h66.508c3.984,0,7.84-0.559,11.5-1.582v14.039C480.629,434.785,447.352,468.063,406.449,468.063z"
	/>
<path d="M131.672,149.746c-5.77,0-10.449,4.68-10.449,10.449v0.648c0,5.773,4.68,10.449,10.449,10.449s10.449-4.676,10.449-10.449
	v-0.648C142.121,154.426,137.441,149.746,131.672,149.746z"/>
<path d="M193.836,130.941c-5.77,0-10.449,4.676-10.449,10.449v0.648c0,5.77,4.68,10.449,10.449,10.449s10.449-4.68,10.449-10.449
	v-0.648C204.285,135.617,199.605,130.941,193.836,130.941z"/>
<path d="M69.508,130.941c-5.77,0-10.449,4.676-10.449,10.449v0.648c0,5.77,4.68,10.449,10.449,10.449s10.449-4.68,10.449-10.449
	v-0.648C79.957,135.617,75.277,130.941,69.508,130.941z"/>
<path d="M256,149.746c-5.77,0-10.449,4.68-10.449,10.449v0.648c0,5.773,4.68,10.449,10.449,10.449s10.449-4.676,10.449-10.449
	v-0.648C266.449,154.426,261.77,149.746,256,149.746z"/>
<path d="M318.164,130.941c-5.77,0-10.449,4.676-10.449,10.449v0.648c0,5.77,4.68,10.449,10.449,10.449s10.449-4.68,10.449-10.449
	v-0.648C328.613,135.617,323.934,130.941,318.164,130.941z"/>
<path d="M380.328,171.293c5.77,0,10.449-4.676,10.449-10.449v-0.648c0-5.77-4.68-10.449-10.449-10.449s-10.449,4.68-10.449,10.449
	v0.648C369.879,166.617,374.559,171.293,380.328,171.293z"/>
<path d="M442.492,152.488c5.77,0,10.449-4.68,10.449-10.449v-0.648c0-5.773-4.68-10.449-10.449-10.449s-10.449,4.676-10.449,10.449
	v0.648C432.043,147.809,436.723,152.488,442.492,152.488z"/>
<path d="M161.449,72.402c-5.77,0-10.449,4.676-10.449,10.449V83.5c0,5.77,4.68,10.449,10.449,10.449s10.445-4.68,10.445-10.449
	v-0.648C171.895,77.078,167.219,72.402,161.449,72.402z"/>
<path d="M223.613,91.207c-5.77,0-10.449,4.68-10.449,10.449v0.652c0,5.77,4.68,10.445,10.449,10.445s10.445-4.676,10.445-10.445
	v-0.652C234.059,95.887,229.383,91.207,223.613,91.207z"/>
<path d="M285.777,72.402c-5.77,0-10.449,4.676-10.449,10.449V83.5c0,5.77,4.68,10.449,10.449,10.449s10.445-4.68,10.445-10.449
	v-0.648C296.223,77.078,291.547,72.402,285.777,72.402z"/>
<path d="M358.387,102.309v-0.652c0-5.77-4.676-10.449-10.445-10.449s-10.449,4.68-10.449,10.449v0.652
	c0,5.77,4.68,10.445,10.449,10.445S358.387,108.078,358.387,102.309z"/>
<path d="M183.215,360.531h-0.395c-5.77,0-10.445,4.676-10.445,10.445c0,5.773,4.676,10.449,10.445,10.449h0.395
	c5.77,0,10.445-4.676,10.445-10.449C193.66,365.207,188.984,360.531,183.215,360.531z"/>
<path d="M371.352,229.852h0.324c5.77,0,10.449-4.676,10.449-10.449c0-5.77-4.68-10.445-10.449-10.445h-0.324
	c-5.77,0-10.449,4.676-10.449,10.445C360.902,225.176,365.582,229.852,371.352,229.852z"/>
</svg>
