<?xml version="1.0" encoding="utf-8"?>
<!-- Generator: Adobe Illustrator 16.0.0, SVG Export Plug-In . SVG Version: 6.00 Build 0)  -->
<!DOCTYPE svg PUBLIC "-//W3C//DTD SVG 1.1//EN" "http://www.w3.org/Graphics/SVG/1.1/DTD/svg11.dtd">
<svg version="1.1" id="Layer_1" xmlns="http://www.w3.org/2000/svg" xmlns:xlink="http://www.w3.org/1999/xlink" x="0px" y="0px"
	 width="960px" height="560px" viewBox="0 0 960 560" enable-background="new 0 0 960 560" xml:space="preserve">
<path fill="#4A3A36" d="M352.764,564.533c-8.488-3.592-16.846-6.549-24.677-10.553c-21.324-10.9-28.694-34.211-17.924-55.373
	c10.966-21.547,34.384-29.328,55.945-18.572c20.133,10.043,35.012,25.332,45.264,45.275c1.395,2.715,1.679,6.828,6.917,3.311
	c31.015-20.848,60.139-43.783,81.759-74.785c17.307-24.82,28.102-51.715,22.813-82.813c-5.688-33.441-25.979-56.502-53.789-73.749
	c-25.933-16.085-54.63-24.064-84.907-22.889c-106.311,4.14-180.381-57.482-213.489-146.685
	c-11.753-31.673-18.52-64.235-14.285-98.253c0.545-4.377-2.189-6.234-4.33-8.661C125.454-9.365,102.133-41.68,85.989-78.771
	c-5.025-11.548-9.14-23.41-11.624-35.771c-1.728-8.599,135.927-88.199,143.147-89.893c7.113-1.669-120.549,75.764-118.502,84.192
	c7.733,31.844,23.328,59.74,43.319,87.78c0.828-13.702,1.633-25.513,4.625-37.013c6.423-24.696,151.108-120.398,167.973-139.729
	c5.312-6.089,11.232-11.589,19.52-13.207c7.016-1.37,12.527,1.193,15.215,7.985c2.75,6.957-133.729,86.028-140.26,88.891
	c-5.574,2.444-9.558,6.175-12.872,10.807c-24.891,34.795-35.926,72.276-22.342,114.664c2.254,7.038,5.719,9.495,13.407,9.434
	c87.687-0.703,175.379-0.869,263.066-1.425c42.06-0.267,82.192,9.168,121.103,24.008c75.375,28.749,137.762,74.745,183.598,141.774
	c116.293,170.06,0.9,358.614-129.485,400.487c-46.356,14.887-93.39,18.234-141.392,12.893c-19.898-2.213-39.628-5.539-58.881-11.072
	c-5.678-1.629-6.72,0.299-7.094,5.242c-1.416,18.725-6.134,36.637-15.175,53.137c-11.315,20.654-34.036,27.168-55.241,16.316
	c-20.643-10.566-28.597-33.805-18.567-54.678c4.605-9.588,10.583-18.281,18.036-25.92
	C349.336,568.311,351.017,566.416,352.764,564.533z"/>
<path fill="#FEFDFD" d="M323.465,33.444c44.859,0,89.715,0.063,134.572-0.093c4.602-0.017,8.038,1.261,11.523,4.237
	c30.034,25.628,48.359,56.953,46.493,97.53c-2.411,52.479-45.482,101.198-98.8,110.555c-47.558,8.347-93.993,4.086-136.626-20.525
	c-49.597-28.633-77.601-73.571-92.721-127.507c-4.954-17.67-7.274-35.737-7.208-54.172c0.023-6.925,1.841-9.212,9.124-9.155
	c44.546,0.343,89.096,0.172,133.644,0.172C323.465,34.137,323.465,33.791,323.465,33.444z"/>
<path fill="#FE556A" d="M621.814,338.803c15.985-9.287,32.188-18.17,46.016-30.781c36.228-33.062,54.685-75.115,62.759-122.531
	c2.311-0.579,2.973,1.327,3.864,2.649c28.647,42.572,44.92,89.218,43.33,140.827c-1.699,55.328-23.313,103.477-56.801,146.762
	c-2.098,2.711-4.426,5.254-6.402,8.047c-10.892,15.346-25.394,23.445-44.455,24.738c-28.063,1.904-54.678-1.41-78.801-17.025
	c-0.923-3.725,1.836-5.76,3.812-8.08c19.867-23.383,29.316-50.566,29.641-81.076c0.198-18.555,0.648-37.123-4.011-55.333
	C620.049,344.191,619.875,341.33,621.814,338.803z"/>
<path fill="#FE556A" d="M525.422,194.538c9.118-21.034,16.766-42.263,16.462-65.838c-0.371-28.708-9.145-54.333-25.222-77.765
	c-1.129-1.648-2.282-3.281-3.476-4.883c-1.177-1.567-2.418-3.083-4.501-5.73c13.526,1.351,25.027,5.31,36.412,9.096
	c55.847,18.564,105.101,48.128,147.969,88.627c11.062,10.45,15.813,20.755,13.596,36.562c-6.327,45.095-22.29,84.833-57.202,115.446
	c-10.778,9.451-22.508,17.535-35.93,22.902c-3.575-1.131-4.112-4.528-5.273-7.331c-14.065-33.97-35.678-62.774-60.955-89.047
	c-5.729-5.956-12.765-10.504-18.433-16.554C527.355,198.416,525.01,197.343,525.422,194.538z"/>
<path fill="#FEFDFD" d="M525.422,194.538c39.247,32.124,69.737,70.759,88.102,118.417c-22.623,11.808-47.128,16.528-72.187,19.176
	c-2.464,0.262-4.202-0.242-5.568-2.723c-18.026-32.661-45.831-53.928-79.624-67.69c-0.52-1.976,0.929-2.126,1.719-2.523
	c28.095-14.074,49.901-34.737,65.329-62.131C523.729,196.104,524.671,195.373,525.422,194.538z"/>
<path fill="#FEFDFD" d="M621.814,338.803c5.991,27.26,8.063,54.73,4.021,82.455c-3.95,27.082-15.462,50.525-34.514,70.23
	c-21.868-12.518-37.771-30.742-50.242-52.305c-1.581-2.736-1.809-5.107-0.688-8.037c8.624-22.545,11.901-45.67,6.892-69.553
	c-0.603-2.863-0.202-4.432,2.838-4.688C575.011,354.795,598.501,347.144,621.814,338.803z"/>
<path fill="#FE556A" d="M570.489,508.971c24.017,15.266,49.749,25.309,80.627,25.779c-13.175,8.318-25.985,13.068-39.037,17.104
	c-50.546,15.621-101.77,14.797-153.275,5.867c-8.683-1.506-17.466-2.658-25.694-6.104c0.726-3.846,4.114-3.689,6.674-3.842
	c22.623-1.355,44.689-5.779,66.557-11.449c0.828-0.217,1.703-0.16,2.547-0.164c1.394,0.084,2.71,0.533,4.037,0.98
	c11.576,3.932,14.826,2.4,18.856-8.855C545.275,523.045,556.819,513.877,570.489,508.971z"/>
<path fill="#FEFDFD" d="M570.489,508.971c-11.503,8.135-23.347,15.623-37.072,19.551c-2.55-0.732-2.826-3.371-4.226-5.07
	c-2.87-3.477-6.156-6.24-10.972-4.539c-4.757,1.686-7.119,5.324-7.264,10.465c-0.081,2.791,0.916,5.678-0.577,8.371
	c-23.663,6.854-47.717,11.48-72.366,12.727c-1.649,0.084-3.267,0.752-4.899,1.146c-5.443-3.158,0.559-3.604,1.349-4.139
	c14.193-9.627,28.049-19.691,41.075-30.863c18.512-15.875,35.228-33.391,49.312-54.883
	C537.738,480.369,552.986,495.799,570.489,508.971z"/>
<path fill="#FEFDFD" d="M391.373,543.436c-19.842-0.346-37.398-4.166-53.49-13.354c-7.427-4.246-8.831-12.184-4.6-20.145
	c4.321-8.139,11.888-11.348,20.045-7.563C370.859,510.512,382.996,523.949,391.373,543.436z"/>
<path fill="#FDFDFD" d="M393.583,569.797c-0.458,19.053-4.091,36.145-12.548,51.971c-4.668,8.729-12.2,10.695-20.948,6.232
	c-8.42-4.295-11.472-12.154-7.402-20.732C361.082,589.58,374.698,577.518,393.583,569.797z"/>
<path fill="#4A3A36" d="M372.287,167.53c-25.905-0.009-46.979-20.883-47.126-46.683c-0.148-25.674,21.065-47.308,46.541-47.463
	c26.065-0.162,47.705,21.363,47.549,47.293C419.094,146.583,398.092,167.539,372.287,167.53z"/>
<path fill="#4C3A36" d="M729.84,329.051c0,7.438-5.527,13.092-12.844,13.147c-7.295,0.056-12.814-5.611-12.732-13.079
	c0.082-7.523,4.811-12.414,12.139-12.561C723.828,316.413,729.845,322.004,729.84,329.051z"/>
<path fill="#4C3A36" d="M729.845,386.021c-0.271,7.201-6.229,12.793-13.459,12.633c-7.094-0.16-12.495-6.273-12.09-13.693
	c0.419-7.756,5.685-12.369,13.574-11.902C724.835,373.475,730.104,379.178,729.845,386.021z"/>
<path fill="#4C3C38" d="M554.452,306.207c-7.332-0.174-12.718-5.996-12.369-13.375c0.335-7.065,5.68-12.182,12.722-12.172
	c7.516,0.014,12.762,5.369,12.681,12.945C567.401,301.123,561.961,306.384,554.452,306.207z"/>
<path fill="#4B3B37" d="M510.378,537.746c-2.217-5.045-3.501-10.199-0.574-15.354c2.821-4.955,7.458-6.879,12.895-6.027
	c6.704,1.045,10.296,5.301,10.716,12.143C534.268,541.449,519.114,545.672,510.378,537.746z"/>
<path fill="#FEFDFD" d="M371.992,141.828c-11.645-0.007-21.145-9.546-21.188-21.277c-0.045-11.587,9.457-21.233,21.146-21.466
	c11.738-0.233,21.88,9.987,21.7,21.873C393.482,132.582,383.877,141.836,371.992,141.828z"/>
</svg>
