<?xml version="1.0" encoding="utf-8"?>
<!-- Generator: Adobe Illustrator 16.0.0, SVG Export Plug-In . SVG Version: 6.00 Build 0)  -->
<!DOCTYPE svg PUBLIC "-//W3C//DTD SVG 1.1//EN" "http://www.w3.org/Graphics/SVG/1.1/DTD/svg11.dtd">
<svg version="1.1" id="Layer_1" xmlns="http://www.w3.org/2000/svg" xmlns:xlink="http://www.w3.org/1999/xlink" x="0px" y="0px"
	 width="512px" height="512px" viewBox="0 0 512 512" enable-background="new 0 0 512 512" xml:space="preserve">
<path fill="#FF7956" d="M458.5,286.047h-405c-25.406,0-46-20.594-46-46c0-25.402,20.594-46,46-46h405c25.406,0,46,20.598,46,46
	C504.5,265.453,483.906,286.047,458.5,286.047z"/>
<path fill="#FF3F62" d="M436.371,263.504c-17.551,0-26.891-8.941-33.711-15.469c-6.176-5.914-9.211-8.531-16.418-8.531
	s-10.238,2.613-16.418,8.527c-6.816,6.531-16.152,15.473-33.707,15.473c-17.551,0-26.887-8.941-33.707-15.473
	c-6.176-5.914-9.207-8.527-16.418-8.527c-7.207,0-10.238,2.613-16.414,8.527c-6.816,6.531-16.156,15.473-33.707,15.473
	s-26.887-8.941-33.707-15.473c-6.172-5.914-9.207-8.527-16.414-8.527s-10.238,2.613-16.414,8.527
	c-6.82,6.531-16.156,15.473-33.707,15.473s-26.891-8.941-33.707-15.473c-6.176-5.914-9.207-8.527-16.414-8.527
	c-6.906,0-12.5-5.594-12.5-12.5c0-6.902,5.594-12.5,12.5-12.5c17.551,0,26.887,8.945,33.707,15.473
	c6.172,5.914,9.207,8.527,16.414,8.527s10.238-2.613,16.418-8.527c6.816-6.527,16.156-15.473,33.707-15.473
	s26.887,8.941,33.707,15.473c6.172,5.914,9.207,8.527,16.414,8.527s10.238-2.613,16.414-8.527
	c6.82-6.527,16.156-15.473,33.707-15.473s26.891,8.941,33.707,15.473c6.176,5.914,9.211,8.527,16.418,8.527
	s10.242-2.613,16.418-8.527c6.816-6.531,16.156-15.473,33.707-15.473s26.891,8.941,33.707,15.473
	c6.18,5.914,9.211,8.527,16.422,8.527c7.207,0,10.242-2.613,16.418-8.527c6.816-6.531,16.156-15.473,33.707-15.473
	c6.902,0,12.5,5.598,12.5,12.5c0,6.906-5.598,12.5-12.5,12.5c-7.211,0-10.242,2.617-16.418,8.527
	C463.262,254.563,453.922,263.504,436.371,263.504z"/>
<path fill="#FFB655" d="M382.5,120.047H129.508c-40.871,0-74,33.133-74,74H456.5C456.5,153.18,423.367,120.047,382.5,120.047z"/>
<path fill="#FFB655" d="M382.5,360.047H129.508c-40.871,0-74-33.129-74-74H456.5C456.5,326.918,423.367,360.047,382.5,360.047z"/>
<path fill="#FFE477" d="M406.371,263.504c-17.551,0-26.891-8.941-33.711-15.469c-6.176-5.914-9.211-8.531-16.418-8.531
	s-10.238,2.613-16.418,8.527c-6.816,6.531-16.152,15.473-33.707,15.473c-17.551,0-26.887-8.941-33.707-15.473
	c-6.176-5.914-9.207-8.527-16.418-8.527c-7.207,0-10.238,2.613-16.414,8.527c-6.816,6.531-16.156,15.473-33.707,15.473
	s-26.887-8.941-33.707-15.473c-6.172-5.914-9.207-8.527-16.414-8.527s-10.238,2.613-16.414,8.527
	c-6.82,6.531-16.156,15.473-33.707,15.473s-26.891-8.941-33.707-15.473c-6.176-5.914-9.207-8.527-16.414-8.527
	c-6.906,0-12.5-5.594-12.5-12.5c0-6.902,5.594-12.5,12.5-12.5c17.551,0,26.887,8.945,33.707,15.473
	c6.172,5.914,9.207,8.527,16.414,8.527s10.238-2.613,16.418-8.527c6.816-6.527,16.156-15.473,33.707-15.473
	s26.887,8.941,33.707,15.473c6.172,5.914,9.207,8.527,16.414,8.527s10.238-2.613,16.414-8.527
	c6.82-6.527,16.156-15.473,33.707-15.473s26.891,8.941,33.707,15.473c6.176,5.914,9.211,8.527,16.418,8.527
	s10.242-2.613,16.418-8.527c6.816-6.531,16.156-15.473,33.707-15.473s26.891,8.941,33.707,15.473
	c6.18,5.914,9.211,8.527,16.422,8.527c7.207,0,10.242-2.613,16.418-8.527c6.816-6.531,16.156-15.473,33.707-15.473
	c6.902,0,12.5,5.598,12.5,12.5c0,6.906-5.598,12.5-12.5,12.5c-7.211,0-10.242,2.617-16.418,8.527
	C433.262,254.563,423.922,263.504,406.371,263.504z"/>
<path fill="#FFC477" d="M458.5,194.047c9.895,0,19.059,3.125,26.563,8.441c-0.453-2.832-0.973-5.645-1.527-8.441H458.5z"/>
<path fill="#FFC477" d="M484.863,277.746c-7.465,5.23-16.555,8.301-26.363,8.301h24.816
	C483.875,283.297,484.402,280.535,484.863,277.746z"/>
<path fill="#3B5366" d="M37.5,240.051c0-25.406,20.594-46,46-46h-30c-25.406,0-46,20.594-46,46c0,25.402,20.594,46,46,46h30
	C58.094,286.047,37.5,265.453,37.5,240.051z"/>
<path fill="#3B5366" d="M159.508,120.047h-30c-40.871,0-74,33.133-74,74h30C85.508,153.18,118.637,120.047,159.508,120.047z"/>
<path fill="#3B5366" d="M85.508,286.051h-30c0,40.867,33.129,74,74,74h30C118.637,360.047,85.508,326.918,85.508,286.051z"/>
<g>
	<path fill="#FFB655" d="M235.871,238.504c7.207,0,10.242-2.613,16.418-8.527c4.547-4.355,10.23-9.77,18.707-12.902
		c-4.234-1.563-9.156-2.57-15-2.57c-17.551,0-26.891,8.941-33.707,15.473c-0.492,0.469-0.961,0.914-1.418,1.344
		C226.137,236.281,229.242,238.504,235.871,238.504z"/>
	<path fill="#FFB655" d="M436.371,238.504c7.207,0,10.242-2.613,16.418-8.527c3.57-3.418,7.844-7.484,13.605-10.594
		c-2.289-2.961-5.863-4.879-9.895-4.879c-17.551,0-26.891,8.941-33.707,15.473c-0.496,0.473-0.965,0.918-1.422,1.348
		C426.633,236.285,429.738,238.504,436.371,238.504z"/>
	<path fill="#FFB655" d="M336.117,238.504c7.207,0,10.242-2.613,16.418-8.527c4.547-4.355,10.23-9.77,18.707-12.902
		c-4.234-1.563-9.152-2.57-15-2.57c-17.551,0-26.891,8.941-33.707,15.473c-0.496,0.473-0.961,0.914-1.418,1.344
		C326.383,236.285,329.484,238.504,336.117,238.504z"/>
	<path fill="#FFB655" d="M135.629,238.504c7.207,0,10.238-2.613,16.418-8.527c4.547-4.355,10.23-9.766,18.707-12.902
		c-4.234-1.563-9.156-2.57-15-2.57c-17.555,0-26.891,8.941-33.711,15.473c-0.492,0.473-0.957,0.914-1.414,1.344
		C125.891,236.285,128.996,238.504,135.629,238.504z"/>
	<path fill="#FFB655" d="M302.41,248.031c-6.176-5.914-9.207-8.527-16.418-8.527c-6.629,0-9.734,2.223-15,7.184
		c0.457,0.43,0.926,0.875,1.418,1.348c6.816,6.527,16.156,15.473,33.707,15.473c5.848,0,10.766-1.008,15-2.57
		C312.641,257.801,306.957,252.387,302.41,248.031z"/>
	<path fill="#FFB655" d="M402.66,248.035c-6.176-5.914-9.211-8.531-16.418-8.531c-6.633,0-9.734,2.223-15,7.184
		c0.457,0.43,0.926,0.875,1.418,1.348c6.82,6.527,16.16,15.469,33.711,15.469c5.848,0,10.766-1.004,15-2.57
		C412.895,257.801,407.211,252.387,402.66,248.035z"/>
	<path fill="#FFB655" d="M202.168,248.031c-6.176-5.914-9.207-8.527-16.414-8.527c-6.633,0-9.738,2.223-15,7.184
		c0.453,0.43,0.922,0.875,1.414,1.344c6.816,6.531,16.156,15.473,33.707,15.473c5.848,0,10.766-1.004,15-2.57
		C212.398,257.801,206.715,252.387,202.168,248.031z"/>
	<path fill="#FFB655" d="M101.922,248.031c-6.176-5.914-9.207-8.527-16.414-8.527c-6.906,0-12.5-5.594-12.5-12.5
		c0-2.871,0.977-5.508,2.605-7.621c-5.25-2.836-11.738-4.879-20.105-4.879c-6.906,0-12.5,5.598-12.5,12.5
		c0,6.906,5.594,12.5,12.5,12.5c7.207,0,10.238,2.613,16.414,8.527c6.816,6.531,16.156,15.473,33.707,15.473
		c5.848,0,10.766-1.004,15-2.57C112.152,257.801,106.469,252.387,101.922,248.031z"/>
</g>
<path d="M463.68,186.797c-3.68-41.555-38.684-74.25-81.18-74.25H129.508c-42.496,0-77.5,32.695-81.184,74.25
	C21.246,189.406,0,212.293,0,240.047s21.246,50.641,48.324,53.254c3.684,41.555,38.688,74.246,81.184,74.246H382.5
	c42.496,0,77.5-32.691,81.18-74.246c27.078-2.617,48.32-25.5,48.32-53.254C512,212.297,490.758,189.41,463.68,186.797z
	 M129.508,127.547H382.5c34.133,0,62.344,25.852,66.078,59H63.426c0.59-5.203,1.777-10.227,3.5-15h105.242v-15H74.613
	C86.605,139.051,106.738,127.547,129.508,127.547z M382.5,352.547H129.508c-34.133,0-62.344-25.848-66.082-59h385.152
	C444.844,326.699,416.633,352.547,382.5,352.547z M458.5,278.547h-405c-21.23,0-38.5-17.27-38.5-38.5c0-21.227,17.27-38.5,38.5-38.5
	h405c21.23,0,38.5,17.273,38.5,38.5C497,261.277,479.73,278.547,458.5,278.547z"/>
<path d="M456.5,207.004c-20.563,0-31.594,10.563-38.895,17.555c-6.043,5.785-7.195,6.445-11.234,6.445s-5.191-0.66-11.23-6.445
	c-7.301-6.988-18.336-17.555-38.898-17.555s-31.594,10.566-38.895,17.555c-6.039,5.785-7.191,6.445-11.23,6.445
	c-4.035,0-5.188-0.66-11.227-6.445c-7.301-6.988-18.332-17.555-38.895-17.555s-31.594,10.566-38.895,17.559
	c-6.039,5.781-7.191,6.441-11.23,6.441c-4.035,0-5.188-0.66-11.227-6.441c-7.297-6.992-18.332-17.559-38.891-17.559
	c-20.566,0-31.598,10.566-38.898,17.555c-6.035,5.785-7.191,6.445-11.227,6.445s-5.191-0.66-11.23-6.445
	c-7.297-6.988-18.328-17.555-38.891-17.555c-11.031,0-20,8.973-20,20s8.969,20,20,20c4.035,0,5.188,0.664,11.227,6.445
	c7.297,6.992,18.328,17.555,38.895,17.555c20.563,0,31.594-10.563,38.895-17.555c6.039-5.781,7.191-6.445,11.23-6.445
	c4.035,0,5.188,0.664,11.227,6.445c7.297,6.992,18.328,17.555,38.895,17.555c20.563,0,31.594-10.563,38.895-17.555
	c6.035-5.781,7.191-6.445,11.227-6.445s5.191,0.664,11.23,6.445c7.297,6.992,18.332,17.555,38.895,17.555
	s31.594-10.563,38.895-17.555c6.035-5.781,7.191-6.445,11.227-6.445c4.039,0,5.195,0.664,11.234,6.449
	c7.301,6.988,18.332,17.551,38.895,17.551c20.566,0,31.598-10.563,38.898-17.555c6.039-5.781,7.195-6.445,11.234-6.445
	c11.027,0,20-8.973,20-20S467.527,207.004,456.5,207.004z M456.5,232.004c-10.523,0-15.414,4.684-21.605,10.613
	c-6.555,6.273-13.984,13.387-28.523,13.387s-21.969-7.109-28.523-13.387c-6.191-5.93-11.082-10.613-21.605-10.613
	s-15.414,4.684-21.602,10.613c-6.555,6.273-13.98,13.387-28.523,13.387c-14.539,0-21.965-7.113-28.52-13.387
	c-6.188-5.93-11.078-10.613-21.602-10.613s-15.414,4.684-21.605,10.613c-6.551,6.273-13.977,13.387-28.52,13.387
	c-14.539,0-21.965-7.113-28.516-13.387c-6.191-5.93-11.082-10.613-21.605-10.613s-15.41,4.684-21.602,10.613
	c-6.555,6.273-13.984,13.387-28.523,13.387s-21.965-7.113-28.52-13.387c-6.188-5.93-11.078-10.613-21.602-10.613
	c-2.758,0-5-2.242-5-5s2.242-5,5-5c14.539,0,21.965,7.113,28.52,13.391c6.191,5.93,11.078,10.609,21.602,10.609
	s15.414-4.684,21.605-10.609c6.555-6.277,13.98-13.391,28.52-13.391s21.969,7.113,28.52,13.391
	c6.191,5.93,11.078,10.609,21.602,10.609s15.414-4.684,21.605-10.609c6.551-6.277,13.977-13.391,28.516-13.391
	s21.969,7.113,28.523,13.391c6.188,5.926,11.078,10.609,21.602,10.609s15.414-4.684,21.605-10.609
	c6.551-6.277,13.98-13.391,28.52-13.391s21.969,7.113,28.523,13.391c6.191,5.926,11.082,10.609,21.605,10.609
	s15.414-4.684,21.605-10.609c6.555-6.277,13.984-13.391,28.523-13.391c2.758,0,5,2.242,5,5S459.258,232.004,456.5,232.004z"/>
<path fill="#FFFFFF" d="M418.188,172.887c-7.473-12.543-21.148-20.336-35.688-20.336h-84.168v-15H382.5
	c19.797,0,38.41,10.598,48.574,27.66L418.188,172.887z M288.332,152.547h-15v-15h15V152.547z M263.332,152.547h-15v-15h15V152.547z"
	/>
<path fill="#FFFFFF" d="M237,318.547h-83.332v-15H237V318.547z M143.668,318.547h-15v-15h15V318.547z M118.668,318.547h-15v-15h15
	V318.547z"/>
</svg>
