<?xml version="1.0" encoding="utf-8"?>
<!-- Generator: Adobe Illustrator 16.0.0, SVG Export Plug-In . SVG Version: 6.00 Build 0)  -->
<!DOCTYPE svg PUBLIC "-//W3C//DTD SVG 1.1//EN" "http://www.w3.org/Graphics/SVG/1.1/DTD/svg11.dtd">
<svg version="1.1" id="Layer_1" xmlns="http://www.w3.org/2000/svg" xmlns:xlink="http://www.w3.org/1999/xlink" x="0px" y="0px"
	 width="512px" height="512px" viewBox="0 0 512 512" enable-background="new 0 0 512 512" xml:space="preserve">
<path fill="#FF9455" d="M315.965,100.555l72.367,47.055l46.035-29.934L362,70.617L315.965,100.555z"/>
<path fill="#FF9455" d="M107.09,221.332l77.289,50.258l45.07-29.309l-77.285-50.254L107.09,221.332z"/>
<path fill="#3B5366" d="M150,354.563c-6.082,0-12.07-0.313-17.949-0.918c-20.523-2.105-39.652-7.781-56.398-16.215v21.582
	c0,36.879,22.168,69.602,56.398,90.074C137.93,449.688,143.918,450,150,450c20.934,0,40.793-3.684,58.629-10.289
	c39.891-14.773,69.625-44.172,78.566-79.613c1.824-7.234,2.805-14.715,2.805-22.379v-95.438C290,304.293,227.32,354.563,150,354.563
	z"/>
<path fill="#FFFBEE" d="M286.371,216.781c-8.352-28.855-30.582-53.445-60.742-69.004c-13.941-7.191-29.586-12.441-46.328-15.301
	C116.063,143.289,68.629,188.34,68.629,242.281c0,53.945,47.441,99,110.688,109.809C242.559,341.281,290,296.227,290,242.281
	C290,233.512,288.746,224.973,286.371,216.781z M150,293.941l-79.449-51.66L150,190.617l79.449,51.664L150,293.941z"/>
<path fill="#FFFBEE" d="M487.152,71.918c-24.129-15.816-54.953-25.309-88.543-25.309c-77.32,0-140,50.27-140,112.281
	c0,4.59,0.352,9.117,1.02,13.563c5.969,6.02,11.18,12.535,15.523,19.469c11.223,21.148,19.383,26.051,35.457,34.813
	c15.914,5.043,33.242,7.828,51.391,7.828c77.32,0,140-50.27,140-112.281C502,104.172,496.648,87.066,487.152,71.918z M362,173.941
	l-79.449-51.66L362,70.617l79.449,51.664L362,173.941z"/>
<path fill="#755B62" d="M372.746,234.234c-7.477-2.523-14.625-5.551-21.371-9.031c0.867,3,1.586,6.051,2.145,9.137
	c2.809,0.137,5.633,0.223,8.48,0.223C365.617,234.563,369.199,234.449,372.746,234.234z"/>
<path fill="#3B5366" d="M372.746,234.234c-3.547,0.215-7.129,0.328-10.746,0.328c-2.848,0-5.672-0.086-8.48-0.223
	c0.973,5.344,1.48,10.805,1.48,16.359v71.746c5.672,2.734,11.609,5.141,17.766,7.219c16.977-1.035,33.113-4.492,47.863-9.953
	c45.184-16.734,77.352-52.219,81.016-94.008c0.23-2.641,0.355-5.301,0.355-7.984v-95.438
	C502,181.391,445.047,229.832,372.746,234.234z"/>
<path d="M208.629,372.707c-5.523,0-10,4.477-10,10v0.289c0,5.523,4.477,10,10,10s10-4.477,10-10v-0.289
	C218.629,377.184,214.152,372.707,208.629,372.707z"/>
<path d="M65.098,250.664l79.453,51.664c1.656,1.078,3.551,1.613,5.449,1.613s3.793-0.539,5.449-1.613l79.453-51.664
	c2.836-1.844,4.547-5,4.547-8.383s-1.711-6.539-4.547-8.383l-79.453-51.664c-3.313-2.156-7.586-2.152-10.898,0l-79.453,51.664
	c-2.836,1.844-4.547,5-4.547,8.383S62.262,248.82,65.098,250.664z M150,202.547l61.105,39.734L150,282.016l-61.105-39.734
	L150,202.547z"/>
<path d="M467.25,35.086C439.039,12.461,401.66,0,362,0s-77.039,12.461-105.254,35.086C227.891,58.227,212,89.195,212,122.281
	c0,2.945,0.145,5.883,0.402,8.813C193.391,123.977,172.254,120,150,120C67.289,120,0,174.855,0,242.281v95.438
	c0,33.086,15.891,64.055,44.746,87.195C72.961,447.539,110.34,460,150,460s77.039-12.461,105.25-35.086
	C284.109,401.77,300,370.805,300,337.719v-8.621C319.371,336.25,340.52,340,362,340c39.66,0,77.039-12.461,105.25-35.086
	c28.859-23.141,44.75-54.109,44.75-87.195v-95.438C512,89.195,496.109,58.227,467.25,35.086z M362,20
	c71.684,0,130,45.883,130,102.281s-58.316,102.281-130,102.281c-23.883,0-47.074-5.121-67.359-14.836
	c-9.453-28.141-30.699-52.297-60.453-68.715c-1.453-6.152-2.188-12.434-2.188-18.73C232,65.883,290.316,20,362,20z M57.34,170.75
	C82.066,150.922,114.973,140,150,140s67.934,10.922,92.66,30.75c24.078,19.313,37.34,44.715,37.34,71.531
	s-13.262,52.219-37.34,71.531c-24.727,19.828-57.633,30.75-92.66,30.75s-67.934-10.922-92.66-30.75
	C33.262,294.5,20,269.098,20,242.281S33.262,190.063,57.34,170.75z M218.629,424.547v-12.844c0-5.523-4.48-10-10-10
	c-5.523,0-10,4.477-10,10v20.867C183.598,437.355,167.184,440,150,440c-71.684,0-130-45.883-130-102.281v-34.484
	c25.941,36.625,74.496,61.328,130,61.328s104.059-24.703,130-61.328v34.484C280,374.309,255.445,406.469,218.629,424.547z
	 M492,217.719c0,36.59-24.555,68.75-61.371,86.828v-12.844c0-5.523-4.48-10-10-10c-5.523,0-10,4.477-10,10v20.867
	C395.598,317.355,379.184,320,362,320c-21.742,0-43.035-4.289-62-12.426v-65.297c0-2.941-0.137-5.859-0.387-8.754
	c19.465,7.25,40.699,11.035,62.387,11.035c39.66,0,77.039-12.457,105.25-35.082c9.777-7.844,18.063-16.586,24.75-26.004V217.719z"/>
<path d="M420.629,252.707c-5.523,0-10,4.477-10,10v0.289c0,5.523,4.477,10,10,10s10-4.477,10-10v-0.289
	C430.629,257.184,426.152,252.707,420.629,252.707z"/>
<path d="M277.098,130.664l79.453,51.664c1.656,1.078,3.551,1.613,5.449,1.613s3.793-0.539,5.449-1.613l79.453-51.664
	c2.836-1.844,4.547-5,4.547-8.383s-1.711-6.539-4.547-8.383l-79.453-51.664c-3.313-2.156-7.586-2.156-10.898,0l-79.453,51.664
	c-2.836,1.844-4.547,4.996-4.547,8.383C272.551,125.664,274.262,128.82,277.098,130.664z M362,82.547l61.105,39.734L362,162.016
	l-61.105-39.734L362,82.547z"/>
</svg>
