<?xml version="1.0" encoding="utf-8"?>
<!-- Generator: Adobe Illustrator 16.0.0, SVG Export Plug-In . SVG Version: 6.00 Build 0)  -->
<!DOCTYPE svg PUBLIC "-//W3C//DTD SVG 1.1//EN" "http://www.w3.org/Graphics/SVG/1.1/DTD/svg11.dtd">
<svg version="1.1" id="Layer_1" xmlns="http://www.w3.org/2000/svg" xmlns:xlink="http://www.w3.org/1999/xlink" x="0px" y="0px"
	 width="512px" height="512px" viewBox="0 0 512 512" enable-background="new 0 0 512 512" xml:space="preserve">
<path fill="#F7B239" d="M447.65,410.101c10.532,0,19.076,8.532,19.076,19.063v23.254c0,27.658-22.431,50.088-50.102,50.088H95.371
	c-27.671,0-50.089-22.43-50.089-50.088v-23.254c0-10.531,8.532-19.063,19.063-19.063h3.43H444.22H447.65z"/>
<path fill="#3B5366" d="M160.894,452.418v-23.254c0-10.531,8.532-19.063,19.063-19.063H67.776h-3.43
	c-10.532,0-19.063,8.532-19.063,19.063v23.254c0,27.658,22.418,50.088,50.089,50.088h115.612
	C183.312,502.506,160.894,480.076,160.894,452.418z"/>
<path fill="#F7B239" d="M466.727,134.252c0,10.531-8.544,19.063-19.076,19.063h-3.431H70.067h-5.722
	c-5.266,0-10.038-2.139-13.481-5.582c-3.443-3.443-5.583-8.215-5.583-13.481c0-68.899,55.849-124.76,124.747-124.76h171.938
	c34.443,0,65.633,13.962,88.215,36.544C452.765,68.619,466.727,99.809,466.727,134.252z"/>
<path fill="#3B5366" d="M142.328,134.252c0-68.899,55.848-124.76,124.747-124.76h-97.047c-68.899,0-124.747,55.861-124.747,124.76
	c0,5.266,2.139,10.038,5.582,13.481c3.443,3.443,8.215,5.582,13.481,5.582h5.721h91.326c-5.266,0-10.038-2.139-13.481-5.582
	C144.467,144.29,142.328,139.518,142.328,134.252z"/>
<polygon fill="#F95428" points="444.22,281.709 444.22,326.024 398.879,326.024 294.511,326.024 70.067,326.024 70.067,281.709 "/>
<polygon fill="#3B5366" points="104.979,281.709 104.979,326.024 100.747,326.024 91.009,326.024 70.067,326.024 70.067,281.709 "/>
<polygon fill="#9AD14B" points="444.22,153.315 444.22,197.632 234.726,197.632 130.358,197.632 70.067,197.632 70.067,153.315 "/>
<polygon fill="#F4DE3B" points="398.879,326.024 398.879,328.873 348.105,379.633 294.511,326.024 "/>
<polygon fill="#3B5366" points="104.979,151.75 104.979,196.066 100.747,196.066 91.009,196.066 70.067,196.066 70.067,151.75 "/>
<polygon fill="#F4DE3B" points="234.726,197.632 234.726,200.48 183.966,251.24 130.358,197.632 "/>
<path fill="#B27214" d="M444.22,326.024c11.608,0,22.114,4.709,29.722,12.317c7.608,7.607,12.316,18.113,12.316,29.721
	c0,23.216-18.822,42.038-42.038,42.038H67.776c-11.607,0-22.114-4.708-29.721-12.316c-7.608-7.607-12.316-18.113-12.316-29.722
	c0-23.215,18.823-42.038,42.038-42.038h2.292h224.443l53.595,53.608l50.772-50.76v-2.849H444.22z"/>
<path fill="#B27214" d="M444.22,197.632c11.608,0,22.114,4.708,29.722,12.316c7.608,7.607,12.316,18.114,12.316,29.722
	c0,23.214-18.822,42.038-42.038,42.038H70.067h-2.292c-11.607,0-22.114-4.708-29.721-12.316
	c-7.608-7.607-12.316-18.114-12.316-29.721c0-23.215,18.823-42.038,42.038-42.038h2.292h60.291l53.608,53.607l50.76-50.759v-2.848
	H444.22z"/>
<g>
	<path fill="#3B5366" d="M115.612,368.063c0-23.215,18.823-42.038,42.038-42.038H70.067h-2.292
		c-23.215,0-42.038,18.823-42.038,42.038c0,11.608,4.709,22.114,12.317,29.722c7.607,7.608,18.114,12.316,29.721,12.316h89.874
		c-11.608,0-22.114-4.708-29.722-12.316C120.32,390.177,115.612,379.671,115.612,368.063z"/>
</g>
<g>
	<path fill="#3B5366" d="M115.612,239.67c0-15.39,8.277-28.843,20.616-36.168l-5.87-5.87H70.067h-2.292
		c-23.215,0-42.038,18.823-42.038,42.038c0,11.607,4.708,22.114,12.316,29.721c7.607,7.608,18.114,12.317,29.721,12.317h2.292
		h87.583c-11.608,0-22.114-4.709-29.722-12.317C120.32,261.784,115.612,251.278,115.612,239.67z"/>
</g>
<path fill="#FFFFFF" d="M437.612,470.055c-5.243,0-9.493-4.251-9.493-9.494v-19.409c0-5.243,4.25-9.493,9.493-9.493
	s9.494,4.25,9.494,9.493v19.409C447.106,465.804,442.855,470.055,437.612,470.055z"/>
<path fill="#FFFFFF" d="M436.479,129.012c-4.606,0-8.649-3.358-9.372-8.052c-2.781-18.089-11.158-34.557-24.226-47.625
	c-3.843-3.843-8.042-7.328-12.479-10.359c-4.329-2.957-5.441-8.865-2.483-13.195c2.955-4.329,8.865-5.442,13.193-2.483
	c5.409,3.695,10.521,7.938,15.195,12.612c15.943,15.943,26.167,36.056,29.567,58.165c0.796,5.182-2.759,10.029-7.94,10.826
	C437.445,128.976,436.959,129.012,436.479,129.012z"/>
<path fill="#FFFFFF" d="M457.145,377.557c-5.243,0-9.494-4.251-9.494-9.494c0-1.168-0.549-1.962-1.009-2.422
	s-1.253-1.008-2.422-1.008c-5.242,0-9.493-4.251-9.493-9.494s4.251-9.493,9.493-9.493c8.071,0,13.395,4.115,15.849,6.569
	c2.454,2.456,6.569,7.777,6.569,15.848C466.638,373.306,462.388,377.557,457.145,377.557z"/>
<path fill="#FFFFFF" d="M457.145,249.164c-5.243,0-9.494-4.251-9.494-9.494c0-1.168-0.549-1.962-1.009-2.423
	c-0.46-0.459-1.253-1.008-2.422-1.008c-5.242,0-9.493-4.25-9.493-9.494s4.251-9.494,9.493-9.494c8.074,0,13.396,4.117,15.85,6.571
	c2.453,2.453,6.568,7.776,6.568,15.847C466.638,244.913,462.388,249.164,457.145,249.164z"/>
<circle fill="#FFFFFF" cx="374.006" cy="44.081" r="9.494"/>
<g>
	<path fill="#333333" d="M452.576,317.219v-26.705c24.454-4.003,43.178-25.272,43.178-50.842s-18.724-46.838-43.178-50.842v-26.452
		c13.411-2.339,23.64-14.058,23.64-28.128C476.216,60.224,415.992,0,341.965,0h-171.93C96.008,0,35.784,60.224,35.784,134.251
		c0,14.07,10.23,25.789,23.641,28.128v26.452c-24.455,4.002-43.179,25.272-43.179,50.842c0,25.569,18.724,46.839,43.179,50.842
		v26.705c-24.455,4.003-43.179,25.272-43.179,50.842c0,18.753,10.073,35.192,25.089,44.207c-3.486,4.735-5.551,10.577-5.551,16.895
		v23.253c0,32.856,26.73,59.585,59.585,59.585H416.63c32.856,0,59.585-26.729,59.585-59.585v-23.253
		c0-6.317-2.065-12.159-5.551-16.895c15.016-9.016,25.089-25.455,25.089-44.208C495.754,342.49,477.03,321.221,452.576,317.219z
		 M78.412,316.532v-25.331h355.175v25.331H78.412z M376.389,335.52l-28.277,28.277l-28.277-28.277H376.389z M78.412,188.144v-25.332
		h355.175v25.332H78.412z M212.245,207.131l-28.278,28.277l-28.277-28.277H212.245z M54.771,134.251
		c0-63.557,51.707-115.264,115.264-115.264h171.932c63.556,0,115.264,51.707,115.264,115.264c0,5.278-4.295,9.573-9.573,9.573
		h-4.574H68.918h-4.574C59.066,143.824,54.771,139.529,54.771,134.251z M35.233,239.671c0-17.943,14.598-32.541,32.541-32.541h1.145
		h59.919l48.417,48.417c1.854,1.855,4.284,2.781,6.713,2.781s4.859-0.926,6.712-2.781l48.417-48.417h203.985h1.144
		c17.943,0,32.541,14.598,32.541,32.541c0,17.944-14.598,32.541-32.541,32.541h-1.144H68.918h-1.145
		C49.832,272.212,35.233,257.615,35.233,239.671z M447.655,419.588c5.278,0,9.573,4.296,9.573,9.574v23.253
		c0,22.386-18.212,40.598-40.598,40.598H95.369c-22.386,0-40.598-18.212-40.598-40.598v-23.253c0-5.279,4.295-9.574,9.573-9.574
		h3.429h376.452H447.655z M444.227,400.601H67.775c-17.943,0-32.541-14.597-32.541-32.54s14.597-32.541,32.541-32.541h1.144h224.063
		l48.416,48.417c1.779,1.779,4.195,2.781,6.713,2.781s4.933-1,6.713-2.781l48.416-48.417h39.842h1.145
		c17.943,0,32.54,14.598,32.54,32.541S462.168,400.601,444.227,400.601z"/>
	<g>
		<circle fill="#333333" cx="162.941" cy="48.251" r="9.494"/>
		<circle fill="#333333" cx="349.068" cy="48.251" r="9.494"/>
		<circle fill="#333333" cx="224.983" cy="48.251" r="9.494"/>
		<circle fill="#333333" cx="287.025" cy="48.251" r="9.494"/>
	</g>
</g>
</svg>
