<?xml version="1.0" encoding="utf-8"?>
<!-- Generator: Adobe Illustrator 16.0.0, SVG Export Plug-In . SVG Version: 6.00 Build 0)  -->
<!DOCTYPE svg PUBLIC "-//W3C//DTD SVG 1.1//EN" "http://www.w3.org/Graphics/SVG/1.1/DTD/svg11.dtd">
<svg version="1.1" id="Layer_1" xmlns="http://www.w3.org/2000/svg" xmlns:xlink="http://www.w3.org/1999/xlink" x="0px" y="0px"
	 width="478px" height="478px" viewBox="0 0 478 478" enable-background="new 0 0 478 478" xml:space="preserve">
<path fill="#C49A6C" d="M355.083,13.823H118.11l16.157,32.314h204.658L355.083,13.823z"/>
<path fill="#754C29" d="M353.9,384.257c-28.443-2.804-57.13-1.825-85.315,2.908l-44.701,7.543
	c-27.327,4.533-55.129,5.585-82.721,3.125l-40.608-3.667c15.126,43.187,55.903,72.087,101.661,72.061h68.764
	c48.718-0.011,91.358-32.751,103.943-79.813L353.9,384.257z"/>
<path opacity="0.3" fill="#F1F2F2" d="M215.053,250.796l-22.62-43.086h-63.552L97.708,332.393
	c-5.16,20.422-4.171,41.913,2.846,61.773l40.608,3.667c27.592,2.46,55.394,1.408,82.721-3.125l44.701-7.543
	c28.186-4.733,56.872-5.712,85.315-2.908l21.001,2.156c4.818-17.662,5.008-36.266,0.563-54.021L344.313,207.71h-63.552
	l-22.62,43.086H215.053z"/>
<path fill="#A97C50" d="M338.926,46.137H107.339l85.094,161.573h88.434l18.604-35.339l66.385-126.234H338.926z M182.739,78.452
	l21.543,75.4L182.739,78.452z M268.911,153.853l21.544-75.4L268.911,153.853z"/>
<path fill="#C49A6C" d="M215.053,250.796h43.088l22.673-43.086H192.38L215.053,250.796z"/>
<path fill="#231F20" d="M236.597,67.68c-5.948,0-10.771,4.823-10.771,10.772v75.4c0,5.953,4.823,10.771,10.771,10.771
	s10.771-4.818,10.771-10.771v-75.4C247.368,72.503,242.545,67.68,236.597,67.68z"/>
<path fill="#231F20" d="M300.816,81.408c1.629-5.723-1.688-11.687-7.411-13.317c-5.723-1.631-11.682,1.688-13.313,7.41
	l-21.542,75.401c-1.636,5.723,1.682,11.687,7.41,13.317c0.958,0.268,1.95,0.405,2.95,0.405c4.808,0,9.03-3.193,10.351-7.815
	L300.816,81.408z"/>
<path fill="#231F20" d="M193.101,75.501c-1.631-5.722-7.59-9.041-13.312-7.41c-5.723,1.63-9.041,7.594-7.41,13.317l21.542,75.401
	c1.315,4.628,5.549,7.821,10.361,7.815c1,0,1.998-0.137,2.961-0.405c5.723-1.631,9.041-7.595,7.411-13.317L193.101,75.501z"/>
<path fill="#231F20" d="M417.287,107.342c-6.205-22.979-29.836-36.606-52.832-30.463l-3.039,0.82l14.001-26.54
	c1.762-3.345,1.641-7.368-0.315-10.604c-1.957-3.229-5.465-5.201-9.247-5.19h-9.499l8.368-16.725
	c1.668-3.34,1.489-7.306-0.474-10.483c-1.966-3.176-5.433-5.107-9.167-5.107H118.11c-3.745-0.016-7.233,1.904-9.206,5.086
	c-1.977,3.177-2.161,7.153-0.489,10.504l8.421,16.725h-9.499c-3.776,0-7.274,1.977-9.226,5.207s-2.067,7.248-0.31,10.587
	l76.726,145.778h-67.19c-5.948,0-10.772,4.824-10.772,10.771c0,5.954,4.824,10.772,10.772,10.772h7.752L87.268,329.773
	c-5.633,22.342-4.586,45.843,3.02,67.597l0.084,0.226c16.594,47.562,61.468,79.418,111.843,79.402h68.764
	c36.485,0,70.936-16.81,93.388-45.569c22.453-28.758,30.406-66.259,21.554-101.655l-27.823-111.292h7.758
	c5.95,0,10.772-4.818,10.772-10.772c0-5.948-4.822-10.771-10.772-10.771h-67.195l8.089-15.379l80.166-21.417
	c22.952-6.196,36.549-29.816,30.373-52.779V107.342z M135.541,24.594h202.113l-5.386,10.772H140.926L135.541,24.594z
	 M347.394,418.176c-18.319,23.6-46.541,37.369-76.415,37.28h-68.764c-29.873,0.089-58.097-13.681-76.417-37.28
	c-2.834-3.683-5.399-7.563-7.688-11.608l22.079,1.988c9.957,0.895,19.944,1.342,29.969,1.347c18.593-0.005,37.158-1.53,55.503-4.565
	l44.7-7.536c27.229-4.576,54.942-5.522,82.418-2.813l7.6,0.772C357.066,403.775,352.696,411.317,347.394,418.176z M335.897,218.482
	l29.084,116.508c3.225,12.997,3.719,26.525,1.452,39.726l-11.492-1.12c-29.385-2.898-59.022-1.889-88.144,3.004l-44.67,7.542
	c-26.435,4.381-53.316,5.396-80.008,3.013l-33.331-3.002c-4.438-16.043-4.654-32.958-0.631-49.109l29.134-116.561h48.582
	l19.645,37.337c1.866,3.539,5.538,5.754,9.534,5.749h43.088c3.996,0.005,7.668-2.21,9.529-5.749l19.649-37.337H335.897z
	 M210.215,218.482H263l-11.324,21.543h-30.158L210.215,218.482z M198.896,196.938L125.174,56.909h222.841l-73.717,140.029H198.896z
	 M394.398,129.211c-2.877,4.955-7.573,8.594-13.086,10.146l-60.896,16.262l27.34-51.917l22.312-6.012
	c8.41-2.288,17.372,0.721,22.699,7.627C398.097,112.218,398.742,121.648,394.398,129.211z"/>
<path fill="#231F20" d="M244.244,275.465c-0.531-0.484-1.11-0.921-1.726-1.289c-0.547-0.426-1.168-0.758-1.829-0.974
	c-0.647-0.326-1.342-0.541-2.057-0.646c-1.342-0.321-2.741-0.321-4.082,0c-0.716,0.1-1.405,0.32-2.047,0.646
	c-0.688,0.237-1.345,0.563-1.95,0.974c-0.558,0.399-1.094,0.831-1.604,1.289c-0.952,1.051-1.715,2.25-2.262,3.555
	c-1.152,2.607-1.152,5.579,0,8.188c0.547,1.305,1.31,2.504,2.262,3.556c4.244,4.165,11.046,4.165,15.295,0
	c0.946-1.052,1.715-2.251,2.262-3.556c1.152-2.609,1.152-5.581,0-8.188C245.959,277.715,245.196,276.516,244.244,275.465z"/>
<path fill="#231F20" d="M228.949,307.778c-1.973,2.063-3.093,4.797-3.124,7.646c0,5.954,4.823,10.772,10.771,10.772
	s10.771-4.818,10.771-10.772c0.026-4.376-2.599-8.33-6.642-10.008C236.687,303.738,232.032,304.675,228.949,307.778z"/>
<path fill="#231F20" d="M228.949,340.093c-1.993,2.052-3.113,4.792-3.124,7.647c-0.032,2.865,1.094,5.622,3.124,7.652
	c1.047,0.946,2.252,1.715,3.555,2.262c4.009,1.715,8.657,0.82,11.74-2.262c0.946-1.052,1.715-2.252,2.262-3.556
	c0.553-1.3,0.847-2.688,0.862-4.097c-0.016-2.855-1.136-5.596-3.124-7.647C239.927,336.11,233.267,336.11,228.949,340.093z"/>
</svg>
