<?xml version="1.0" encoding="utf-8"?>
<!-- Generator: Adobe Illustrator 16.0.0, SVG Export Plug-In . SVG Version: 6.00 Build 0)  -->
<!DOCTYPE svg PUBLIC "-//W3C//DTD SVG 1.1//EN" "http://www.w3.org/Graphics/SVG/1.1/DTD/svg11.dtd">
<svg version="1.1" id="Capa_1" xmlns="http://www.w3.org/2000/svg" xmlns:xlink="http://www.w3.org/1999/xlink" x="0px" y="0px"
	 width="70px" height="70px" viewBox="0 0 70 70" enable-background="new 0 0 70 70" xml:space="preserve">
<path id="XMLID_130_" fill="#C1C1C1" d="M66.117,60.346H3.883C1.737,60.346,0,58.607,0,56.463V13.538
	c0-2.145,1.737-3.882,3.883-3.882h62.234c2.145,0,3.883,1.738,3.883,3.882v42.925C70,58.607,68.262,60.346,66.117,60.346"/>
<rect id="XMLID_129_" x="6.035" y="44.654" fill="#878787" width="10.862" height="7.242"/>
<rect id="XMLID_128_" x="21.724" y="44.654" fill="#878787" width="10.862" height="7.242"/>
<rect id="XMLID_127_" x="37.414" y="44.654" fill="#878787" width="10.861" height="7.242"/>
<rect id="XMLID_126_" x="53.104" y="44.654" fill="#878787" width="10.861" height="7.242"/>
<path id="XMLID_125_" fill="#EFEFEF" d="M23.83,31.379H7.549c-0.835,0-1.515-0.678-1.515-1.515V18.411
	c0-0.836,0.679-1.515,1.515-1.515H23.83c0.836,0,1.515,0.678,1.515,1.515v11.454C25.345,30.701,24.667,31.379,23.83,31.379"/>
<path id="XMLID_122_" fill="#CECECE" d="M23.83,32.586H7.55c-1.501,0-2.723-1.222-2.723-2.722V18.41c0-1.5,1.222-2.721,2.723-2.721
	h16.28c1.501,0,2.722,1.221,2.722,2.721v11.454C26.552,31.364,25.331,32.586,23.83,32.586 M7.55,18.104
	c-0.172,0-0.309,0.137-0.309,0.307v11.454c0,0.17,0.137,0.308,0.309,0.308h16.28c0.171,0,0.308-0.138,0.308-0.308V18.41
	c0-0.17-0.137-0.307-0.308-0.307L7.55,18.104L7.55,18.104z"/>
<path id="XMLID_121_" fill="#EFEFEF" d="M25.345,18.411c0-0.837-0.678-1.515-1.515-1.515h-5.727H14.79
	c-0.837,0-1.515,0.677-1.515,1.515v3.313v8.141c0,0.836,0.677,1.515,1.515,1.515h1.798c0.836,0,1.515-0.678,1.515-1.515v-6.626
	c0-0.836,0.677-1.515,1.515-1.515h4.212c0.836,0,1.515-0.678,1.515-1.515V18.411z"/>
<path id="XMLID_118_" fill="#CECECE" d="M16.589,32.586H14.79c-1.5,0-2.721-1.222-2.721-2.722V18.41c0-1.5,1.221-2.721,2.721-2.721
	h9.04c1.501,0,2.722,1.221,2.722,2.721v1.799c0,1.5-1.221,2.722-2.722,2.722h-4.212c-0.172,0-0.308,0.138-0.308,0.308v6.626
	C19.311,31.364,18.089,32.586,16.589,32.586 M14.79,18.104c-0.171,0-0.307,0.137-0.307,0.307v11.454c0,0.17,0.136,0.308,0.307,0.308
	h1.799c0.17,0,0.308-0.138,0.308-0.308v-6.626c0-1.5,1.222-2.722,2.722-2.722h4.212c0.171,0,0.308-0.138,0.308-0.308V18.41
	c0-0.17-0.137-0.307-0.308-0.307L14.79,18.104L14.79,18.104z"/>
<line id="XMLID_117_" fill="none" x1="18.104" y1="26.551" x2="25.345" y2="26.551"/>
<path id="XMLID_116_" fill="#CECECE" d="M25.345,27.758h-7.241c-0.667,0-1.207-0.541-1.207-1.207s0.54-1.207,1.207-1.207h7.241
	c0.668,0,1.207,0.541,1.207,1.207S26.013,27.758,25.345,27.758"/>
<line id="XMLID_115_" fill="none" x1="13.276" y1="21.724" x2="6.034" y2="21.724"/>
<path id="XMLID_114_" fill="#CECECE" d="M13.276,22.931H6.034c-0.667,0-1.207-0.541-1.207-1.207s0.54-1.207,1.207-1.207h7.242
	c0.667,0,1.207,0.541,1.207,1.207S13.943,22.931,13.276,22.931"/>
<line id="XMLID_113_" fill="none" x1="13.276" y1="26.551" x2="6.034" y2="26.551"/>
<path id="XMLID_112_" fill="#CECECE" d="M13.276,27.758H6.034c-0.667,0-1.207-0.541-1.207-1.207s0.54-1.207,1.207-1.207h7.242
	c0.667,0,1.207,0.541,1.207,1.207S13.943,27.758,13.276,27.758"/>
<path id="XMLID_111_" fill="#878787" d="M48.275,15.689H37.414c-0.668,0-1.207,0.541-1.207,1.207s0.539,1.207,1.207,1.207h10.861
	c0.668,0,1.207-0.541,1.207-1.207S48.943,15.689,48.275,15.689"/>
<path id="XMLID_110_" fill="#878787" d="M65.172,16.896c0-0.666-0.539-1.207-1.207-1.207H53.104c-0.668,0-1.207,0.541-1.207,1.207
	s0.539,1.207,1.207,1.207h10.861C64.633,18.104,65.172,17.563,65.172,16.896"/>
<path id="XMLID_109_" fill="#878787" d="M38.621,21.724h-1.207c-0.668,0-1.207,0.541-1.207,1.207s0.539,1.207,1.207,1.207h1.207
	c0.667,0,1.207-0.541,1.207-1.207S39.288,21.724,38.621,21.724"/>
<path id="XMLID_108_" fill="#878787" d="M45.861,21.724h-2.413c-0.667,0-1.207,0.541-1.207,1.207s0.54,1.207,1.207,1.207h2.413
	c0.668,0,1.207-0.541,1.207-1.207S46.529,21.724,45.861,21.724"/>
<path id="XMLID_107_" fill="#878787" d="M51.896,21.724h-1.207c-0.668,0-1.207,0.541-1.207,1.207s0.539,1.207,1.207,1.207h1.207
	c0.668,0,1.207-0.541,1.207-1.207S52.564,21.724,51.896,21.724"/>
<path id="XMLID_106_" fill="#878787" d="M59.139,21.724h-2.414c-0.668,0-1.207,0.541-1.207,1.207s0.539,1.207,1.207,1.207h2.414
	c0.666,0,1.207-0.541,1.207-1.207S59.805,21.724,59.139,21.724"/>
<path id="XMLID_105_" fill="#878787" d="M63.107,22.074c-0.217,0.229-0.35,0.543-0.35,0.857c0,0.313,0.133,0.627,0.35,0.857
	c0.229,0.217,0.531,0.35,0.856,0.35c0.313,0,0.627-0.132,0.856-0.35c0.218-0.229,0.351-0.543,0.351-0.857s-0.133-0.628-0.351-0.857
	C64.363,21.627,63.555,21.627,63.107,22.074"/>
<line fill="none" stroke="#DD0000" stroke-width="5" stroke-miterlimit="10" x1="4.805" y1="66.789" x2="67.229" y2="4.368"/>
<line fill="none" stroke="#DD0000" stroke-width="5" stroke-miterlimit="10" x1="67.229" y1="64.789" x2="9.131" y2="6.691"/>
</svg>
