<?xml version="1.0" encoding="utf-8"?>
<!-- Generator: Adobe Illustrator 16.0.0, SVG Export Plug-In . SVG Version: 6.00 Build 0)  -->
<!DOCTYPE svg PUBLIC "-//W3C//DTD SVG 1.1//EN" "http://www.w3.org/Graphics/SVG/1.1/DTD/svg11.dtd">
<svg version="1.1" id="Capa_1" xmlns="http://www.w3.org/2000/svg" xmlns:xlink="http://www.w3.org/1999/xlink" x="0px" y="0px"
	 width="150px" height="150px" viewBox="0 0 150 150" enable-background="new 0 0 150 150" xml:space="preserve">
<path id="XMLID_130_" fill="#6BBEA1" stroke="#000000" stroke-width="2" stroke-miterlimit="10" d="M139.319,126.665H10.668
	c-4.436,0-8.026-3.593-8.026-8.026V29.905c0-4.434,3.59-8.026,8.026-8.026h128.651c4.434,0,8.026,3.592,8.026,8.026v88.734
	C147.346,123.072,143.753,126.665,139.319,126.665"/>
<rect id="XMLID_129_" x="15.117" y="94.23" fill="#498679" stroke="#000000" stroke-width="2" stroke-miterlimit="10" width="22.454" height="14.97"/>
<rect id="XMLID_128_" x="47.551" y="94.23" fill="#498679" stroke="#000000" stroke-width="2" stroke-miterlimit="10" width="22.454" height="14.97"/>
<rect id="XMLID_127_" x="79.984" y="94.23" fill="#498679" stroke="#000000" stroke-width="2" stroke-miterlimit="10" width="22.453" height="14.97"/>
<rect id="XMLID_126_" x="112.418" y="94.23" fill="#498679" stroke="#000000" stroke-width="2" stroke-miterlimit="10" width="22.453" height="14.97"/>
<path id="XMLID_125_" fill="#F0C41B" stroke="#000000" stroke-width="2" stroke-miterlimit="10" d="M51.904,66.787H18.248
	c-1.726,0-3.13-1.401-3.13-3.131V39.979c0-1.729,1.404-3.131,3.13-3.131h33.657c1.729,0,3.131,1.401,3.131,3.131v23.677
	C55.036,65.386,53.633,66.787,51.904,66.787"/>
<path id="XMLID_122_" fill="#F3D55C" stroke="#000000" stroke-width="2" stroke-miterlimit="10" d="M51.904,69.282H18.248
	c-3.101,0-5.625-2.524-5.625-5.625V39.979c0-3.102,2.524-5.626,5.625-5.626h33.657c3.101,0,5.626,2.524,5.626,5.626v23.677
	C57.53,66.758,55.005,69.282,51.904,69.282 M18.248,39.343c-0.354,0-0.636,0.284-0.636,0.636v23.677
	c0,0.352,0.282,0.636,0.636,0.636h33.657c0.352,0,0.636-0.285,0.636-0.636V39.979c0-0.352-0.284-0.636-0.636-0.636H18.248z"/>
<path id="XMLID_121_" fill="#F0C41B" stroke="#000000" stroke-width="2" stroke-miterlimit="10" d="M55.036,39.979
	c0-1.732-1.402-3.131-3.131-3.131H40.066h-6.848c-1.732,0-3.131,1.399-3.131,3.131v6.849v16.828c0,1.729,1.399,3.131,3.131,3.131
	h3.717c1.729,0,3.131-1.401,3.131-3.131V49.959c0-1.729,1.399-3.131,3.131-3.131h8.708c1.729,0,3.131-1.402,3.131-3.131V39.979z"/>
<path id="XMLID_118_" fill="#F3D55C" stroke="#000000" stroke-width="2" stroke-miterlimit="10" d="M36.935,69.282h-3.717
	c-3.102,0-5.626-2.524-5.626-5.625V39.979c0-3.102,2.524-5.626,5.626-5.626h18.687c3.101,0,5.626,2.524,5.626,5.626v3.717
	c0,3.101-2.525,5.626-5.626,5.626h-8.708c-0.354,0-0.636,0.284-0.636,0.636v13.697C42.561,66.758,40.037,69.282,36.935,69.282
	 M33.218,39.343c-0.355,0-0.637,0.284-0.637,0.636v23.677c0,0.352,0.282,0.636,0.637,0.636h3.717c0.352,0,0.636-0.285,0.636-0.636
	V49.959c0-3.101,2.524-5.626,5.625-5.626h8.708c0.352,0,0.636-0.284,0.636-0.636v-3.717c0-0.352-0.284-0.636-0.636-0.636H33.218z"/>
<line id="XMLID_117_" fill="none" stroke="#000000" stroke-width="2" stroke-miterlimit="10" x1="40.066" y1="56.808" x2="55.036" y2="56.808"/>
<path id="XMLID_116_" fill="#F3D55C" stroke="#000000" stroke-width="2" stroke-miterlimit="10" d="M55.036,59.302h-14.97
	c-1.379,0-2.495-1.117-2.495-2.495c0-1.377,1.115-2.495,2.495-2.495h14.97c1.38,0,2.495,1.118,2.495,2.495
	C57.53,58.185,56.416,59.302,55.036,59.302"/>
<line id="XMLID_115_" fill="none" stroke="#000000" stroke-width="2" stroke-miterlimit="10" x1="30.086" y1="46.828" x2="15.117" y2="46.828"/>
<path id="XMLID_114_" fill="#F3D55C" stroke="#000000" stroke-width="2" stroke-miterlimit="10" d="M30.086,49.323H15.117
	c-1.379,0-2.495-1.117-2.495-2.495s1.116-2.495,2.495-2.495h14.969c1.38,0,2.495,1.118,2.495,2.495S31.466,49.323,30.086,49.323"/>
<line id="XMLID_113_" fill="none" stroke="#000000" stroke-width="2" stroke-miterlimit="10" x1="30.086" y1="56.808" x2="15.117" y2="56.808"/>
<path id="XMLID_112_" fill="#F3D55C" stroke="#000000" stroke-width="2" stroke-miterlimit="10" d="M30.086,59.302H15.117
	c-1.379,0-2.495-1.117-2.495-2.495c0-1.377,1.116-2.495,2.495-2.495h14.969c1.38,0,2.495,1.118,2.495,2.495
	C32.581,58.185,31.466,59.302,30.086,59.302"/>
<path id="XMLID_111_" fill="#498679" stroke="#000000" stroke-width="2" stroke-miterlimit="10" d="M102.438,34.354H79.984
	c-1.38,0-2.495,1.118-2.495,2.495c0,1.376,1.115,2.495,2.495,2.495h22.453c1.381,0,2.496-1.118,2.496-2.495
	C104.934,35.471,103.818,34.354,102.438,34.354"/>
<path id="XMLID_110_" fill="#498679" stroke="#000000" stroke-width="2" stroke-miterlimit="10" d="M137.367,36.849
	c0-1.377-1.115-2.495-2.496-2.495h-22.453c-1.38,0-2.495,1.118-2.495,2.495c0,1.376,1.115,2.495,2.495,2.495h22.453
	C136.252,39.343,137.367,38.225,137.367,36.849"/>
<path id="XMLID_109_" fill="#498679" stroke="#000000" stroke-width="2" stroke-miterlimit="10" d="M82.479,46.828h-2.494
	c-1.38,0-2.495,1.118-2.495,2.495c0,1.377,1.115,2.495,2.495,2.495h2.494c1.381,0,2.496-1.117,2.496-2.495
	C84.975,47.946,83.859,46.828,82.479,46.828"/>
<path id="XMLID_108_" fill="#498679" stroke="#000000" stroke-width="2" stroke-miterlimit="10" d="M97.447,46.828h-4.988
	c-1.379,0-2.495,1.118-2.495,2.495c0,1.377,1.116,2.495,2.495,2.495h4.988c1.381,0,2.497-1.117,2.497-2.495
	C99.944,47.946,98.828,46.828,97.447,46.828"/>
<path id="XMLID_107_" fill="#498679" stroke="#000000" stroke-width="2" stroke-miterlimit="10" d="M109.923,46.828h-2.494
	c-1.38,0-2.495,1.118-2.495,2.495c0,1.377,1.115,2.495,2.495,2.495h2.494c1.38,0,2.495-1.117,2.495-2.495
	C112.418,47.946,111.303,46.828,109.923,46.828"/>
<path id="XMLID_106_" fill="#498679" stroke="#000000" stroke-width="2" stroke-miterlimit="10" d="M124.893,46.828h-4.99
	c-1.381,0-2.495,1.118-2.495,2.495c0,1.377,1.114,2.495,2.495,2.495h4.99c1.379,0,2.494-1.117,2.494-2.495
	C127.387,47.946,126.271,46.828,124.893,46.828"/>
<path id="XMLID_105_" fill="#498679" stroke="#000000" stroke-width="2" stroke-miterlimit="10" d="M133.101,47.552
	c-0.451,0.473-0.724,1.123-0.724,1.771c0,0.649,0.272,1.298,0.724,1.772c0.472,0.448,1.095,0.723,1.771,0.723
	c0.648,0,1.296-0.274,1.772-0.723c0.448-0.474,0.724-1.123,0.724-1.772c0-0.648-0.275-1.298-0.724-1.771
	C135.694,46.628,134.024,46.628,133.101,47.552"/>
</svg>
