<svg height="321pt" viewBox="-32 0 321 321.363" width="321pt" xmlns="http://www.w3.org/2000/svg"><path d="m69.695312 58.851562h74.902344v42.796876h-74.902344zm0 0" fill="#ffd782"/><path d="m48.296875 37.449219h117.699219v21.398437h-117.699219zm0 0" fill="#66342e"/><path d="m144.597656 37.449219h-74.902344v-26.75c0-2.953125 2.394532-5.347657 5.351563-5.347657h64.199219c2.953125 0 5.351562 2.394532 5.351562 5.347657zm0 0" fill="#d3843d"/><path d="m208.796875 80.25c0 11.820312-9.582031 21.398438-21.402344 21.398438-11.816406 0-21.398437-9.578126-21.398437-21.398438s9.582031-21.398438 21.398437-21.398438c11.820313 0 21.402344 9.578126 21.402344 21.398438zm0 0" fill="#cfdfe8"/><path d="m187.394531 107c-14.773437 0-26.75-11.976562-26.75-26.75s11.976563-26.75 26.75-26.75c14.773438 0 26.75 11.976562 26.75 26.75-.015625 14.765625-11.984375 26.734375-26.75 26.75zm0-42.800781c-8.863281 0-16.050781 7.1875-16.050781 16.050781s7.1875 16.050781 16.050781 16.050781 16.050781-7.1875 16.050781-16.050781c-.007812-8.859375-7.191406-16.039062-16.050781-16.050781zm0 0" fill="#195c85"/><path d="m187.394531 128.398438c-2.953125 0-5.347656-2.394532-5.347656-5.347657v-21.402343c0-2.953126 2.394531-5.347657 5.347656-5.347657 2.957031 0 5.351563 2.394531 5.351563 5.347657v21.402343c0 2.953125-2.394532 5.347657-5.351563 5.347657zm0 0" fill="#195c85"/><path d="m155.296875 208.648438v-85.597657h-96.300781v85.597657l-5.351563 42.800781h107zm0 0" fill="#d3843d"/><path d="m107.144531 251.449219h32.101563v42.800781h-32.101563zm0 0" fill="#964d4b"/><path d="m107.144531 294.25h42.800781c5.910157 0 10.699219 4.789062 10.699219 10.699219v10.699219h-53.5zm0 0" fill="#5a6470"/><path d="m58.996094 187.25h37.449218v21.398438h-37.449218zm0 0" fill="#995f5b"/><path d="m117.84375 187.25h37.449219v21.398438h-37.449219zm0 0" fill="#995f5b"/><path d="m75.046875 251.449219h32.097656v42.800781h-32.097656zm0 0" fill="#995f5b"/><path d="m75.046875 294.25h32.097656v21.398438h-32.097656zm0 0" fill="#7d8d9c"/><g fill="#d3843d"><path d="m187.394531 310.300781h10.699219v10.699219h-10.699219zm0 0"/><path d="m246.246094 310.300781h10.699218v10.699219h-10.699218zm0 0"/><path d="m.144531 310.300781h10.699219v10.699219h-10.699219zm0 0"/><path d="m48.296875 310.300781h10.699219v10.699219h-10.699219zm0 0"/><path d="m208.796875 299.601562h16.046875v10.699219h-16.046875zm0 0"/><path d="m21.546875 299.601562h21.398437v10.699219h-21.398437zm0 0"/></g><path d="m176.695312 123.050781v21.398438h-64.199218c-5.910156 0-10.699219 4.789062-10.699219 10.699219 0 5.910156 4.789063 10.699218 10.699219 10.699218h85.597656v-42.796875zm0 0" fill="#995f5b"/><path d="m48.296875 64.199219h16.046875v37.449219c0 2.957031 2.398438 5.351562 5.351562 5.351562h74.902344c2.953125 0 5.347656-2.394531 5.347656-5.351562v-37.449219h16.050782c.058594 0 .105468-.03125.164062-.03125-3.554687 4.609375-5.492187 10.261719-5.515625 16.082031.019531 12.703125 8.957031 23.652344 21.402344 26.210938v11.238281h-5.351563c-2.953124 0-5.351562 2.394531-5.351562 5.351562v16.050781h-10.699219v-16.050781c0-2.957031-2.394531-5.351562-5.347656-5.351562h-96.300781c-2.957032 0-5.351563 2.394531-5.351563 5.351562v85.265625l-5.308593 42.46875c-.363282 2.933594 1.71875 5.609375 4.652343 5.972656.21875.027344.4375.042969.660157.042969h16.046874v58.847657c0 2.957031 2.398438 5.351562 5.351563 5.351562h85.601563c2.953124 0 5.347656-2.394531 5.347656-5.351562v-10.699219c-.007813-8.859375-7.1875-16.039063-16.050782-16.050781h-5.347656v-32.097657h16.050782c2.953124-.003906 5.347656-2.398437 5.347656-5.355469 0-.222656-.015625-.441406-.042969-.660156l-5.304687-42.472656v-37.113281h37.449218c2.953125 0 5.347656-2.394531 5.347656-5.351563v-42.796875c0-2.957031-2.394531-5.351562-5.347656-5.351562h-5.351562v-11.238281c14.476562-2.957032 23.8125-17.085938 20.859375-31.5625-2.542969-12.453126-13.5-21.398438-26.210938-21.398438-5.820312.019531-11.472656 1.960938-16.082031 5.515625.003906-.058594.035156-.105469.035156-.164063v-21.402343c0-2.953125-2.394531-5.347657-5.351562-5.347657h-16.050782v-21.402343c-.003906-5.90625-4.792968-10.6914065-10.699218-10.699219h-64.199219c-5.910156.0078125-10.695313 4.792969-10.703125 10.699219v21.402343h-16.046875c-2.957031 0-5.351563 2.394532-5.351563 5.347657v21.398437c0 2.957032 2.394532 5.351563 5.351563 5.351563zm16.046875 128.402343h26.75v10.699219h-26.75zm37.453125 117.699219h-21.402344v-10.699219h21.402344zm0-21.402343h-21.402344v-32.097657h21.402344zm48.148437 10.703124c2.953126.003907 5.347657 2.394532 5.351563 5.347657v5.351562h-42.800781v-10.699219zm-37.449218-10.703124v-32.097657h21.398437v32.097657zm-52.789063-42.796876 4.011719-32.101562h32.726562c2.953126 0 5.351563-2.394531 5.351563-5.351562v-21.398438c0-2.953125-2.398437-5.351562-5.351563-5.351562h-32.101562v-53.5h85.601562v10.703124h-37.449218c-8.863282 0-16.050782 7.183594-16.050782 16.046876 0 8.863281 7.1875 16.050781 16.050782 16.050781h37.449218v10.699219h-32.097656c-2.957031 0-5.351562 2.394531-5.351562 5.351562v21.398438c0 2.957031 2.394531 5.351562 5.351562 5.351562h32.726563l4.011719 32.097656h-94.878907zm90.238281-53.5v10.699219h-26.75v-10.699219zm42.800782-32.101562h-80.25c-2.957032 0-5.351563-2.394531-5.351563-5.347656 0-2.957032 2.394531-5.351563 5.351563-5.351563h64.199218c2.953126 0 5.351563-2.394531 5.351563-5.351562v-16.046875h10.699219zm-5.351563-96.300781c8.863281 0 16.050781 7.1875 16.050781 16.050781s-7.1875 16.050781-16.050781 16.050781-16.050781-7.1875-16.050781-16.050781c.011719-8.859375 7.191406-16.039062 16.050781-16.050781zm-48.148437 32.101562h-64.199219v-32.101562h64.199219zm-64.199219-85.601562h64.199219v21.402343h-64.199219zm-21.402344 32.101562h107v10.699219h-107zm0 0"/><path d="m187.394531 310.300781h10.699219v10.699219h-10.699219zm0 0"/><path d="m208.796875 299.601562h16.046875v10.699219h-16.046875zm0 0"/><path d="m246.246094 310.300781h10.699218v10.699219h-10.699218zm0 0"/><path d="m.144531 310.300781h10.699219v10.699219h-10.699219zm0 0"/><path d="m21.546875 299.601562h21.398437v10.699219h-21.398437zm0 0"/><path d="m48.296875 310.300781h10.699219v10.699219h-10.699219zm0 0"/></svg>