<?xml version="1.0" encoding="iso-8859-1"?>
<!-- Generator: Adobe Illustrator 19.0.0, SVG Export Plug-In . SVG Version: 6.00 Build 0)  -->
<svg version="1.1" id="Capa_1" xmlns="http://www.w3.org/2000/svg" xmlns:xlink="http://www.w3.org/1999/xlink" x="0px" y="0px"
	 viewBox="0 0 511.999 511.999" style="enable-background:new 0 0 511.999 511.999;" xml:space="preserve">
<path style="fill:#009796;" d="M399.299,44.28C388.815,19.492,361.921,5.886,335.518,11.1l-48.594,11.209
	c-10.185,2.012-20.542,3.025-30.924,3.025l0,0c-10.382,0-20.739-1.013-30.924-3.025L176.482,11.1
	c-26.403-5.215-53.298,8.391-63.782,33.178c-2.922,6.908-4.538,14.504-4.538,22.476V188.11h295.674V66.756
	C403.836,58.783,402.221,51.188,399.299,44.28z"/>
<path style="fill:#34C7B4;" d="M73.26,212.876L73.26,212.876c0,13.677,11.087,24.764,24.764,24.764h315.951
	c13.677,0,24.764-11.087,24.764-24.764l0,0c0-13.677-11.087-24.764-24.764-24.764H98.024
	C84.347,188.111,73.26,199.199,73.26,212.876z"/>
<path style="fill:#DD976D;" d="M376.233,435.403c-15.938,0-41.085-35.06-84.649-35.06c-0.443,0-0.883,0.006-1.323,0.017
	c-14.888,0.384-27.144,7.062-34.261,16.526c-7.118-9.464-19.373-16.141-34.261-16.526c-0.439-0.011-0.88-0.017-1.322-0.017
	c-43.564,0-68.711,35.06-84.649,35.06s-38.692-7.818-38.692-7.818s20.839,58.358,64.547,71.073
	c31.974,9.302,77.58-1.114,94.378-27.345c16.798,26.231,62.404,36.647,94.378,27.345c43.708-12.715,64.547-71.073,64.547-71.073
	S392.171,435.403,376.233,435.403z"/>
<path d="M325.385,511.999c-10.122,0-20.526-1.346-30.491-4.034c-15.891-4.286-29.284-11.562-38.895-20.976
	c-9.609,9.415-23.003,16.69-38.895,20.976c-19.551,5.274-40.794,5.381-58.277,0.295c-48.061-13.981-70.25-74.733-71.172-77.312
	c-1.292-3.619-0.396-7.658,2.305-10.392c2.7-2.733,6.731-3.677,10.362-2.429c0.209,0.072,21.394,7.275,35.442,7.275
	c2.926,0,10.624-5.241,16.81-9.453c15.873-10.807,37.613-25.607,67.839-25.607c0.529,0,1.055,0.007,1.578,0.021
	c12.984,0.335,24.879,4.667,34.006,12.175c9.126-7.508,21.021-11.84,34.004-12.175c0.525-0.014,1.051-0.021,1.58-0.021
	c30.226,0,51.966,14.801,67.839,25.607c6.186,4.211,13.884,9.453,16.81,9.453c14.049,0,35.233-7.204,35.446-7.276
	c3.631-1.245,7.661-0.3,10.359,2.434c2.699,2.733,3.595,6.771,2.304,10.388c-0.922,2.579-23.111,63.331-71.172,77.312
	C344.599,510.754,335.123,511.999,325.385,511.999z M255.999,461.312c3.409,0,6.583,1.736,8.421,4.607
	c14.623,22.833,55.966,31.048,83.164,23.135c23.567-6.856,39.97-29.563,49.158-46.177c-6.7,1.413-14.03,2.524-20.51,2.524
	c-9.088,0-17.462-5.702-28.065-12.92c-14.487-9.864-32.519-22.14-56.583-22.14c-0.357,0-0.713,0.005-1.066,0.014
	c-10.915,0.282-20.832,4.97-26.525,12.54c-1.89,2.512-4.85,3.989-7.992,3.989c-3.142,0-6.103-1.478-7.992-3.989
	c-5.693-7.57-15.61-12.258-26.527-12.54c-0.352-0.009-0.707-0.014-1.064-0.014c-24.063,0-42.096,12.276-56.583,22.14
	c-10.604,7.219-18.978,12.92-28.065,12.92c-6.466,0-13.777-1.106-20.466-2.515c9.221,16.624,25.646,39.341,49.114,46.168
	c27.2,7.912,68.541-0.301,83.164-23.135C249.416,463.049,252.59,461.312,255.999,461.312z"/>
<path d="M325.408,472.001c-18.697,0-38.089-7.409-44.146-16.867c-2.979-4.651-1.623-10.835,3.027-13.814
	c4.594-2.942,10.683-1.656,13.702,2.855c2.064,2.281,13.004,7.826,27.415,7.826c5.522,0,10,4.477,10,10
	C335.408,467.524,330.931,472.001,325.408,472.001z M298.102,444.342c0.002,0.002,0.003,0.004,0.004,0.006
	C298.105,444.346,298.104,444.344,298.102,444.342z M186.591,472.001c-5.522,0-10-4.477-10-10c0-5.523,4.478-10,10-10
	c14.411,0,25.351-5.544,27.415-7.826c3.019-4.512,9.105-5.799,13.702-2.855c4.65,2.979,6.006,9.163,3.027,13.814
	C224.679,464.592,205.288,472.001,186.591,472.001z M213.898,444.342c-0.002,0.002-0.003,0.004-0.004,0.006
	C213.895,444.346,213.896,444.345,213.898,444.342z"/>
<path d="M361.461,163.097c-0.66,0-1.311-0.07-1.96-0.2c-0.641-0.13-1.271-0.32-1.87-0.57c-0.599-0.25-1.18-0.56-1.73-0.92
	c-0.54-0.36-1.05-0.78-1.52-1.24c-0.46-0.46-0.88-0.98-1.24-1.52c-0.359-0.55-0.67-1.13-0.92-1.73c-0.25-0.6-0.439-1.23-0.57-1.87
	c-0.13-0.65-0.199-1.3-0.199-1.95c0-0.66,0.069-1.31,0.199-1.96c0.131-0.64,0.32-1.27,0.57-1.87c0.25-0.6,0.561-1.18,0.92-1.72
	c0.36-0.55,0.78-1.06,1.24-1.52c0.47-0.47,0.979-0.88,1.52-1.25c0.551-0.36,1.131-0.67,1.73-0.92c0.599-0.25,1.229-0.44,1.87-0.57
	c1.29-0.26,2.62-0.26,3.91,0c0.64,0.13,1.27,0.32,1.87,0.57c0.6,0.25,1.18,0.56,1.729,0.92c0.54,0.37,1.05,0.78,1.51,1.25
	c1.87,1.85,2.931,4.43,2.931,7.07c0,0.65-0.061,1.3-0.19,1.95c-0.13,0.64-0.32,1.27-0.57,1.87c-0.25,0.6-0.56,1.18-0.92,1.73
	c-0.37,0.54-0.779,1.06-1.25,1.52c-0.46,0.46-0.97,0.88-1.51,1.24c-0.55,0.36-1.13,0.67-1.729,0.92c-0.601,0.25-1.23,0.44-1.87,0.57
	C362.761,163.027,362.111,163.097,361.461,163.097z"/>
<path d="M413.976,178.111h-0.139V66.756c0-9.14-1.793-18.013-5.328-26.372C396.32,11.563,364.803-4.878,333.579,1.29
	c-0.104,0.021-0.207,0.042-0.311,0.066l-48.437,11.173c-18.949,3.722-38.718,3.722-57.667,0L178.73,1.356
	c-0.104-0.024-0.207-0.046-0.311-0.066c-31.224-6.17-62.741,10.273-74.929,39.093c-3.535,8.356-5.328,17.229-5.328,26.373v111.356
	h-0.139c-19.169,0-34.764,15.595-34.764,34.764s15.595,34.764,34.764,34.764h315.952c19.169,0,34.764-15.595,34.764-34.764
	S433.145,178.111,413.976,178.111z M118.163,163.094h206.293c5.522,0,10-4.477,10-10s-4.478-10-10-10H118.163V66.756
	c0-6.451,1.261-12.702,3.748-18.581c8.498-20.093,30.548-31.551,52.485-27.292l48.432,11.172c0.104,0.024,0.207,0.046,0.311,0.066
	c21.594,4.265,44.13,4.265,65.724,0c0.104-0.021,0.207-0.042,0.311-0.066l48.432-11.172c21.929-4.26,43.987,7.199,52.485,27.292
	c2.487,5.88,3.748,12.132,3.748,18.581v111.356H118.164L118.163,163.094L118.163,163.094z M413.976,227.641H98.024
	c-8.141,0-14.764-6.623-14.764-14.764c0-8.141,6.623-14.764,14.764-14.764h315.951c8.141,0,14.764,6.623,14.764,14.764
	C428.74,221.018,422.117,227.641,413.976,227.641z"/>
<g>
	<path style="fill:#C9FDFB;" d="M98.221,276.472c-1.849,6.325-2.841,13.016-2.841,19.938c0,39.176,31.758,70.933,70.933,70.933
		c39.176,0,70.934-31.758,70.934-70.933c0-6.923-0.992-13.613-2.841-19.938H98.221z"/>
	<path style="fill:#C9FDFB;" d="M277.593,276.472c-1.849,6.325-2.841,13.016-2.841,19.938c0,39.176,31.758,70.933,70.933,70.933
		c39.176,0,70.934-31.758,70.934-70.933c0-6.923-0.992-13.613-2.841-19.938H277.593z"/>
</g>
<path d="M423.375,273.665c-1.246-4.263-5.156-7.193-9.598-7.193H277.593c-4.441,0-8.352,2.93-9.598,7.193
	c-1.061,3.626-1.863,7.324-2.405,11.068c-3.035-1.011-6.264-1.553-9.591-1.553c-3.329,0-6.558,0.541-9.591,1.549
	c-0.541-3.741-1.343-7.437-2.403-11.063c-1.246-4.264-5.156-7.195-9.599-7.195H98.221c-4.442,0-8.353,2.931-9.599,7.195
	c-2.15,7.359-3.241,15.011-3.241,22.744c0,44.627,36.307,80.933,80.933,80.933c39.76,0,72.916-28.819,79.674-66.666
	c1.289-4.428,5.365-7.497,10.011-7.497c4.636,0,8.72,3.07,10.01,7.493c6.757,37.849,39.913,66.671,79.674,66.671
	c44.627,0,80.934-36.306,80.934-80.933C426.618,288.676,425.528,281.024,423.375,273.665z M166.314,357.344
	c-33.598,0-60.933-27.334-60.933-60.933c0-3.345,0.27-6.668,0.806-9.938h120.255c0.535,3.271,0.806,6.594,0.806,9.938
	C227.247,330.009,199.913,357.344,166.314,357.344z M345.685,357.344c-33.598,0-60.933-27.334-60.933-60.933
	c0-3.346,0.27-6.668,0.806-9.938h120.255c0.536,3.27,0.806,6.593,0.806,9.938C406.618,330.009,379.284,357.344,345.685,357.344z"/>
<path d="M133.331,329.333c-2.56,0-5.118-0.976-7.071-2.929c-3.905-3.905-3.905-10.237,0-14.143l18.367-18.367
	c3.906-3.905,10.236-3.905,14.143,0c3.905,3.905,3.905,10.237,0,14.143l-18.367,18.367
	C138.449,328.357,135.891,329.333,133.331,329.333z"/>
<path d="M317.333,329.333c-2.56,0-5.118-0.976-7.071-2.929c-3.905-3.905-3.905-10.237,0-14.143l18.367-18.367
	c3.906-3.905,10.236-3.905,14.143,0c3.905,3.905,3.905,10.237,0,14.143l-18.367,18.367
	C322.451,328.357,319.893,329.333,317.333,329.333z"/>
<g>
</g>
<g>
</g>
<g>
</g>
<g>
</g>
<g>
</g>
<g>
</g>
<g>
</g>
<g>
</g>
<g>
</g>
<g>
</g>
<g>
</g>
<g>
</g>
<g>
</g>
<g>
</g>
<g>
</g>
</svg>
