<?xml version="1.0" encoding="utf-8"?>
<!-- Generator: Adobe Illustrator 16.0.0, SVG Export Plug-In . SVG Version: 6.00 Build 0)  -->
<!DOCTYPE svg PUBLIC "-//W3C//DTD SVG 1.1//EN" "http://www.w3.org/Graphics/SVG/1.1/DTD/svg11.dtd">
<svg version="1.1" id="Capa_1" xmlns="http://www.w3.org/2000/svg" xmlns:xlink="http://www.w3.org/1999/xlink" x="0px" y="0px"
	 width="150px" height="150px" viewBox="0 0 150 150" enable-background="new 0 0 150 150" xml:space="preserve">
<path fill="#C10000" d="M82.5,147.5h65V2.5h-65V40"/>
<path fill="#CC0000" d="M86.842,74.58c-1.498-3.073-5.203-4.349-8.276-2.85c-0.022,0.011-0.044,0.021-0.065,0.033l-11.025,5.583
	L66.768,77.4l-6.22-10.5c8.087,0.071,14.7-6.426,14.771-14.513c0.071-8.086-6.426-14.7-14.513-14.771
	c-8.087-0.071-14.7,6.426-14.771,14.513c-0.033,3.801,1.413,7.467,4.033,10.221l-4.032-1.75l-20.89,8.817
	c-1.899,0.747-3.316,2.37-3.8,4.353l-4.148,16.8c-0.844,3.357,1.175,6.768,4.525,7.64c3.328,0.829,6.698-1.196,7.527-4.524
	c0.005-0.02,0.01-0.04,0.015-0.061L32.627,80l11.335-4.703l-4.145,23.1l-14.795,16.577l-12.208-10.816
	c-2.541-2.264-6.434-2.038-8.697,0.502c-0.026,0.029-0.052,0.061-0.078,0.09c-2.263,2.627-2.002,6.582,0.585,8.891L21.21,128.34
	c2.456,2.188,6.198,2.062,8.5-0.287L47,110.529l15.015,9.129l9.555,19.357c1.04,2.127,3.199,3.479,5.568,3.484
	c0.966,0,1.917-0.229,2.777-0.668c3.08-1.584,4.319-5.348,2.782-8.452l-10.367-21c-0.527-1.067-1.346-1.964-2.363-2.585
	L53.08,99.545L56.6,83.5l2.53,5.127c1.041,2.128,3.2,3.479,5.567,3.485c0.966,0,1.917-0.229,2.778-0.667l16.585-8.4
	C87.148,81.461,88.389,77.688,86.842,74.58L86.842,74.58z"/>
<path d="M147.5,0h-65C81.119,0,80,1.119,80,2.5V40c0,1.381,1.119,2.5,2.5,2.5S85,41.381,85,40V5h60v140H2.5
	c-1.381,0-2.5,1.119-2.5,2.5s1.119,2.5,2.5,2.5h145c1.381,0,2.5-1.119,2.5-2.5V2.5C150,1.119,148.881,0,147.5,0z"/>
<path d="M84.939,132.275l-10.367-21c-0.736-1.494-1.882-2.747-3.305-3.613l-15.363-9.337l1.643-7.479
	c2.458,3.577,7.185,4.783,11.058,2.822l16.584-8.418c4.293-2.211,6.026-7.451,3.898-11.785c-1.027-2.099-2.857-3.695-5.075-4.43
	c-2.191-0.733-4.586-0.553-6.643,0.5l-9.5,4.813L64.64,68.9c9.199-2.197,14.875-11.437,12.677-20.635
	C75.12,39.065,65.881,33.39,56.682,35.587c-9.199,2.198-14.875,11.437-12.677,20.635c0.181,0.757,0.413,1.501,0.695,2.228
	l-20.45,8.64c-2.658,1.041-4.643,3.31-5.32,6.083l-4.147,16.8c-1.164,4.688,1.66,9.441,6.335,10.66
	c2.23,0.574,4.598,0.227,6.57-0.963c2.016-1.203,3.463-3.166,4.018-5.447l3.045-12.395l5.942-2.466l-3.212,17.9l-12.663,14.19
	l-10.345-9.166c-3.577-3.18-9.054-2.857-12.233,0.72c-0.032,0.036-0.063,0.071-0.094,0.108c-3.139,3.665-2.773,9.166,0.822,12.385
	l16.583,14.7c3.487,2.961,8.653,2.786,11.933-0.403l15.908-16.111l12.705,7.717l9.232,18.713c1.452,2.989,4.484,4.887,7.807,4.885
	c1.359,0.002,2.699-0.32,3.91-0.938C85.339,141.852,87.072,136.609,84.939,132.275L84.939,132.275z M78.787,139.603
	c-1.843,0.888-4.058,0.135-4.977-1.692l-9.56-19.36c-0.209-0.427-0.536-0.784-0.942-1.03l-15.015-9.127
	c-0.991-0.602-2.264-0.443-3.078,0.383l-17.297,17.521c-1.387,1.358-3.581,1.434-5.058,0.174L6.277,111.77
	c-1.563-1.4-1.719-3.794-0.353-5.387c1.314-1.539,3.628-1.723,5.167-0.408c0.021,0.018,0.041,0.035,0.061,0.053l12.208,10.818
	c1.03,0.912,2.605,0.82,3.522-0.205l14.795-16.576c0.307-0.344,0.513-0.768,0.595-1.223l4.145-23.1
	c0.239-1.36-0.67-2.656-2.03-2.894C43.92,72.766,43.438,72.819,43,73l-11.335,4.703c-0.734,0.305-1.28,0.939-1.47,1.712
	l-3.357,13.61c-0.236,0.985-0.86,1.834-1.73,2.354c-0.829,0.505-1.828,0.651-2.768,0.405c-2.018-0.533-3.229-2.593-2.715-4.615
	l4.147-16.805c0.301-1.212,1.176-2.2,2.343-2.645l19.905-8.4l3.052,1.323c1.27,0.543,2.739-0.046,3.282-1.315
	c0.389-0.909,0.206-1.961-0.467-2.685c-2.156-2.279-3.356-5.298-3.353-8.435c0.102-6.635,5.563-11.931,12.198-11.829
	c6.635,0.103,11.931,5.564,11.829,12.199c-0.101,6.563-5.451,11.831-12.015,11.83c-1.381-0.001-2.501,1.117-2.502,2.498
	c0,0.449,0.121,0.891,0.35,1.277l6.223,10.5c0.49,0.817,1.398,1.288,2.348,1.218l0.708-0.055c0.325-0.027,0.642-0.116,0.932-0.264
	L79.627,74c0.868-0.447,1.881-0.522,2.805-0.208c0.947,0.316,1.729,0.999,2.168,1.895c0.933,1.877,0.189,4.154-1.67,5.12
	L66.345,89.21c-1.847,0.882-4.059,0.121-4.973-1.71l-2.532-5.127c-0.46-0.961-1.487-1.517-2.542-1.375
	c-1.055,0.128-1.913,0.909-2.14,1.947L50.64,99c-0.228,1.043,0.23,2.115,1.143,2.67l16.89,10.266
	c0.609,0.374,1.101,0.913,1.417,1.555l10.365,21C81.381,136.364,80.641,138.635,78.787,139.603L78.787,139.603z"/>
<path d="M95,77.5c0,1.381,1.119,2.5,2.5,2.5h26.465l-5.732,5.732c-0.993,0.959-1.021,2.542-0.061,3.535
	c0.959,0.993,2.541,1.021,3.534,0.061c0.021-0.02,0.042-0.039,0.062-0.061l10-10c0.977-0.977,0.977-2.559,0-3.535l-10-10
	c-0.993-0.959-2.576-0.932-3.535,0.062c-0.936,0.969-0.936,2.504,0,3.474L123.965,75H97.5C96.119,75,95,76.119,95,77.5L95,77.5z"/>
<path d="M80,95v17.5c0,1.381,1.119,2.5,2.5,2.5s2.5-1.119,2.5-2.5V95c0-1.381-1.119-2.5-2.5-2.5S80,93.619,80,95z"/>
<path d="M82.5,65c1.381,0,2.5-1.119,2.5-2.5V60c0-1.381-1.119-2.5-2.5-2.5S80,58.619,80,60v2.5C80,63.881,81.119,65,82.5,65z"/>
</svg>
