<?xml version="1.0" encoding="utf-8"?>
<!-- Generator: Adobe Illustrator 16.0.0, SVG Export Plug-In . SVG Version: 6.00 Build 0)  -->
<!DOCTYPE svg PUBLIC "-//W3C//DTD SVG 1.1//EN" "http://www.w3.org/Graphics/SVG/1.1/DTD/svg11.dtd">
<svg version="1.1" id="Layer_1" xmlns="http://www.w3.org/2000/svg" xmlns:xlink="http://www.w3.org/1999/xlink" x="0px" y="0px"
	 width="512px" height="512px" viewBox="0 0 512 512" enable-background="new 0 0 512 512" xml:space="preserve">
<path fill="#808080" d="M143.902,300.148c-10.938-24.395-35.438-41.387-63.902-41.387c-38.66,0-70,31.34-70,70
	c0,38.659,31.34,69.999,70,69.999c35.266,0,64.434-26.078,69.285-59.999h-32.617c-4.391,16.132-19.141,27.999-36.668,27.999
	c-20.988,0-38-17.016-38-37.999c0-20.988,17.012-38,38-38c13.719,0,25.734,7.27,32.418,18.164L143.902,300.148z"/>
<path fill="#F9F9F9" d="M112.418,308.926l-20.105,5.602C79.27,318.16,77.027,327.227,80,338.762h100.039
	c0-19.934,2.625-36.617,7.273-50.711l-43.41,12.098L112.418,308.926z"/>
<path fill="#CECECE" d="M187.313,288.051c-4.648,14.094-7.273,30.777-7.273,50.711l145.941-0.004
	c0-15.633,2.145-29.441,5.938-41.652l-107.703-60.653c-8.195,6.184-15.664,13.457-22.031,22.215
	C196.125,267.004,191.063,276.684,187.313,288.051z"/>
<path fill="#F9F9F9" d="M224.215,236.453l107.703,60.657c5.66-18.211,14.992-32.852,26.367-44.665l-63.203-48.688
	c-10.031,3.395-20.297,6.871-30.363,10.891C250.406,220.367,236.492,227.191,224.215,236.453z"/>
<path fill="#CECECE" d="M295.082,203.757l63.203,48.688c9.379-9.734,20.148-17.543,31.395-23.84
	c28.07-15.711,59.117-21.984,78.949-25.188c-0.5-31.43,8.309-51.695-95.125-104.656c0,46.629-2.754,68.113-26.316,83.098
	c-0.086,0.059-0.176,0.113-0.266,0.172C332.492,191.121,314.211,197.289,295.082,203.757z"/>
<path fill="#808080" d="M417.207,293.746c4.547-1.922,9.547-2.984,14.793-2.984c20.988,0,38,17.012,38,38
	c0,20.983-17.012,37.999-38,37.999s-38-17.016-38-37.999C394,313.023,403.57,299.516,417.207,293.746z M432,258.762
	c-9.664,0-18.875,1.957-27.25,5.5c-25.121,10.629-42.75,35.504-42.75,64.5c0,38.659,31.34,69.999,70,69.999s70-31.34,70-69.999
	C502,290.102,470.66,258.762,432,258.762z"/>
<path fill="#808080" d="M224.215,236.453c12.277-9.262,26.191-16.086,40.504-21.805l-72.074-16.953L125.75,181.96l-21.941-30.293
	c-46.73-6.691-58.145-3.223-63.109,16.055l161.484,90.946C208.551,249.91,216.02,242.636,224.215,236.453z"/>
<path fill="#EFEFEF" d="M192.645,197.695l72.074,16.953c10.066-4.02,20.332-7.496,30.363-10.891
	c19.129-6.469,37.41-12.637,51.84-21.727c0.09-0.059,0.18-0.113,0.27-0.172C239.91,129.109,222.977,133.39,192.645,197.695z"/>
<path fill="#808080" d="M369.324,151.652l97.117,21.418c-5.594-18.957-25.188-39.621-92.938-74.309
	C373.504,121.765,372.836,138.648,369.324,151.652z"/>
<path d="M432,248.761c-7.512,0-14.777,1.063-21.676,3.008l-7.754-18.355c18.664-9.137,41.227-15.855,67.656-20.125
	c4.902-0.793,8.48-5.063,8.402-10.031c-0.035-2.309-0.02-4.621-0.004-6.859c0.102-14.527,0.207-29.551-13.883-47.145
	c-14.09-17.598-40.824-35.914-86.68-59.395c-3.098-1.586-6.801-1.445-9.773,0.371s-4.785,5.047-4.785,8.531
	c0,42.387-2.512,59.758-17.246,71.508c-58.875-28.719-91.84-40.699-117.016-31.895c-18.035,6.313-29.574,22.355-42.121,47.75
	l-59.082-13.898c-5.379-1.266-10.758,2.066-12.023,7.445c-1.266,5.375,2.066,10.758,7.445,12.023l111.148,26.145
	c-5.367,3.027-10.59,6.367-15.59,10.074c-0.531,0.324-1.035,0.699-1.504,1.125c-6.395,4.883-12.398,10.41-17.848,16.734
	L53.113,163.238c2.477-3.25,7.41-4.988,19.684-4.66c0.504,0.012,1.02,0.031,1.539,0.051c5.508,0.219,10.168-4.078,10.391-9.598
	c0.219-5.52-4.078-10.168-9.598-10.387c-0.609-0.027-1.207-0.047-1.801-0.063c-24.984-0.645-37.27,7.063-42.313,26.648
	c-1.133,4.387,0.828,8.984,4.773,11.207l152.203,85.715c-3.152,5.41-5.961,11.277-8.371,17.66l-30.578,8.523
	c-14.242-24.293-40.484-39.575-69.043-39.575c-44.113,0-80,35.887-80,80c0,44.108,35.887,79.999,80,79.999
	c19.371,0,38.063-7.016,52.629-19.75c12.207-10.672,20.816-24.738,24.82-40.25H325.98c5.523,0,10-4.476,10-9.999
	c0-41.574,16.469-73.43,49.113-95.317l6.816,16.133C368.074,273.445,352,299.254,352,328.762c0,44.112,35.891,79.999,80,79.999
	c6.992,0,13.957-0.918,20.707-2.727c5.336-1.43,8.5-6.91,7.07-12.246s-6.914-8.504-12.246-7.07
	c-5.063,1.355-10.285,2.043-15.531,2.043c-33.082,0-60-26.918-60-59.999c0-21.23,11.094-39.902,27.777-50.57l4.75,11.246
	C392.129,298.125,384,312.508,384,328.762c0,26.464,21.535,47.999,48,47.999c26.469,0,48-21.535,48-47.999c0-26.469-21.531-48-48-48
	c-3.098,0-6.121,0.305-9.059,0.867l-4.75-11.246c4.438-1.047,9.055-1.621,13.809-1.621c33.086,0,60,26.918,60,60
	c0,5.242-0.688,10.469-2.043,15.527c-1.43,5.335,1.734,10.819,7.07,12.249c5.332,1.426,10.816-1.738,12.246-7.07
	c1.813-6.749,2.727-13.718,2.727-20.706C512,284.648,476.113,248.761,432,248.761z M446.188,158.363l-64.973-14.328
	c1.375-8.625,1.941-18.188,2.16-28.816C417.273,133.417,435.93,146.91,446.188,158.363z M207.129,190.828
	c9.352-18.305,17.711-29.723,28.719-33.574c16.813-5.883,44.836,3.91,89.039,24.918c-10.035,4.344-21.238,8.133-32.84,12.059
	c-0.039,0.012-0.078,0.023-0.113,0.035c-0.008,0.004-0.016,0.008-0.023,0.008c-9.063,3.066-18.496,6.262-27.918,9.93
	L207.129,190.828z M326.516,282.59l-83.09-46.793c15.313-8.816,32.551-14.984,49.793-20.848l50.469,38.875
	C336.617,262.594,330.891,272.188,326.516,282.59z M170.262,328.762H88.984c0.641-2.898,2.922-3.738,6.012-4.602l78.316-21.824
	C171.734,310.457,170.691,319.238,170.262,328.762z M70.316,341.254c1.137,4.417,5.121,7.507,9.684,7.507h19.559
	c-5.113,4.984-12.063,8-19.559,8c-15.438,0-28-12.562-28-27.999c0-15.441,12.563-28,28-28c4.637,0,9.07,1.129,13.008,3.191
	l-3.383,0.941C72.621,309.633,65.582,322.887,70.316,341.254z M80,388.757c-33.086,0-60-26.914-60-59.999c0-33.082,26.914-60,60-60
	c19.602,0,37.742,9.605,48.871,25.199l-12.508,3.484C107.32,286.895,94.211,280.758,80,280.758c-26.469,0-48,21.535-48,48
	c0,26.468,21.531,47.999,48,47.999c18.949,0,35.93-11.191,43.641-28h12.918C128.223,372.206,105.664,388.757,80,388.757z
	 M190.281,328.762c1.961-39.242,15.586-63.586,34.977-80.243l94.914,53.45c-2.063,8.492-3.371,17.418-3.91,26.789L190.281,328.762z
	 M357.539,239.246l-41.66-32.086c13.227-4.758,25.602-9.883,36.375-16.668c0.184-0.117,0.359-0.242,0.547-0.359
	c0.066-0.043,0.137-0.086,0.203-0.133c11.313-7.309,18.445-16.063,22.93-26.648l81.984,18.082c0.711,4.445,0.742,8.875,0.715,13.531
	c-16.566,2.988-46.215,9.609-73.48,24.738c-0.211,0.105-0.414,0.219-0.613,0.336c-3.09,1.734-6.148,3.57-9.152,5.527
	C368.906,229.792,362.965,234.359,357.539,239.246z M432,300.758c15.441,0,28,12.563,28,28c0,15.441-12.559,27.999-28,27.999
	c-15.438,0-28-12.558-28-27.999c0-7.922,3.313-15.078,8.617-20.176l10.172,24.07c1.613,3.816,5.316,6.109,9.215,6.109
	c1.301,0,2.617-0.254,3.891-0.793c5.086-2.148,7.469-8.016,5.316-13.102l-10.176-24.086
	C431.355,300.773,431.676,300.758,432,300.758z"/>
<path d="M102.063,161.523l0.34,0.047c0.477,0.066,0.949,0.102,1.418,0.102c4.898,0,9.18-3.605,9.891-8.594
	c0.777-5.469-3.023-10.531-8.492-11.309l-0.402-0.059c-5.469-0.762-10.523,3.059-11.281,8.531
	C92.773,155.71,96.594,160.761,102.063,161.523z"/>
<path d="M496,372.761c0,5.523-4.477,10-10,10s-10-4.477-10-10s4.477-10,10-10S496,367.237,496,372.761z"/>
<line fill="none" stroke="#DD0000" stroke-width="35" stroke-miterlimit="10" x1="43.24" y1="456.637" x2="468.718" y2="31.178"/>
<line fill="none" stroke="#DD0000" stroke-width="35" stroke-miterlimit="10" x1="468.718" y1="447.637" x2="72.724" y2="51.645"/>
</svg>
