<svg height="321pt" viewBox="0 -11 321.36411 321" width="321pt" xmlns="http://www.w3.org/2000/svg"><path d="m160.5 273.019531-133.75-53.5v-101.648437l-21.398438-112.351563 155.148438 53.5zm0 0" fill="#aabece"/><path d="m160.5 273.019531 133.75-53.5v-101.648437l21.398438-112.351563-155.148438 53.5zm0 0" fill="#cfdfe8"/><path d="m204.542969 43.832031-4.5-22.507812c-1.21875-6.078125-6.554688-10.453125-12.753907-10.453125-3.449218 0-6.757812 1.371094-9.199218 3.808594l-3.082032 3.082031c-2.4375 2.4375-5.746093 3.808593-9.195312 3.808593h-10.625c-3.449219 0-6.757812-1.371093-9.195312-3.808593l-3.082032-3.082031c-2.4375-2.4375-5.746094-3.808594-9.195312-3.808594-6.203125 0-11.539063 4.375-12.753906 10.453125l-4.5 22.507812 44.039062 15.1875zm0 0" fill="#d3843d"/><path d="m80.25 240.917969-5.351562 53.503906h80.25l5.351562-10.703125 5.351562 10.703125h80.246094l-5.347656-53.503906-80.25 32.101562zm0 0" fill="#d3843d"/><path d="m5.351562 117.871094h42.796876v37.449218h-42.796876zm0 0" fill="#ffd782"/><path d="m272.851562 117.871094h42.796876v37.449218h-42.796876zm0 0" fill="#ffd782"/><path d="m139.097656 80.421875c-.601562 0-1.199218-.101563-1.765625-.300781l-107-37.453125c-2.789062-.976563-4.257812-4.027344-3.28125-6.816407.976563-2.789062 4.027344-4.257812 6.816407-3.28125l107 37.449219c2.789062.976563 4.257812 4.03125 3.28125 6.820313-.75 2.144531-2.777344 3.582031-5.050782 3.582031zm0 0" fill="#cfdfe8"/><path d="m64.199219 75.074219c-.683594-.003907-1.355469-.132813-1.988281-.386719l-26.75-10.699219c-2.738282-1.105469-4.066407-4.222656-2.960938-6.964843 1.097656-2.730469 4.199219-4.058594 6.9375-2.972657l26.75 10.699219c2.742188 1.101562 4.078125 4.214844 2.980469 6.960938-.8125 2.03125-2.78125 3.363281-4.96875 3.363281zm0 0" fill="#cfdfe8"/><path d="m64.199219 96.472656c-.683594 0-1.355469-.132812-1.988281-.382812l-26.75-10.699219c-2.738282-1.105469-4.066407-4.222656-2.960938-6.964844 1.097656-2.734375 4.199219-4.0625 6.9375-2.972656l26.75 10.699219c2.742188 1.097656 4.078125 4.210937 2.980469 6.957031-.8125 2.03125-2.78125 3.363281-4.96875 3.363281zm0 0" fill="#cfdfe8"/><path d="m85.601562 80.421875v69.546875l53.496094 21.402344v-69.550782zm0 0" fill="#cfdfe8"/><path d="m139.097656 198.121094c-.679687 0-1.355468-.128906-1.984375-.382813l-53.503906-21.398437c-2.738281-1.105469-4.066406-4.226563-2.957031-6.964844 1.097656-2.730469 4.199218-4.058594 6.933594-2.972656l53.503906 21.398437c2.742187 1.097657 4.078125 4.214844 2.976562 6.957031-.8125 2.03125-2.78125 3.367188-4.96875 3.363282zm0 0" fill="#cfdfe8"/><path d="m139.097656 219.523438c-.699218 0-1.390625-.136719-2.035156-.40625l-90.949219-37.449219c-2.734375-1.125-4.035156-4.253907-2.910156-6.984375 1.125-2.734375 4.253906-4.035156 6.984375-2.910156l90.949219 37.449218c2.734375 1.125 4.035156 4.253906 2.910156 6.988282-.824219 2.003906-2.78125 3.3125-4.949219 3.3125zm0 0" fill="#cfdfe8"/><path d="m139.097656 240.921875c-.699218 0-1.390625-.136719-2.035156-.402344l-90.949219-37.453125c-2.734375-1.125-4.035156-4.253906-2.910156-6.984375 1.125-2.734375 4.253906-4.035156 6.984375-2.910156l90.949219 37.449219c2.734375 1.125 4.035156 4.253906 2.910156 6.988281-.824219 2.003906-2.78125 3.3125-4.949219 3.3125zm0 0" fill="#cfdfe8"/><g fill="#aabece"><path d="m181.898438 80.421875c-2.953126 0-5.347657-2.398437-5.347657-5.351563 0-2.273437 1.433594-4.296874 3.578125-5.050781l107-37.449219c2.789063-.976562 5.84375.492188 6.820313 3.28125.976562 2.789063-.492188 5.84375-3.28125 6.820313l-107 37.449219c-.570313.199218-1.164063.300781-1.769531.300781zm0 0"/><path d="m181.902344 176.722656c-2.957032 0-5.351563-2.394531-5.355469-5.351562 0-2.1875 1.332031-4.15625 3.363281-4.96875l80.25-32.101563c2.746094-1.089843 5.859375.25 6.949219 3 1.089844 2.734375-.242187 5.835938-2.972656 6.9375l-80.25 32.097657c-.628907.253906-1.304688.386718-1.984375.386718zm0 0"/><path d="m181.902344 198.121094c-2.957032.003906-5.351563-2.394532-5.355469-5.351563 0-2.1875 1.332031-4.15625 3.363281-4.96875l80.25-32.097656c2.742188-1.105469 5.859375.222656 6.964844 2.964844 1.101562 2.742187-.226562 5.859375-2.964844 6.960937-.007812.003906-.015625.007813-.023437.007813l-80.25 32.101562c-.628907.253907-1.304688.382813-1.984375.382813zm0 0"/><path d="m181.902344 219.523438c-2.957032 0-5.351563-2.394532-5.355469-5.351563 0-2.1875 1.332031-4.15625 3.363281-4.96875l80.25-32.101563c2.742188-1.101562 5.859375.226563 6.964844 2.964844 1.101562 2.742188-.226562 5.859375-2.964844 6.964844-.007812.003906-.015625.003906-.023437.007812l-80.25 32.097657c-.628907.253906-1.304688.382812-1.984375.386719zm0 0"/><path d="m181.902344 240.921875c-2.957032 0-5.351563-2.394531-5.355469-5.351563 0-2.1875 1.332031-4.15625 3.363281-4.96875l80.25-32.101562c2.742188-1.101562 5.859375.226562 6.964844 2.96875 1.101562 2.742188-.226562 5.859375-2.964844 6.960938-.007812.003906-.015625.007812-.023437.007812l-80.25 32.101562c-.628907.25-1.304688.382813-1.984375.382813zm0 0"/><path d="m181.898438 101.824219c-2.953126-.003907-5.347657-2.398438-5.347657-5.355469 0-2.273438 1.433594-4.296875 3.578125-5.046875l107-37.453125c2.789063-.976562 5.84375.496094 6.820313 3.28125.976562 2.789062-.492188 5.84375-3.28125 6.820312l-107 37.449219c-.570313.199219-1.164063.300781-1.769531.304688zm0 0"/><path d="m181.898438 117.871094v32.097656l37.449218-16.046875v-32.101563zm0 0"/><path d="m235.398438 112.523438c-2.953126-.003907-5.351563-2.398438-5.347657-5.355469 0-2.230469 1.382813-4.226563 3.46875-5.007813l42.800781-16.050781c2.761719-1.054687 5.855469.328125 6.910157 3.089844 1.054687 2.761719-.332031 5.851562-3.089844 6.90625-.023437.007812-.042969.015625-.0625.023437l-42.800781 16.050782c-.601563.226562-1.238282.339843-1.878906.34375zm0 0"/></g><path d="m139.097656 80.421875c2.957032 0 5.351563-2.398437 5.351563-5.351563 0-2.273437-1.4375-4.296874-3.582031-5.050781l-107-37.449219c-2.789063-.976562-5.839844.492188-6.816407 3.28125-.976562 2.789063.492188 5.84375 3.28125 6.820313l107 37.449219c.566407.199218 1.164063.300781 1.765625.300781zm0 0"/><path d="m39.4375 54.050781c-2.746094-1.089843-5.859375.25-6.949219 3-1.085937 2.734375.242188 5.835938 2.976563 6.9375l26.746094 10.699219c2.742187 1.105469 5.859374-.222656 6.964843-2.964844 1.105469-2.738281-.222656-5.859375-2.960937-6.960937-.011719-.003907-.019532-.007813-.027344-.011719zm0 0"/><path d="m64.199219 96.472656c2.953125 0 5.351562-2.394531 5.351562-5.351562 0-2.1875-1.332031-4.15625-3.363281-4.96875l-26.75-10.699219c-2.746094-1.09375-5.859375.25-6.949219 2.996094-1.085937 2.738281.242188 5.839843 2.976563 6.9375l26.746094 10.699219c.632812.253906 1.304687.386718 1.988281.386718zm0 0"/><path d="m141.089844 96.851562-53.503906-21.398437c-2.742188-1.097656-5.855469.238281-6.953126 2.980469-.253906.632812-.382812 1.308594-.382812 1.984375v69.550781c0 2.1875 1.332031 4.15625 3.359375 4.96875l53.503906 21.398438c2.742188 1.097656 5.855469-.238282 6.953125-2.980469.253906-.632813.382813-1.308594.382813-1.988281v-69.550782c0-2.183594-1.332031-4.148437-3.359375-4.964844zm-7.339844 66.617188-42.800781-17.121094v-58.027344l42.800781 17.121094zm0 0"/><path d="m141.089844 187.800781-53.503906-21.398437c-2.742188-1.09375-5.855469.246094-6.949219 2.996094-1.085938 2.734374.242187 5.839843 2.976562 6.941406l53.5 21.398437c2.742188 1.105469 5.859375-.222656 6.960938-2.964843 1.105469-2.742188-.222657-5.859376-2.964844-6.964844-.007813 0-.015625-.003906-.019531-.007813zm0 0"/><path d="m46.113281 181.667969 90.949219 37.449219c2.734375 1.125 5.859375-.175782 6.984375-2.910157 1.125-2.730469-.175781-5.859375-2.910156-6.984375l-90.949219-37.449218c-2.730469-1.125-5.859375.175781-6.984375 2.910156-1.125 2.730468.175781 5.859375 2.910156 6.984375zm0 0"/><path d="m139.097656 240.921875c2.957032 0 5.351563-2.394531 5.351563-5.351563 0-2.167968-1.304688-4.121093-3.3125-4.949218l-90.949219-37.449219c-2.734375-1.125-5.859375.179687-6.984375 2.910156-1.125 2.734375.175781 5.859375 2.910156 6.984375l90.949219 37.449219c.644531.269531 1.335938.40625 2.035156.40625zm0 0"/><path d="m315.648438 112.519531h-14.933594l20.191406-106c.550781-2.902343-1.359375-5.703125-4.261719-6.253906-.914062-.1757812-1.859375-.105469-2.742187.195313l-105.316406 36.316406-3.300782-16.5c-1.988281-9.941406-11.65625-16.386719-21.59375-14.402344-3.554687.710938-6.820312 2.457031-9.382812 5.019531l-3.078125 3.082031c-1.433594 1.441407-3.382813 2.246094-5.417969 2.242188h-10.625c-2.03125.003906-3.980469-.800781-5.414062-2.242188l-3.082032-3.082031c-7.167968-7.167969-18.789062-7.167969-25.957031 0-2.5625 2.5625-4.308594 5.828125-5.019531 9.378907l-3.300782 16.503906-105.320312-36.3125c-2.792969-.964844-5.839844.519531-6.800781 3.316406-.3046878.878906-.371094 1.824219-.199219 2.738281l20.191406 106h-14.933594c-2.957031 0-5.351562 2.394531-5.351562 5.351563v37.449218c0 2.953126 2.394531 5.347657 5.351562 5.347657h16.046876v58.851562c.003906 2.1875 1.332031 4.15625 3.363281 4.96875l49.765625 19.90625-4.949219 49.492188c-.292969 2.941406 1.855469 5.566406 4.796875 5.855469.171875.019531.347656.027343.523438.027343h80.25c2.027343 0 3.882812-1.144531 4.789062-2.957031l.5625-1.132812.566406 1.132812c.902344 1.8125 2.757813 2.957031 4.785156 2.957031h80.25c2.957032-.003906 5.351563-2.402343 5.347657-5.359375 0-.175781-.007813-.351562-.023438-.523437l-4.949219-49.492188 49.761719-19.90625c2.03125-.816406 3.359375-2.78125 3.363281-4.96875v-58.851562h16.046876c2.957031 0 5.351562-2.394531 5.351562-5.347657v-37.449218c0-2.957032-2.394531-5.351563-5.351562-5.351563zm-189.445313-90.148437c.832031-4.144532 4.867187-6.832032 9.015625-6 1.480469.296875 2.839844 1.023437 3.90625 2.089844l3.085938 3.085937c3.433593 3.449219 8.105468 5.386719 12.976562 5.375h10.625c4.871094.011719 9.542969-1.925781 12.980469-5.375l3.082031-3.085937c2.988281-2.988282 7.835938-2.984376 10.828125.003906 1.066406 1.070312 1.792969 2.429687 2.089844 3.910156l3.589843 17.925781-37.882812 13.0625-37.882812-13.0625zm-115.503906 127.597656v-26.75h32.101562v26.75zm21.402343 65.929688v-55.226563h16.046876c2.957031 0 5.351562-2.398437 5.351562-5.351563v-37.449218c0-2.953125-2.394531-5.351563-5.351562-5.351563h-16.96875l-18.847657-98.933593 142.816407 49.25v202.28125l-72.910157-29.164063-.003906-.003906zm137.054688 73.171874-3.871094-7.742187c-1.324218-2.644531-4.539062-3.714844-7.179687-2.394531-1.035157.519531-1.875 1.359375-2.390625 2.394531l-3.871094 7.742187h-71.03125l4.054688-40.539062 73.644531 29.457031c.0625.023438.128906.015625.195312.039063 1.152344.457031 2.433594.457031 3.585938 0 .0625-.023438.132812-.011719.195312-.039063l73.644531-29.457031 4.054688 40.539062zm119.742188-73.171874-50.132813 20.054687h-.003906l-72.914063 29.164063v-202.28125l142.820313-49.25-18.847657 98.933593h-16.972656c-2.953125 0-5.347656 2.394531-5.347656 5.351563v21.492187c.050781-2.953125-2.300781-5.390625-5.253906-5.445312-.714844-.011719-1.421875.117187-2.085938.382812l-80.25 32.101563c-2.746094 1.089844-4.085937 4.203125-2.996094 6.949218 1.09375 2.746094 4.207032 4.085938 6.953126 2.996094.003906-.003906.011718-.007812.019531-.007812l80.25-32.101563c1.992187-.796875 3.316406-2.710937 3.363281-4.859375v15.941406c0 2.953126 2.394531 5.351563 5.347656 5.351563h16.050782zm21.402343-65.929688h-32.101562v-26.75h32.101562zm0 0"/><path d="m181.898438 80.421875c.605468 0 1.203124-.101563 1.769531-.300781l107-37.453125c2.789062-.976563 4.257812-4.027344 3.28125-6.816407-.976563-2.789062-4.03125-4.257812-6.820313-3.28125l-107 37.449219c-2.785156.980469-4.257812 4.03125-3.277344 6.820313.75 2.144531 2.777344 3.582031 5.046876 3.582031zm0 0"/><path d="m260.160156 155.703125-80.25 32.097656c-2.746094 1.09375-4.085937 4.203125-2.996094 6.949219 1.09375 2.746094 4.207032 4.089844 6.953126 2.996094.003906-.003906.011718-.003906.019531-.007813l80.25-32.097656c2.746093-1.09375 4.085937-4.207031 2.996093-6.953125-1.09375-2.746094-4.203124-4.085938-6.949218-2.996094-.007813.003906-.015625.007813-.023438.011719zm0 0"/><path d="m260.160156 177.101562-80.25 32.097657c-2.746094 1.09375-4.085937 4.207031-2.996094 6.953125 1.09375 2.746094 4.207032 4.085937 6.953126 2.992187.003906 0 .011718-.003906.019531-.007812l80.25-32.097657c2.746093-1.09375 4.085937-4.203124 2.996093-6.949218-1.09375-2.746094-4.203124-4.089844-6.949218-2.996094-.007813.003906-.015625.003906-.023438.007812zm0 0"/><path d="m260.160156 198.5-80.25 32.101562c-2.746094 1.089844-4.085937 4.203126-2.996094 6.949219 1.09375 2.746094 4.207032 4.089844 6.953126 2.996094.003906-.003906.011718-.003906.019531-.007813l80.25-32.101562c2.746093-1.089844 4.085937-4.203125 2.996093-6.949219-1.09375-2.746093-4.203124-4.085937-6.949218-2.996093-.007813.003906-.015625.007812-.023438.007812zm0 0"/><path d="m181.898438 101.824219c.605468-.003907 1.203124-.105469 1.769531-.304688l107-37.449219c2.789062-.976562 4.257812-4.03125 3.28125-6.820312-.976563-2.785156-4.027344-4.257812-6.816407-3.28125l-107 37.453125c-2.789062.976563-4.257812 4.03125-3.28125 6.820313.75 2.144531 2.777344 3.582031 5.046876 3.582031zm0 0"/><path d="m178.957031 154.4375c1.5.988281 3.398438 1.160156 5.050781.449219l37.449219-16.050781c1.964844-.839844 3.242188-2.777344 3.242188-4.914063v-32.101563c0-2.953124-2.394531-5.347656-5.347657-5.347656-.726562 0-1.445312.144532-2.109374.433594l-37.449219 16.046875c-1.96875.84375-3.242188 2.777344-3.242188 4.917969v32.101562c0 1.796875.902344 3.472656 2.40625 4.464844zm8.292969-33.039062 26.75-11.464844v20.460937l-26.75 11.460938zm0 0"/><path d="m276.320312 86.109375-42.800781 16.050781c-2.773437 1.019532-4.195312 4.09375-3.171875 6.867188 1.019532 2.777344 4.09375 4.195312 6.867188 3.175781.023437-.007813.042968-.015625.0625-.023437l42.800781-16.050782c2.773437-1.019531 4.195313-4.09375 3.171875-6.867187-1.019531-2.773438-4.09375-4.195313-6.867188-3.175781-.019531.007812-.042968.015624-.0625.023437zm0 0"/></svg>