<?xml version="1.0" encoding="utf-8"?>
<!-- Generator: Adobe Illustrator 16.0.0, SVG Export Plug-In . SVG Version: 6.00 Build 0)  -->
<!DOCTYPE svg PUBLIC "-//W3C//DTD SVG 1.1//EN" "http://www.w3.org/Graphics/SVG/1.1/DTD/svg11.dtd">
<svg version="1.1" id="Layer_1" xmlns="http://www.w3.org/2000/svg" xmlns:xlink="http://www.w3.org/1999/xlink" x="0px" y="0px"
	 width="150px" height="150px" viewBox="0 0 150 150" enable-background="new 0 0 150 150" xml:space="preserve">
<path fill="#E88C38" d="M131.55,116.177c-4.656-8.799-21.83-18.863-21.83-18.863c-3.885-2.216-8.572-2.463-10.79,1.486
	c0,0-5.577,6.691-6.998,7.653c-6.483,4.393-12.488,4.224-18.549-1.84L59.295,90.525L45.208,76.439
	c-6.063-6.064-6.232-12.067-1.84-18.55c0.961-1.419,7.653-6.998,7.653-6.998c3.947-2.217,3.702-6.905,1.487-10.79
	c0,0-10.065-17.173-18.863-21.829c-3.743-1.982-8.34-1.291-11.335,1.704L16.086,26.2C-3.647,45.934,6.068,68.217,25.802,87.95
	l18.037,18.037l18.037,18.036c19.734,19.734,42.016,29.452,61.75,9.716l6.224-6.223C132.84,124.52,133.53,119.92,131.55,116.177z"/>
<path fill="#110A05" d="M100.1,147c-2.585,0-5.22-0.312-7.908-0.932c-10.136-2.343-20.921-9.177-32.055-20.313L24.066,89.68
	C-0.446,65.17-3.807,42.62,14.348,24.463l6.223-6.223c3.78-3.782,9.485-4.639,14.218-2.139c9.311,4.925,19.407,22.029,19.832,22.755
	c1.801,3.157,2.365,6.397,1.602,9.152c-0.573,2.073-1.884,3.757-3.792,4.896c-2.992,2.502-6.49,5.605-7.037,6.366
	c-3.932,5.798-3.468,10.417,1.548,15.433l28.174,28.175c5.011,5.012,9.625,5.478,15.44,1.543c0.749-0.542,3.852-4.037,6.358-7.032
	c1.136-1.908,2.824-3.218,4.895-3.793c2.757-0.767,5.997-0.201,9.127,1.585c0.753,0.441,17.857,10.54,22.782,19.85l0,0
	c2.502,4.724,1.642,10.438-2.139,14.217l-6.223,6.224C117.685,143.139,109.218,147,100.1,147z M29.119,19.592
	c-1.859,0-3.689,0.726-5.077,2.114l-6.224,6.223C1.707,44.042,4.977,63.652,27.537,86.212l36.07,36.072
	c22.56,22.563,42.168,25.827,58.282,9.716l6.224-6.223c2.246-2.247,2.757-5.645,1.271-8.453l0,0
	c-3.552-6.711-16.295-15.193-20.9-17.896c-1.903-1.087-3.925-1.494-5.359-1.104c-0.884,0.248-1.556,0.795-2.051,1.679l-0.255,0.37
	c-1.744,2.092-5.969,7.066-7.507,8.112c-7.728,5.231-15.012,4.516-21.662-2.135L43.471,78.173c-6.653-6.65-7.371-13.94-2.136-21.662
	c1.042-1.538,6.022-5.762,8.114-7.508l0.368-0.256c0.884-0.495,1.433-1.167,1.678-2.05c0.4-1.443-0.02-3.457-1.121-5.387
	c-0.082-0.14-9.8-16.602-17.88-20.877C31.423,19.869,30.262,19.592,29.119,19.592z"/>
<path fill="#110A05" d="M100.943,120.013c-0.083,0-0.169-0.005-0.255-0.013c-16.913-1.756-27.986-12.503-28.452-12.958
	c-0.964-0.95-0.973-2.5-0.027-3.464c0.947-0.969,2.5-0.981,3.469-0.031c0.102,0.098,10.369,10,25.517,11.572
	c1.346,0.143,2.325,1.347,2.188,2.695C103.249,119.073,102.186,120.013,100.943,120.013z"/>
<path fill="#110A05" d="M46.974,80.766c-0.549,0-1.099-0.185-1.558-0.562c-0.562-0.462-13.83-11.565-15.598-28.621
	c-0.14-1.35,0.841-2.553,2.188-2.695c1.354-0.12,2.553,0.841,2.695,2.188c1.558,15.012,13.717,25.243,13.84,25.343
	c1.042,0.866,1.189,2.409,0.329,3.454C48.379,80.462,47.68,80.766,46.974,80.766z"/>
<g>
	<path fill="#EFCE4A" d="M69.948,2.22c-1.356,0-2.453,1.097-2.453,2.453c0,1.357,1.097,2.453,2.453,2.453
		c41.436,0,75.146,33.71,75.146,75.146c0,1.356,1.097,2.453,2.453,2.453c1.357,0,2.453-1.097,2.453-2.453
		C150,38.131,114.089,2.22,69.948,2.22z"/>
	<path fill="#EFCE4A" d="M69.948,19.464c-1.356,0-2.453,1.096-2.453,2.453c0,1.356,1.097,2.453,2.453,2.453
		c31.928,0,57.899,25.975,57.899,57.899c0,1.356,1.096,2.453,2.453,2.453c1.356,0,2.452-1.097,2.452-2.453
		C132.756,47.641,104.579,19.464,69.948,19.464z"/>
	<path fill="#EFCE4A" d="M69.948,36.708c-1.356,0-2.453,1.096-2.453,2.453c0,1.356,1.097,2.452,2.453,2.452
		c22.42,0,40.657,18.241,40.657,40.658c0,1.356,1.097,2.453,2.453,2.453s2.453-1.097,2.453-2.453
		C115.512,57.149,95.071,36.708,69.948,36.708z"/>
</g>
</svg>
