<?xml version="1.0" encoding="utf-8"?>
<!-- Generator: Adobe Illustrator 16.0.0, SVG Export Plug-In . SVG Version: 6.00 Build 0)  -->
<!DOCTYPE svg PUBLIC "-//W3C//DTD SVG 1.1//EN" "http://www.w3.org/Graphics/SVG/1.1/DTD/svg11.dtd">
<svg version="1.1" id="Layer_1" xmlns="http://www.w3.org/2000/svg" xmlns:xlink="http://www.w3.org/1999/xlink" x="0px" y="0px"
	 width="512px" height="512px" viewBox="0 0 512 512" enable-background="new 0 0 512 512" xml:space="preserve">
<path fill="#E88C38" d="M109.492,158.984c54.949,0,99.492,44.543,99.492,99.493c0,18.909-5.277,36.59-14.441,51.645h0.004
	l-85.055,139.77l-85.055-139.77C15.277,295.066,10,277.387,10,258.477C10,203.527,54.543,158.984,109.492,158.984z"/>
<path fill="#9E5D28" d="M445.441,10C476.68,10,502,35.32,502,66.559c0,10.75-3,20.801-8.207,29.359l-48.352,79.449l-48.349-79.449
	c-5.207-8.559-8.207-18.609-8.207-29.359C388.887,35.32,414.207,10,445.441,10z"/>
<path fill="#EFCE4A" d="M109.492,308.223c27.398,0,49.746-22.348,49.746-49.746c0-27.397-22.348-49.746-49.746-49.746
	c-27.398,0-49.746,22.348-49.746,49.746C59.746,285.875,82.094,308.223,109.492,308.223z"/>
<path fill="#EFCE4A" d="M445.441,88.328c11.991,0,21.772-9.781,21.772-21.77c0-11.992-9.781-21.773-21.772-21.773
	c-11.988,0-21.771,9.781-21.771,21.773C423.672,78.547,433.453,88.328,445.441,88.328z"/>
<path d="M218.984,258.477c0-60.375-49.117-109.492-109.492-109.492S0,198.102,0,258.477c0,20.099,5.496,39.754,15.895,56.844
	l21.734,35.712c2.867,4.719,9.02,6.211,13.738,3.344c4.719-2.871,6.215-9.022,3.344-13.737l-21.73-35.712
	C24.488,290.969,20,274.906,20,258.477c0-49.348,40.145-89.492,89.492-89.492c49.347,0,89.492,40.145,89.492,89.492
	c0,16.431-4.488,32.492-12.98,46.449l-76.512,125.728L96.305,408.98c-2.875-4.719-9.027-6.211-13.742-3.344
	c-4.719,2.87-6.215,9.022-3.344,13.741l21.73,35.707c1.813,2.98,5.051,4.805,8.543,4.805c3.488,0,6.727-1.819,8.539-4.805
	l85.055-139.767C213.484,298.23,218.984,278.574,218.984,258.477z"/>
<path d="M445.441,0c-36.699,0-66.556,29.855-66.556,66.559c0,12.215,3.34,24.168,9.664,34.559l48.353,79.449
	c1.813,2.98,5.051,4.801,8.539,4.801c3.491,0,6.729-1.816,8.543-4.801l48.352-79.449C508.656,90.727,512,78.773,512,66.559
	C512,29.859,482.145,0,445.441,0z M485.25,90.719l-39.809,65.414l-39.806-65.414c-4.418-7.258-6.75-15.613-6.75-24.16
	C398.887,40.887,419.77,20,445.441,20C471.112,20,492,40.887,492,66.559C492,75.105,489.664,83.461,485.25,90.719z"/>
<path d="M109.492,318.223c32.945,0,59.746-26.801,59.746-59.746c0-32.944-26.801-59.746-59.746-59.746
	c-32.941,0-59.746,26.801-59.746,59.746C49.746,291.422,76.551,318.223,109.492,318.223z M109.492,218.73
	c21.914,0,39.746,17.828,39.746,39.747c0,21.914-17.832,39.746-39.746,39.746c-21.918,0-39.746-17.832-39.746-39.746
	C69.746,236.559,87.574,218.73,109.492,218.73z"/>
<path d="M445.441,34.785c-17.517,0-31.771,14.254-31.771,31.773c0,17.516,14.254,31.77,31.771,31.77
	c17.52,0,31.772-14.254,31.772-31.77C477.215,49.039,462.961,34.785,445.441,34.785z M445.441,78.328
	c-6.488,0-11.771-5.281-11.771-11.77c0-6.492,5.281-11.773,11.771-11.773c6.491,0,11.772,5.281,11.772,11.773
	C457.215,73.047,451.934,78.328,445.441,78.328z"/>
<path fill="#EFCE4A" d="M442.289,204.227l-107.16,35.602c-3.977,1.32-6.707,4.977-6.844,9.16c-0.137,4.188,2.348,8.016,6.227,9.59
	l37.836,15.392l-84.766,22.854c-3.848,1.039-6.711,4.258-7.289,8.198c-0.582,3.941,1.23,7.849,4.613,9.949l51.004,31.695
	l-99.969,14.602c-4.363,0.638-7.793,4.06-8.445,8.418c-0.648,4.359,1.629,8.633,5.613,10.517l51.645,24.43l-133.625,35.594
	c-5.336,1.423-8.512,6.902-7.09,12.238c1.191,4.478,5.234,7.43,9.656,7.43c0.852,0,1.719-0.108,2.582-0.34l160.004-42.62
	c4.059-1.082,7.004-4.578,7.387-8.759c0.379-4.18-1.891-8.151-5.684-9.944l-46.406-21.953l94.281-13.771
	c4.155-0.604,7.487-3.745,8.344-7.854c0.859-4.109-0.941-8.316-4.508-10.531l-54.677-33.98l91.207-24.59
	c4.146-1.121,7.113-4.758,7.38-9.043c0.262-4.285-2.238-8.262-6.216-9.875l-40.241-16.367l81.444-27.059
	c5.242-1.742,8.082-7.402,6.34-12.641C453.191,205.32,447.527,202.48,442.289,204.227z"/>
<path d="M66.965,370.008c-5.508,0-10,4.488-10,10c0,5.508,4.492,10,10,10c5.508,0,10-4.492,10-10
	C76.965,374.496,72.473,370.008,66.965,370.008z"/>
</svg>
