<svg height="509pt" viewBox="-42 0 509 509.51905" width="509pt" xmlns="http://www.w3.org/2000/svg"><path d="m415.984375 138.140625c1.207031 63.160156 2.578125 134.738281-21.601563 200.339844-28.449218 77.199219-86.378906 129.96875-177.097656 161.347656l-4.902344 1.691406-4.898437-1.691406c-90.722656-31.378906-148.652344-84.148437-177.101563-161.347656-24.179687-65.601563-22.808593-137.179688-21.597656-200.339844.25-13.261719.488282-25.792969.488282-37.910156v-15h15c73.820312 0 130.28125-21.332031 177.691406-67.132813l10.417968-10.058594 10.421876 10.058594c24.046874 23.230469 49.757812 39.839844 78.597656 50.769532 29.03125 11.011718 61.441406 16.363281 99.089844 16.363281h15v15c0 12.117187.242187 24.648437.492187 37.910156zm-49.75 189.96875c22.230469-60.300781 20.910156-128.878906 19.757813-189.390625-.160157-8.160156-.308594-16.050781-.398438-23.769531-69.761719-2.589844-125.429688-23.691407-173.210938-65.660157-47.78125 41.96875-103.449218 63.070313-173.210937 65.660157-.089844 7.71875-.238281 15.609375-.398437 23.769531-1.148438 60.511719-2.46875 129.089844 19.761718 189.390625 24.636719 66.851563 74.988282 113.21875 153.847656 141.628906 78.859376-28.410156 129.210938-74.777343 153.851563-141.628906zm0 0" fill="#00acea"/><path d="m385.992188 138.71875c1.152343 60.511719 2.472656 129.089844-19.757813 189.390625-24.640625 66.851563-74.992187 113.21875-153.851563 141.628906-78.859374-28.410156-129.210937-74.777343-153.847656-141.628906-22.230468-60.300781-20.910156-128.878906-19.761718-189.390625.160156-8.160156.308593-16.050781.398437-23.769531 69.761719-2.589844 125.429687-23.691407 173.210937-65.660157 47.78125 41.96875 103.449219 63.070313 173.210938 65.660157.089844 7.71875.238281 15.609375.398438 23.769531zm-94.160157 202.601562v-78.890624c0-10.832032-9.25-19.609376-20.648437-19.609376h-1.859375v-39.679687c-.003907-14.808594-6.179688-28.941406-17.039063-39-10.78125-10.160156-25.089844-15.722656-39.902344-15.511719-31.398437 0-56.941406 24.449219-56.941406 54.511719v39.679687h-1.859375c-11.398437 0-20.648437 8.777344-20.648437 19.609376v78.890624c0 10.828126 9.25 19.609376 20.648437 19.609376h117.601563c11.398437 0 20.648437-8.78125 20.648437-19.609376zm0 0" fill="#00efd1"/><path d="m291.832031 262.429688v78.890624c0 10.828126-9.25 19.609376-20.648437 19.609376h-117.601563c-11.398437 0-20.648437-8.78125-20.648437-19.609376v-78.890624c0-10.832032 9.25-19.609376 20.648437-19.609376h117.601563c11.398437 0 20.648437 8.777344 20.648437 19.609376zm-79.449219 53.648437c7.128907 0 12.902344-5.488281 12.902344-12.257813 0-6.769531-5.773437-12.261718-12.902344-12.261718-7.128906 0-12.910156 5.492187-12.910156 12.261718 0 6.769532 5.78125 12.257813 12.910156 12.257813zm0 0" fill="#fedb41"/><path d="m269.324219 240.757812v2.0625h-113.882813v-39.679687c0-30.0625 25.542969-54.511719 56.941406-54.511719 14.8125-.210937 29.121094 5.351563 39.902344 15.511719 10.859375 10.058594 17.035156 24.191406 17.039063 39zm0 0" fill="#00efd1"/><path d="m225.285156 303.820312c0 6.769532-5.773437 12.257813-12.902344 12.257813-7.128906 0-12.910156-5.488281-12.910156-12.257813 0-6.769531 5.78125-12.261718 12.910156-12.261718 7.128907 0 12.902344 5.492187 12.902344 12.261718zm0 0" fill="#00acea"/><g fill="#083863"><path d="m415.492188 76.777344h-15c-36.664063 0-68.148438-4.957032-96.253907-15.613282-27.800781-10.535156-52.617187-26.464843-75.878906-48.933593l-10.417969-10c-3.109375-2.984375-8.023437-2.972657-11.113281.027343l-10.425781 9.851563c-45.820313 44.265625-100.519532 64.667969-172.128906 64.667969h-15c-4.417969 0-7.890626 4.035156-7.890626 8.453125v15c0 11.886719-.289062 24.207031-.535156 37.246093l-.035156.507813c-1.222656 63.863281-2.625 136.246094 22.078125 203.261719 29.328125 79.582031 88.851563 133.933594 181.992187 166.144531l4.902344 1.691406c1.6875.582031 3.523438.582031 5.210938 0l4.90625-1.691406c93.136718-32.214844 152.664062-86.5625 181.992187-166.144531 24.699219-67.015625 23.316407-139.398438 22.09375-203.257813l-.066406-.511719c-.246094-13.039062-.535156-25.359374-.535156-37.246093v-15c-.003907-4.417969-3.476563-8.453125-7.894531-8.453125zm-28.617188 258.9375c-27.5625 74.796875-83.894531 126.007812-172.199219 156.550781l-2.292969.792969-2.285156-.789063c-88.3125-30.546875-144.644531-81.757812-172.207031-156.554687-23.660156-64.191406-22.308594-134.972656-21.105469-197.425782l.0625-.511718c.246094-13.117188.535156-25.507813.535156-37.546875v-7.453125h6.890626c76.023437 0 134.253906-21.816406 183.246093-69.148438l4.863281-4.582031 4.863282 4.75c24.851562 24.003906 51.453125 40.980469 81.320312 52.300781 29.949219 11.355469 63.289063 16.679688 101.925782 16.679688h6.890624v7.453125c0 12.039062.289063 24.429687.539063 37.546875l.035156.515625c1.195313 62.449219 2.578125 133.230469-21.082031 197.421875zm0 0"/><path d="m393.992188 138.5625c-.167969-8.457031-.3125-16.082031-.402344-23.707031-.050782-4.265625-3.4375-7.738281-7.699219-7.898438-68.199219-2.535156-121.652344-22.769531-168.226563-63.679687-3.023437-2.648438-7.539062-2.648438-10.558593 0-46.578125 40.910156-100.03125 61.144531-168.230469 63.675781-4.261719.160156-7.648438 3.636719-7.699219 7.902344-.089843 7.625-.234375 15.246093-.398437 23.710937v.136719c-1.164063 61.171875-2.480469 130.5 20.253906 192.171875 25.519531 69.238281 77.414062 117.125 158.644531 146.386719 1.753907.632812 3.671875.632812 5.421875 0 81.230469-29.261719 133.125-77.148438 158.644532-146.386719 22.734374-61.667969 21.417968-131 20.257812-192.171875zm-35.265626 186.78125c-23.503906 63.769531-71.386718 108.234375-146.34375 135.878906-74.957031-27.644531-122.839843-72.109375-146.34375-135.878906-21.691406-58.84375-20.40625-126.578125-19.269531-186.335938v-.132812c.113281-5.71875.214844-11.0625.300781-16.285156 32.988282-1.871094 62.425782-7.851563 89.785157-18.222656 27.523437-10.445313 53.066406-25.507813 75.527343-44.539063 22.460938 19.03125 48.003907 34.09375 75.527344 44.539063 27.359375 10.371093 56.800782 16.351562 89.785156 18.222656.085938 5.222656.1875 10.5625.300782 16.28125v.136718c1.136718 59.757813 2.421875 127.492188-19.269532 186.335938zm0 0"/><path d="m277.382812 235.464844v-32.324219c-.007812-17.015625-7.105468-33.257813-19.582031-44.824219-12.28125-11.59375-28.601562-17.941406-45.488281-17.6875-35.78125.03125-64.929688 28.0625-64.929688 62.511719v32.324219c-12.851562 2.546875-22.082031 13.863281-22 26.964844v78.890624c0 15.222657 12.402344 27.457032 28.199219 27.457032h117.601563c15.800781 0 28.199218-12.234375 28.199218-27.457032v-78.890624c.085938-13.101563-9.148437-24.417969-22-26.964844zm-65-78.6875h.113282c12.722656-.152344 25.011718 4.59375 34.328125 13.257812 9.253906 8.523438 14.53125 20.523438 14.558593 33.105469v31.636719h-98v-31.636719c0-25.648437 22.015626-46.363281 49-46.363281zm71 184.542968c0 6.398438-5.222656 11.457032-12.199218 11.457032h-117.601563c-6.972656 0-12.199219-5.054688-12.199219-11.457032v-78.890624c0-6.402344 5.226563-11.652344 12.199219-11.652344h117.601563c6.976562 0 12.199218 5.25 12.199218 11.652344zm0 0"/><path d="m212.382812 283.558594c-11.53125 0-20.910156 9.089844-20.910156 20.261718.082032 8.285157 5.191406 15.695313 12.910156 18.710938v10.738281c0 4.417969 3.582032 8 8 8 4.417969 0 8-3.582031 8-8v-10.738281c7.714844-3.019531 12.820313-10.425781 12.902344-18.710938 0-11.171874-9.378906-20.261718-20.902344-20.261718zm0 16c2.699219 0 4.902344 1.910156 4.902344 4.261718 0 2.347657-2.203125 4.257813-4.902344 4.257813-2.699218 0-4.910156-1.910156-4.910156-4.257813 0-2.351562 2.203125-4.261718 4.910156-4.261718zm0 0"/></g></svg>