<?xml version="1.0" encoding="utf-8"?>
<!-- Generator: Adobe Illustrator 16.0.0, SVG Export Plug-In . SVG Version: 6.00 Build 0)  -->
<!DOCTYPE svg PUBLIC "-//W3C//DTD SVG 1.1//EN" "http://www.w3.org/Graphics/SVG/1.1/DTD/svg11.dtd">
<svg version="1.1" id="Layer_1" xmlns="http://www.w3.org/2000/svg" xmlns:xlink="http://www.w3.org/1999/xlink" x="0px" y="0px"
	 width="70px" height="70px" viewBox="0 0 70 70" enable-background="new 0 0 70 70" xml:space="preserve">
<g>
	<path fill="#C6CBCB" stroke="#000000" stroke-miterlimit="10" d="M13.333,59.02c2.818,1.045,45.733-41.519,45.733-41.519
		s1.867-5.04-2.172-6.538c-3.144-1.165-22.292-8.262-22.292-8.262c-3.667-1.359-5.923,0.442-6.635,2.363
		C27.256,6.986,10.629,51.848,9.74,54.248C8.85,56.648,10.516,57.975,13.333,59.02z"/>
	<path fill="#E2E5E7" stroke="#000000" stroke-miterlimit="10" d="M41.398,65.172c-0.766,2.063-3.058,3.116-5.119,2.352
		l-23.125-8.569c-2.063-0.765-3.115-3.058-2.351-5.119L28.472,6.162c0.765-2.063,3.057-3.116,5.12-2.351l23.124,8.57
		c2.063,0.765,3.116,3.057,2.351,5.12L41.398,65.172z"/>
	
		<rect x="21.325" y="11.229" transform="matrix(0.9377 0.3475 -0.3475 0.9377 14.0286 -10.2365)" fill="#2D404E" stroke="#000000" stroke-miterlimit="10" width="28.456" height="45.529"/>
	<path fill="#586A73" stroke="#000000" stroke-miterlimit="10" d="M48.57,12.194c-0.109,0.295-0.457,0.438-0.777,0.319l-7.521-2.788
		c-0.317-0.118-0.488-0.453-0.379-0.748l0,0c0.108-0.295,0.457-0.438,0.775-0.319l7.521,2.788
		C48.508,11.565,48.68,11.899,48.57,12.194L48.57,12.194z"/>
	<path fill="#2D404E" stroke="#000000" stroke-miterlimit="10" d="M48.188,12.534c-0.123,0.033-0.262,0.029-0.395-0.02l-7.521-2.788
		c-0.317-0.118-0.488-0.453-0.379-0.748l0,0c0.108-0.295,0.457-0.438,0.775-0.319c0,0-0.311,0.164-0.328,0.485
		c-0.02,0.322,0.863,0.674,1.264,0.822C42.003,10.115,48.188,12.534,48.188,12.534z"/>
	<polygon opacity="0.19" fill="#E2E5E7" stroke="#000000" stroke-miterlimit="10" enable-background="new    " points="
		30.128,7.699 16.285,45.052 55.813,20.273 56.809,17.588 	"/>
	<g>
		<circle fill="#C6CBCB" stroke="#000000" stroke-miterlimit="10" cx="26.18" cy="59.243" r="2.399"/>
		<circle fill="#D1D5D5" stroke="#000000" stroke-miterlimit="10" cx="26.18" cy="59.242" r="2.049"/>
		<path fill="#E2E5E7" stroke="#000000" stroke-miterlimit="10" d="M27.662,59.792c0.304-0.819-0.114-1.728-0.933-2.031
			c-0.818-0.304-1.728,0.114-2.031,0.933c-0.304,0.818,0.114,1.729,0.933,2.031C26.45,61.027,27.359,60.611,27.662,59.792z"/>
	</g>
	<path fill="#D1D5D5" stroke="#000000" stroke-miterlimit="10" d="M50.082,9.492l4.511,1.672c0,0,0.329-0.173,0.233-0.629
		l-4.512-1.672C50.314,8.864,49.914,9.073,50.082,9.492z"/>
	<path fill="#E2E5E7" stroke="#000000" stroke-miterlimit="10" d="M54.826,10.536l-4.512-1.672c0,0-0.299,0.156-0.271,0.468
		l4.67,1.73C54.796,10.967,54.881,10.798,54.826,10.536z"/>
	
		<ellipse transform="matrix(0.9379 0.3468 -0.3468 0.9379 3.7281 -12.4715)" fill="#E2E5E7" stroke="#000000" stroke-miterlimit="10" cx="36.708" cy="4.18" rx="1.119" ry="0.335"/>
</g>
<g>
	<path fill="#F24335" stroke="#000000" stroke-miterlimit="10" d="M66.33,43.74c-1.604,4.326-5.033,7.443-9.092,8.805l1.238,2.482
		c4.66-1.68,8.578-5.322,10.435-10.33s1.259-10.323-1.183-14.634l-2.558,1.075C67.361,34.815,67.934,39.414,66.33,43.74z"/>
	<path fill="#F24335" stroke="#000000" stroke-miterlimit="10" d="M60.826,41.701c-1.064,2.875-3.477,4.859-6.254,5.507l1.414,2.831
		c3.453-1.034,6.397-3.62,7.748-7.26c1.35-3.644,0.801-7.521-1.146-10.557l-2.918,1.226C61.357,35.75,61.893,38.826,60.826,41.701z"
		/>
</g>
<g>
	<path fill="#F24335" stroke="#000000" stroke-miterlimit="10" d="M3.67,21.33c-1.604,4.327-1.032,8.926,1.159,12.603L2.27,35.007
		c-2.44-4.31-3.037-9.626-1.181-14.634s5.773-8.65,10.433-10.33l1.24,2.483C8.704,13.888,5.273,17.003,3.67,21.33z"/>
	<path fill="#F24335" stroke="#000000" stroke-miterlimit="10" d="M9.173,23.369c-1.066,2.875-0.531,5.951,1.155,8.253L7.41,32.848
		c-1.945-3.036-2.494-6.915-1.144-10.556s4.293-6.227,7.748-7.26l1.414,2.831C12.649,18.51,10.239,20.495,9.173,23.369z"/>
</g>
</svg>
