<?xml version="1.0" encoding="utf-8"?>
<!-- Generator: Adobe Illustrator 16.0.0, SVG Export Plug-In . SVG Version: 6.00 Build 0)  -->
<!DOCTYPE svg PUBLIC "-//W3C//DTD SVG 1.1//EN" "http://www.w3.org/Graphics/SVG/1.1/DTD/svg11.dtd">
<svg version="1.1" id="Layer_1" xmlns="http://www.w3.org/2000/svg" xmlns:xlink="http://www.w3.org/1999/xlink" x="0px" y="0px"
	 width="511px" height="511px" viewBox="0 0 511 511" enable-background="new 0 0 511 511" xml:space="preserve">
<path fill="#CDD6DA" d="M467.228,442.866H162.832c-6.776-0.035-12.912,3.992-15.583,10.219L125.7,502.481H85.244l31.938-73.245
	c5.435-12.418,17.704-20.438,31.256-20.438h304.481L467.228,442.866z"/>
<path fill="#2E7D32" d="M452.919,408.799H148.438c-13.552,0-25.821,8.02-31.256,20.438l-31.938,73.245h-50.25
	c-8.351-0.008-16.172-4.102-20.94-10.959c-4.769-6.858-5.887-15.614-2.991-23.447L29.8,417.314h33.299
	c7.166-0.023,13.56-4.512,16.012-11.244l23.763-65.408H378.82l7.411,22.401c2.332,6.956,8.843,11.649,16.18,11.665h36.114
	L452.919,408.799z"/>
<path fill="#2E7D32" d="M453.855,502.481H125.7l21.548-49.396c2.671-6.227,8.807-10.254,15.583-10.219h304.396l10.219,24.188
	c3.31,7.892,2.448,16.917-2.297,24.04C470.405,498.217,462.413,502.493,453.855,502.481z"/>
<path fill="#89C14A" d="M424.813,408.799H151.678c-13.556,0-25.825,8.02-31.26,20.438l-31.938,73.245H34.993
	c-8.351-0.008-16.172-4.102-20.94-10.959c-4.769-6.858-5.887-15.614-2.991-23.447L29.8,417.314h33.299
	c7.166-0.023,13.56-4.512,16.012-11.244l23.763-65.408h278.757l7.412,22.401c2.331,6.956,8.842,11.649,16.18,11.665h5.197
	L424.813,408.799z"/>
<path fill="#89C14A" d="M425.749,502.481H125.7l21.548-49.396c2.671-6.227,8.807-10.254,15.583-10.219h276.291l10.218,24.188
	c3.311,7.892,2.449,16.917-2.296,24.04C442.303,498.217,434.307,502.493,425.749,502.481z"/>
<path fill="#FCBF08" d="M102.874,340.662L79.111,406.07c-2.452,6.732-8.846,11.221-16.012,11.244H29.8l22.059-59.959
	c3.668-10.047,13.236-16.721,23.93-16.693H102.874z"/>
<path fill="#FCBF08" d="M438.525,374.729h-36.114c-7.337-0.016-13.848-4.709-16.18-11.665l-7.411-22.401h28.445
	c10.284-0.012,19.563,6.172,23.509,15.672L438.525,374.729z"/>
<path fill="#C32828" d="M235.738,8.76l-3.15,0.257c-61.888,5.166-114.54,47.159-133.348,106.341
	c-18.807,59.183-0.055,123.87,47.498,163.812c4.355,3.591,7.946,8.024,10.558,13.03l47.697,95.561
	c5.606,11.178,15.599,19.537,27.595,23.08c4.152,1.193,8.453,1.798,12.772,1.79c17.083,0.027,32.714-9.603,40.371-24.87
	l48.036-96.325c2.398-4.515,5.669-8.511,9.622-11.755c51.058-42.41,69.023-112.856,44.512-174.537
	C363.394,43.467,301.977,4.562,235.738,8.76z"/>
<path fill="#F24335" d="M232.587,9.018c-61.888,5.166-114.54,47.159-133.348,106.341c-18.807,59.183-0.055,123.87,47.498,163.812
	c4.355,3.591,7.946,8.024,10.558,13.03l47.697,95.561c5.606,11.178,15.599,19.537,27.595,23.08
	c11.993-3.543,21.985-11.902,27.595-23.08l48.032-96.325c2.401-4.515,5.673-8.511,9.626-11.755
	c47.868-39.79,66.925-104.575,48.223-163.948C347.365,56.36,294.62,14.191,232.587,9.018z"/>
<path fill="#CDD6DA" d="M356.855,161.808c0,61.576-49.916,111.496-111.496,111.496c-61.577,0-111.492-49.919-111.492-111.496
	S183.783,50.313,245.36,50.313C306.939,50.313,356.855,100.232,356.855,161.808z"/>
<path d="M365.374,161.808c0-66.282-53.732-120.01-120.014-120.01c-66.278,0-120.01,53.729-120.01,120.01
	c0,66.282,53.732,120.01,120.01,120.01C311.61,281.744,365.296,228.059,365.374,161.808z M142.383,161.808
	c0-56.875,46.106-102.977,102.977-102.977c56.875,0,102.98,46.102,102.98,102.977s-46.105,102.977-102.98,102.977
	C188.505,264.742,142.426,218.663,142.383,161.808z"/>
<path d="M43.87,354.408L3.074,465.128c-3.86,10.448-2.367,22.121,3.992,31.264c6.363,9.143,16.792,14.597,27.927,14.608h418.862
	c11.411,0.012,22.074-5.691,28.397-15.197c6.324-9.501,7.466-21.54,3.045-32.063l-38.94-92.322l-7.746-18.382
	c-5.275-12.651-17.638-20.894-31.346-20.89h-84.274l18.433-36.885c1.821-3.479,4.332-6.539,7.384-9.007
	c52.356-43.525,71.869-115.168,48.813-179.231C374.563,42.96,313.872,0.179,245.785,0c-68.087-0.179-129,42.282-152.397,106.224
	c-23.392,63.943-4.257,135.687,47.873,179.489c3.47,2.818,6.332,6.316,8.406,10.277l18.063,36.156H75.789
	C61.543,332.162,48.806,341.044,43.87,354.408z M59.863,360.252c2.472-6.658,8.827-11.076,15.926-11.072h14.932L71.13,403.193
	c-1.229,3.376-4.441,5.617-8.032,5.605H41.979L59.863,360.252z M225.515,417.314c12.726,5.166,26.967,5.166,39.689,0h182.008
	l7.188,17.033H162.843c-10.164-0.004-19.365,6.016-23.431,15.33l-19.248,44.289H98.257l26.745-61.323
	c4.063-9.313,13.264-15.333,23.427-15.329H225.515z M468.077,486.302c-3.118,4.815-8.483,7.708-14.222,7.665H138.73l16.328-37.475
	c1.353-3.107,4.421-5.111,7.809-5.111h298.731l7.996,18.976C471.832,475.584,471.263,481.592,468.077,486.302z M422.938,359.613
	l2.768,6.565h-23.295c-3.66-0.023-6.908-2.362-8.098-5.825l-3.707-11.174h16.659c6.857,0,13.033,4.133,15.657,10.469
	L422.938,359.613z M372.672,349.18l5.501,16.633c3.521,10.397,13.264,17.407,24.238,17.435h30.457l7.182,17.034H287.707
	c2.148-2.733,4.031-5.666,5.623-8.757l21.153-42.345H372.672z M152.219,272.672c-46.648-39.186-63.775-103.382-42.843-160.6
	c20.928-57.217,75.436-95.21,136.357-95.046c60.925,0.164,115.23,38.445,135.855,95.771c20.624,57.327,3.157,121.429-43.701,160.37
	c-4.873,3.958-8.865,8.89-11.728,14.479l-48.094,96.24c-3.743,7.544-9.98,13.563-17.654,17.033
	c-0.136,0.051-0.249,0.109-0.377,0.172c-9.373,4.086-20.024,4.086-29.401,0c-0.125-0.063-0.238-0.121-0.375-0.172
	c-7.672-3.474-13.91-9.489-17.653-17.033l-47.697-95.554C161.795,282.302,157.475,276.973,152.219,272.672z M197.359,391.532
	c1.602,3.091,3.497,6.02,5.657,8.749H148.43c-16.936-0.004-32.266,10.027-39.042,25.552l-29.724,68.134H34.993
	c-5.563-0.016-10.772-2.745-13.95-7.318c-3.174-4.572-3.915-10.405-1.984-15.626l16.651-45.189h27.388
	c10.741-0.023,20.328-6.745,24.012-16.831l21.724-59.822h67.405L197.359,391.532z"/>
</svg>
