<?xml version="1.0" encoding="utf-8"?>
<!-- Generator: Adobe Illustrator 16.0.0, SVG Export Plug-In . SVG Version: 6.00 Build 0)  -->
<!DOCTYPE svg PUBLIC "-//W3C//DTD SVG 1.1//EN" "http://www.w3.org/Graphics/SVG/1.1/DTD/svg11.dtd">
<svg version="1.1" id="Layer_1" xmlns="http://www.w3.org/2000/svg" xmlns:xlink="http://www.w3.org/1999/xlink" x="0px" y="0px"
	 width="512px" height="512px" viewBox="0 0 512 512" enable-background="new 0 0 512 512" xml:space="preserve">
<path fill="#A4E6FE" d="M281,172.336h-30v120h50v-100C301,181.289,292.047,172.336,281,172.336z"/>
<path fill="#CFFFFA" d="M251,172.336h-20c-11.047,0-20,8.953-20,20v100h60v-100C271,181.289,262.047,172.336,251,172.336z"/>
<path fill="#B25B3D" d="M489.5,459.336l-60-41.512l30,86.512h30V459.336z"/>
<path fill="#C96F3D" d="M22.5,459.336v45h437V382.824L22.5,459.336z"/>
<path fill="#FFAD8A" d="M489.5,262.824h-135l105,196.512h30V262.824z"/>
<path fill="#FFD0A3" d="M22.5,262.824h437v196.512h-437V262.824z"/>
<path fill="#333333" d="M474.5,247.336l-30,15l30,15h30v-30H474.5z"/>
<path fill="#4A4A4A" d="M7.5,247.336h467v30H7.5V247.336z"/>
<path fill="#623221" d="M152.5,352.336h-30l20,35h30v-15C172.5,361.336,163.5,352.336,152.5,352.336z"/>
<path fill="#7D402B" d="M142.5,372.336v15h-60v-15c0-11,9-20,20-20h20C133.5,352.336,142.5,361.336,142.5,372.336z"/>
<path fill="#623221" d="M281,352.336h-30l21,35h30l-1-15C301,361.336,292,352.336,281,352.336z"/>
<path fill="#7D402B" d="M271,372.336v15h-60v-15c0-11,9-20,20-20h20C262,352.336,271,361.336,271,372.336z"/>
<path fill="#623221" d="M409.5,352.336h-30l20,35h30v-15C429.5,361.336,420.5,352.336,409.5,352.336z"/>
<path fill="#7D402B" d="M399.5,372.336v15h-60v-15c0-11,9-20,20-20h20C390.5,352.336,399.5,361.336,399.5,372.336z"/>
<path fill="#C96F3D" d="M263.5,7.5c-13.871,0-25.973,7.535-32.461,18.73c-1.574-0.563-3.27-0.883-5.039-0.883
	c-8.285,0-15,6.715-15,15v56.988h90V45C301,24.289,284.211,7.5,263.5,7.5z"/>
<path fill="#FFD0A3" d="M256,52.336v101l45-46v-10C301,72.48,280.852,52.336,256,52.336z"/>
<path fill="#FFE8D1" d="M256,52.336c-24.852,0-45,20.145-45,45v10l60,46v-56C271,72.48,264.285,52.336,256,52.336z"/>
<path fill="#B25B3D" d="M274.707,107.336c-1.051-1.574-2.301-3.004-3.707-4.262l-15,69.262c24.852,0,45-20.148,45-45v-20H274.707z"
	/>
<path fill="#C96F3D" d="M271,127.336v-24.262c-3.98-3.566-9.234-5.738-15-5.738c-7.801,0-14.672,3.969-18.711,10H211v20
	c0,24.852,20.148,45,45,45C264.285,172.336,271,152.188,271,127.336z"/>
<path fill="#F37324" d="M135,134.836h15c8.25,0,15-6.75,15-15v-15l-50-20L135,134.836z"/>
<path fill="#F7983D" d="M90,104.836v15c0,8.25,6.75,15,15,15h30v-50L90,104.836z"/>
<path fill="#EF4E22" d="M127.5,59.836l-20,22.5l27.5,22.5h30v-7.5C165,76.621,148.211,59.836,127.5,59.836z"/>
<path fill="#F37324" d="M127.5,59.836c-20.711,0-37.5,16.785-37.5,37.5v7.5h45v-7.5C135,76.621,131.641,59.836,127.5,59.836z"/>
<path d="M504.5,239.836h-196v-47.5c0-11.727-7.383-21.758-17.738-25.707c10.867-9.625,17.738-23.668,17.738-39.293V45
	c0-24.813-20.188-45-45-45c-14.152,0-27.469,6.742-35.914,17.902c-0.527-0.039-1.059-0.059-1.586-0.059
	c-12.406,0-22.5,10.094-22.5,22.5v86.988c0,15.629,6.871,29.672,17.738,39.297c-8.059,3.07-14.313,9.828-16.691,18.203H136
	c-4.137,0-7.5-3.363-7.5-7.5s3.363-7.5,7.5-7.5h15c4.141,0,7.5-3.355,7.5-7.5c0-4.141-3.359-7.5-7.5-7.5h-15
	c-12.406,0-22.5,10.094-22.5,22.5s10.094,22.5,22.5,22.5h67.5v40H7.5c-4.141,0-7.5,3.359-7.5,7.5v30c0,4.145,3.359,7.5,7.5,7.5H15
	v219.5c0,4.145,3.359,7.5,7.5,7.5h467c4.145,0,7.5-3.355,7.5-7.5v-219.5h7.5c4.145,0,7.5-3.355,7.5-7.5v-30
	C512,243.191,508.645,239.836,504.5,239.836z M218.5,97.336c0-20.68,16.82-37.5,37.5-37.5s37.5,16.82,37.5,37.5v2.5h-15.141
	c-5.652-6.328-13.746-10-22.359-10s-16.707,3.672-22.359,10H218.5V97.336z M218.5,40.348c0-4.137,3.363-7.5,7.5-7.5
	c0.836,0,1.68,0.148,2.516,0.449c3.41,1.219,7.199-0.176,9.012-3.305C242.887,20.746,252.84,15,263.5,15c16.543,0,30,13.457,30,30
	v15.641c-9.535-9.742-22.82-15.805-37.5-15.805s-27.965,6.063-37.5,15.805V40.348z M218.5,127.336v-12.5h18.789
	c2.504,0,4.844-1.25,6.234-3.328c2.797-4.18,7.461-6.672,12.477-6.672s9.68,2.492,12.477,6.672c1.391,2.078,3.727,3.328,6.23,3.328
	H293.5v12.5c0,20.676-16.82,37.5-37.5,37.5S218.5,148.012,218.5,127.336z M218.5,192.336c0-6.895,5.605-12.5,12.5-12.5h50
	c6.895,0,12.5,5.605,12.5,12.5v47.5h-75V192.336z M30,466.836h45v30H30V466.836z M90,372.336c0-6.895,5.605-12.5,12.5-12.5h50
	c6.895,0,12.5,5.605,12.5,12.5v7.5H90V372.336z M165,347.852c-3.754-1.922-8-3.016-12.5-3.016h-50c-4.5,0-8.746,1.09-12.5,3.016
	v-20.516c0-6.895,5.605-12.5,12.5-12.5h50c6.895,0,12.5,5.605,12.5,12.5V347.852z M90,394.836h75v57H90V394.836z M165,466.836v30H90
	v-30H165z M218.5,372.336c0-6.895,5.605-12.5,12.5-12.5h50c6.895,0,12.5,5.605,12.5,12.5v7.5h-75V372.336z M293.5,347.852
	c-3.754-1.922-8-3.016-12.5-3.016h-50c-4.5,0-8.746,1.09-12.5,3.016v-20.516c0-6.895,5.605-12.5,12.5-12.5h50
	c6.895,0,12.5,5.605,12.5,12.5V347.852z M218.5,394.836h75v57h-75V394.836z M293.5,466.836v30h-75v-30H293.5z M347,372.336
	c0-6.895,5.605-12.5,12.5-12.5h50c6.895,0,12.5,5.605,12.5,12.5v7.5h-75V372.336z M422,347.852c-3.754-1.922-8-3.016-12.5-3.016h-50
	c-4.5,0-8.746,1.09-12.5,3.016v-20.516c0-6.895,5.605-12.5,12.5-12.5h50c6.895,0,12.5,5.605,12.5,12.5V347.852z M347,394.836h75v57
	h-75V394.836z M422,466.836v30h-75v-30H422z M332,496.836h-23.5v-30H332V496.836z M203.5,496.836H180v-30h23.5V496.836z
	 M437,496.836v-30h45v30H437z M482,451.836h-45v-124.5c0-15.164-12.336-27.5-27.5-27.5h-50c-15.164,0-27.5,12.336-27.5,27.5v124.5
	h-23.5v-124.5c0-15.164-12.336-27.5-27.5-27.5h-50c-15.164,0-27.5,12.336-27.5,27.5v124.5H180v-124.5
	c0-15.164-12.336-27.5-27.5-27.5h-50c-15.164,0-27.5,12.336-27.5,27.5v124.5H30v-167h452V451.836z M497,269.836H15v-15h482V269.836z
	"/>
<path d="M80,112.336h2.5v7.5c0,12.402,10.094,22.5,22.5,22.5h45c12.406,0,22.5-10.098,22.5-22.5v-7.5h2.5c4.145,0,7.5-3.359,7.5-7.5
	c0-4.145-3.355-7.5-7.5-7.5h-2.5c0-24.816-20.188-45-45-45s-45,20.184-45,45H80c-4.145,0-7.5,3.355-7.5,7.5
	C72.5,108.977,75.855,112.336,80,112.336z M157.5,119.836c0,4.133-3.363,7.5-7.5,7.5h-45c-4.137,0-7.5-3.367-7.5-7.5v-7.5h60
	V119.836z M127.5,67.336c16.543,0,30,13.457,30,30h-60C97.5,80.793,110.957,67.336,127.5,67.336z"/>
</svg>
