<?xml version="1.0" encoding="iso-8859-1"?>
<!-- Generator: Adobe Illustrator 19.0.0, SVG Export Plug-In . SVG Version: 6.00 Build 0)  -->
<svg version="1.1" id="Capa_1" xmlns="http://www.w3.org/2000/svg" xmlns:xlink="http://www.w3.org/1999/xlink" x="0px" y="0px"
	 viewBox="0 0 512 512" style="enable-background:new 0 0 512 512;" xml:space="preserve">
<g>
	<g>
		<path d="M406.375,220.017c-3.838-1.554-8.211,0.294-9.769,4.132c-4.711,11.615-15.866,19.121-28.421,19.121
			c-8.186,0-15.894-3.192-21.698-8.982c-2.927-2.927-5.188-6.334-6.719-10.128c-1.551-3.839-5.918-5.699-9.763-4.147
			c-3.841,1.551-5.697,5.921-4.147,9.763c2.291,5.673,5.663,10.76,10.03,15.125c8.642,8.621,20.112,13.369,32.298,13.369
			c18.691,0,35.304-11.181,42.321-28.484C412.064,225.948,410.214,221.574,406.375,220.017z"/>
	</g>
</g>
<g>
	<g>
		<path d="M321.001,163.822c-4.143,0-7.5,3.357-7.5,7.5v4.553c0,4.143,3.357,7.5,7.5,7.5s7.5-3.357,7.5-7.5v-4.553
			C328.501,167.179,325.144,163.822,321.001,163.822z"/>
	</g>
</g>
<g>
	<g>
		<path d="M415.368,163.822c-4.143,0-7.5,3.357-7.5,7.5v4.553c0,4.143,3.357,7.5,7.5,7.5s7.5-3.357,7.5-7.5v-4.553
			C422.868,167.179,419.512,163.822,415.368,163.822z"/>
	</g>
</g>
<g>
	<g>
		<path d="M469.769,216.72h-7.461c-3.991,0-7.283,3.126-7.49,7.111c-0.676,13.04-4.18,25.459-10.416,36.913
			c-2.73,5.015,0.937,11.087,6.58,11.087c2.658,0,5.233-1.416,6.594-3.915c6.175-11.341,10.067-23.488,11.608-36.196h0.585
			c16.277,0,29.52-13.242,29.52-29.52v-10.41c0-16.221-13.15-29.429-29.35-29.521v-40.228c0-0.02,0.003-0.039,0.003-0.058V89.812
			C469.941,40.289,429.652,0,380.129,0h-135.75c-4.143,0-7.5,3.357-7.5,7.5v32.484c0,4.143,3.357,7.5,7.5,7.5s7.5-3.357,7.5-7.5V15
			h128.25c41.251,0,74.812,33.561,74.812,74.812v24.672h-156.16c-7.524,0-14.631-1.769-20.936-4.904
			c-0.273-0.156-0.554-0.297-0.847-0.418c-14.347-7.5-24.321-22.21-25.074-39.498c-0.181-4.139-3.722-7.361-7.819-7.167
			c-4.139,0.181-7.347,3.682-7.167,7.819c0.931,21.352,12.522,39.712,29.517,50.099c-0.009,0.522-0.028,1.044-0.028,1.566v40.29
			c-2.277,0.013-4.527,0.293-6.71,0.817v-4.397c0-8.63-7.016-15.65-15.64-15.65h-3.753v-0.869c0-8.277-6.734-15.012-15.012-15.012
			h-78.865c-8.277,0-15.012,6.734-15.012,15.012v0.869h-13.288c-8.63,0-15.65,7.021-15.65,15.65v29.74h-3.401
			c-14.024,0-25.434,11.409-25.434,25.434v33.678c0,5.803-4.721,10.523-10.523,10.523s-10.522-4.721-10.522-10.523v-33.678
			c0-14.024-11.41-25.434-25.435-25.434h-6.971c-4.143,0-7.5,3.357-7.5,7.5s3.357,7.5,7.5,7.5h6.971
			c5.754,0,10.435,4.681,10.435,10.434v33.678c0,14.073,11.449,25.523,25.522,25.523s25.523-11.45,25.523-25.523v-33.678
			c0-5.753,4.681-10.434,10.434-10.434h3.401v29.739c0,8.63,7.021,15.65,15.65,15.65h39.39v24.55h-0.29
			c-6.534,0-11.85,5.315-11.85,11.85v83.8c0,22.244,18.097,40.341,40.34,40.341h6.47c4.143,0,7.5-3.357,7.5-7.5s-3.357-7.5-7.5-7.5
			h-6.47c-13.973,0-25.34-11.368-25.34-25.341v-80.65h50.96v39.26c0,8.696,7.074,15.771,15.77,15.771h80.746
			c-4.797,6.408-6.871,14.541-5.684,22.488l7.429,49.674c0.622,4.185,3.287,7.74,7.13,9.512c1.673,0.771,3.457,1.152,5.236,1.152
			c2.311,0,4.611-0.645,6.645-1.917l39.558-24.87l39.569,24.883c3.587,2.238,8.02,2.521,11.858,0.755
			c3.837-1.766,6.506-5.315,7.141-9.51l7.42-49.68c1.187-7.947-0.887-16.081-5.684-22.487h0.377c28.237,0,51.21,22.973,51.21,51.21
			V497h-24.439v-55.719c0-4.143-3.357-7.5-7.5-7.5s-7.5,3.357-7.5,7.5V497H295.728v-86.39c0-8.96-7.295-16.25-16.261-16.25h-57.26
			c-4.143,0-7.5,3.357-7.5,7.5s3.357,7.5,7.5,7.5h57.26c0.695,0,1.261,0.561,1.261,1.25v89.89c0,6.341,5.159,11.5,11.5,11.5h191.35
			c6.341,0,11.5-5.159,11.5-11.5V394.61c0-36.509-29.701-66.21-66.21-66.21h-12.375l-5.435-6.776v-10.046
			c9.823-4.562,18.817-10.638,26.784-18.121c3.02-2.836,3.168-7.582,0.332-10.602c-2.837-3.02-7.583-3.166-10.602-0.332
			c-7.863,7.386-16.89,13.171-26.835,17.196c-9.046,3.67-18.561,5.756-28.342,6.221c-4.667,0.222-8.883,0.071-13.15-0.365
			c-8.116-0.828-16.029-2.777-23.614-5.848c0,0-0.001,0-0.002,0c-31.119-12.607-52.344-42.396-54.072-75.894
			c-0.206-3.986-3.498-7.113-7.49-7.113h-7.471c-2.429,0-4.788-0.617-6.88-1.75v-35.946c2.098-1.135,4.456-1.754,6.88-1.754h7.33
			c4.143,0,7.5-3.357,7.5-7.5v-42.747c5.509,1.596,11.33,2.461,17.354,2.461h156.156v40.286c0,4.143,3.357,7.5,7.5,7.5h7.33
			c8.006,0,14.52,6.514,14.52,14.521v10.41C484.288,210.206,477.773,216.72,469.769,216.72z M146.436,150.579
			c0-0.013,0.002-0.025,0.002-0.039c0-0.014-0.002-0.025-0.002-0.039v-8.331l0.011-0.011l78.877,0.012v10.63
			c0,7.669-6.239,13.908-13.908,13.908h-51.072c-7.669,0-13.908-6.239-13.908-13.908V150.579z M199.225,273.365h-26.687V248.82
			h26.687V273.365z M206.822,233.819c-0.032,0-0.064-0.005-0.097-0.005h-41.687c-0.033,0-0.064,0.004-0.097,0.005h-46.793
			c-0.358,0.001-0.65-0.291-0.65-0.649v-37.201c0-0.013,0.002-0.025,0.002-0.039c0-0.014-0.002-0.025-0.002-0.039V158.69
			c0-0.358,0.292-0.65,0.65-0.65h13.773c2.473,13.446,14.273,23.669,28.424,23.669h51.072c14.151,0,25.951-10.223,28.424-23.669
			h4.238c0.353,0,0.64,0.292,0.64,0.65v74.479c0,0.358-0.287,0.65-0.64,0.65H206.822z M407.457,355.286
			c2.246-2.739,3.505-6.174,3.586-9.708l5.146,6.416c2.622,3.269,3.771,7.525,3.15,11.678l-6.855,45.903l-32.748-20.593
			c0.243-0.259,0.493-0.509,0.72-0.786L407.457,355.286z M340.318,317.177c18.142,5.148,37.645,5.147,55.74-0.004v28.047
			c0,0.206-0.067,0.392-0.198,0.553l-27.005,32.915c-0.347,0.424-0.996,0.427-1.349-0.004l-26.988-32.909
			c-0.131-0.159-0.2-0.351-0.2-0.555V317.177z M328.918,355.285l26.987,32.907c0.229,0.279,0.482,0.532,0.727,0.793L323.89,409.57
			l-6.864-45.899c-0.621-4.152,0.528-8.408,3.151-11.677l5.156-6.424C325.413,349.105,326.671,352.543,328.918,355.285z
			 M259.718,233.169v-2.268c2.235,0.537,4.542,0.819,6.879,0.819h0.602c4.268,34.672,26.344,65.07,58.119,79.858v10.044l-5.44,6.778
			h-92.75c-0.425,0-0.77-0.346-0.77-0.771v-42.41c0-6.534-5.316-11.85-11.851-11.85h-0.283v-24.55h29.854
			C252.702,248.819,259.718,241.798,259.718,233.169z"/>
	</g>
</g>
<g>
	<g>
		<path d="M95.962,108.858l-18.039-18.04c-2.93-2.928-7.678-2.928-10.607,0c-2.929,2.93-2.929,7.678,0,10.607l18.038,18.04
			c1.465,1.464,3.385,2.196,5.304,2.196s3.839-0.732,5.304-2.196C98.892,116.535,98.892,111.787,95.962,108.858z"/>
	</g>
</g>
<g>
	<g>
		<path d="M75.577,136.398l-24.641-6.603c-4.001-1.074-8.113,1.303-9.186,5.303c-1.071,4.003,1.303,8.115,5.304,9.187
			c26.104,6.903,24.833,6.86,26.587,6.86c3.312,0,6.342-2.21,7.239-5.561C81.952,141.583,79.578,137.47,75.577,136.398z"/>
	</g>
</g>
<g>
	<g>
		<path d="M127.384,95.197l-6.603-24.641c-1.072-4.001-5.185-6.38-9.186-5.303c-4.001,1.072-6.375,5.185-5.303,9.186l6.604,24.641
			c0.897,3.351,3.928,5.561,7.239,5.561c0.643,0,1.296-0.083,1.946-0.258C126.082,103.311,128.457,99.198,127.384,95.197z"/>
	</g>
</g>
<g>
</g>
<g>
</g>
<g>
</g>
<g>
</g>
<g>
</g>
<g>
</g>
<g>
</g>
<g>
</g>
<g>
</g>
<g>
</g>
<g>
</g>
<g>
</g>
<g>
</g>
<g>
</g>
<g>
</g>
</svg>
