<svg height="479.99829pt" viewBox="1 1 479.99829 479.99829" width="479.99829pt" xmlns="http://www.w3.org/2000/svg"><path d="m352 384 32-32 24 24c8.835938 8.835938 8.835938 23.164062 0 32s-23.164062 8.835938-32 0zm0 0" fill="#ff421d"/><path d="m8 311.996094 96-96.003906 80 80-96.003906 96.003906zm0 0" fill="#36717a"/><path d="m55.996094 264 47.996094-48 40 40-47.996094 48zm0 0" fill="#a7d6dd"/><path d="m47.996094 352 48-47.996094 39.996094 40-47.996094 47.996094zm0 0" fill="#6cbbc7"/><path d="m216 104 96-96.003906 80 80-96.003906 96.003906zm0 0" fill="#36717a"/><path d="m263.996094 55.996094 47.996094-48 40 40-47.996094 47.996094zm0 0" fill="#6cbbc7"/><path d="m255.996094 143.996094 48-47.996094 39.996094 39.996094-47.996094 48zm0 0" fill="#a7d6dd"/><g fill="#b3b3b3"><path d="m152 183.996094 32-32 72 72-32 32zm0 0"/><path d="m72 72c8.835938-8.839844 23.164062-8.839844 32 0l32 32-32 32-32-32c-8.839844-8.835938-8.839844-23.164062 0-32zm0 0"/><path d="m272 304 32-32 24 24c8.835938 8.835938 8.835938 23.164062 0 32s-23.164062 8.835938-32 0zm0 0"/></g><path d="m328 328c30.925781-30.925781 81.070312-30.925781 112 0l-112 112c-30.925781-30.929688-30.925781-81.074219 0-112zm0 0" fill="#fdb62f"/><path d="m72 136 64-64.003906 80 80-64 64.003906zm0 0" fill="#e6e6e6"/><path d="m192 256 64.003906-64.003906 80 80-64.003906 64.003906zm0 0" fill="#e6e6e6"/><path d="m413.652344 370.34375-2.34375-2.34375 34.34375-34.347656c3.125-3.121094 3.125-8.1875 0-11.308594-27.398438-27.320312-69.511719-33.34375-103.46875-14.800781-.90625-6.507813-3.898438-12.542969-8.53125-17.199219l-2.34375-2.34375 10.34375-10.347656c3.125-3.121094 3.125-8.1875 0-11.308594l-66.34375-66.34375 12.691406-12.691406 2.34375 2.34375c3.121094 3.125 8.1875 3.125 11.308594 0l96-96c3.125-3.121094 3.125-8.1875 0-11.308594l-80-80c-3.121094-3.125-8.1875-3.125-11.308594 0l-96 96c-3.125 3.121094-3.125 8.1875 0 11.308594l2.34375 2.347656-12.6875 12.6875-58.347656-58.34375c-3.121094-3.125-8.1875-3.125-11.308594 0l-10.34375 10.34375-10.347656-10.34375c-11.957032-11.960938-31.351563-11.960938-43.308594 0-11.960938 11.957031-11.960938 31.351562 0 43.308594l10.34375 10.347656-10.34375 10.34375c-3.125 3.121094-3.125 8.1875 0 11.308594l58.34375 58.347656-12.6875 12.6875-2.347656-2.34375c-3.121094-3.125-8.1875-3.125-11.308594 0l-96 96c-3.125 3.121094-3.125 8.1875 0 11.308594l80 80c3.121094 3.125 8.1875 3.125 11.308594 0l96-96c3.125-3.121094 3.125-8.1875 0-11.308594l-2.34375-2.34375 12.691406-12.691406 66.34375 66.34375c3.121094 3.125 8.1875 3.125 11.308594 0l10.347656-10.34375 2.34375 2.34375c4.65625 4.632812 10.691406 7.625 17.199219 8.53125-18.542969 33.957031-12.519531 76.070312 14.800781 103.46875 3.121094 3.125 8.1875 3.125 11.308594 0l34.347656-34.34375 2.34375 2.34375c11.957031 11.960937 31.351562 11.960937 43.308594 0 11.960937-11.957032 11.960937-31.351563 0-43.308594zm-117.652344-197.65625-28.691406-28.6875 36.691406-36.691406 28.6875 28.691406zm48-48-28.691406-28.6875 36.691406-36.691406 28.6875 28.691406zm-32-105.378906 28.6875 28.691406-36.6875 36.6875-28.691406-28.6875zm-48 48 28.6875 28.691406-36.6875 36.6875-28.691406-28.6875zm-40 56 26.34375 26.34375 26.34375 26.347656-12.6875 12.6875-2.347656-2.34375c-3.121094-3.125-8.1875-3.125-11.308594 0l-10.34375 10.34375-28.691406-28.6875 10.34375-10.347656c3.125-3.121094 3.125-8.1875 0-11.308594l-10.34375-10.34375zm4.6875 84.691406-20.6875 20.6875-28.691406-28.6875 20.691406-20.691406zm-151.035156-109.65625c-5.503906-5.75-5.40625-14.84375.222656-20.46875 5.625-5.628906 14.71875-5.726562 20.46875-.222656l10.34375 10.347656-20.6875 20.6875zm16 27.308594 32-32 10.347656-10.34375 68.6875 68.691406-52.6875 52.6875-68.691406-68.6875zm10.347656 101.65625 28.6875 28.691406-36.6875 36.6875-28.691406-28.6875zm-48 48 28.6875 28.691406-36.6875 36.6875-28.691406-28.6875zm32 105.378906-28.691406-28.6875 36.691406-36.691406 28.6875 28.691406zm48-48-28.691406-28.6875 36.691406-36.691406 28.6875 28.691406zm40-56-26.347656-26.34375-26.34375-26.34375 12.691406-12.691406 10.34375 10.34375c3.121094 3.125 8.1875 3.125 11.308594 0l10.347656-10.34375 28.6875 28.691406-10.34375 10.34375c-3.125 3.121094-3.125 8.1875 0 11.308594l2.34375 2.347656zm96 48-68.691406-68.6875 10.34375-10.347656 32-32 10.347656-10.34375 68.6875 68.691406zm29.652344-2.34375-2.34375-2.34375 20.691406-20.691406 2.34375 2.34375c5.503906 5.75 5.40625 14.84375-.222656 20.46875-5.625 5.628906-14.71875 5.726562-20.46875.222656zm26.664062 106.023438c-22.566406-28.332032-20.265625-69.09375 5.34375-94.707032 25.613282-25.613281 66.371094-27.914062 94.707032-5.351562zm74.027344-26.023438c-5.71875 5.699219-14.972656 5.699219-20.691406 0l-2.34375-2.34375 20.691406-20.691406 2.34375 2.34375c5.699219 5.71875 5.699219 14.972656 0 20.691406zm0 0"/><path d="m408 432v16c22.078125-.027344 39.972656-17.921875 40-40h-16c0 13.253906-10.746094 24-24 24zm0 0"/><path d="m464 408c-.035156 30.910156-25.089844 55.964844-56 56v16c39.746094-.046875 71.953125-32.253906 72-72zm0 0"/></svg>