<?xml version="1.0" encoding="utf-8"?>
<!-- Generator: Adobe Illustrator 16.0.0, SVG Export Plug-In . SVG Version: 6.00 Build 0)  -->
<!DOCTYPE svg PUBLIC "-//W3C//DTD SVG 1.1//EN" "http://www.w3.org/Graphics/SVG/1.1/DTD/svg11.dtd">
<svg version="1.1" id="Capa_1" xmlns="http://www.w3.org/2000/svg" xmlns:xlink="http://www.w3.org/1999/xlink" x="0px" y="0px"
	 width="150px" height="150px" viewBox="0 0 150 150" enable-background="new 0 0 150 150" xml:space="preserve">
<g>
	<path fill="#E6E6E6" stroke="#000000" stroke-width="2" stroke-miterlimit="10" d="M144.638,53.055
		c0-9.108-30.589-16.492-68.319-16.492C38.588,36.563,8,43.947,8,53.055c0,0.134,0,0.399,0,0.399
		c0,37.73,30.588,68.319,68.318,68.319c37.73,0,68.319-30.589,68.319-68.319C144.638,53.452,144.638,53.186,144.638,53.055z"/>
	
		<ellipse fill="#D2D5D7" stroke="#000000" stroke-width="2" stroke-miterlimit="10" cx="76.318" cy="53.052" rx="68.319" ry="16.492"/>
</g>
<path fill="#6D2E67" d="M141.5,57.125L11.123,57.041c0,0,12.096,12.959,66.346,12.021C128.469,69.875,141.5,57.125,141.5,57.125"/>
<path fill="#6D2E67" d="M140.717,57.764L11.123,57.041c0,0,16.711-12.736,67.502-10.798c52.338,1.997,62.875,10.882,62.875,10.882"
	/>
</svg>
